<svg xmlns="http://www.w3.org/2000/svg" width="293.181" height="575.755" viewBox="0 0 293.181 575.755">
  <g id="Group_67" data-name="Group 67" transform="translate(-1445.966 -990.066)">
    <g id="begin_chat" transform="translate(1201.166 990.066)">
      <path id="Path_1" data-name="Path 1" d="M532,78.409c-78.063,0-141.345,42.045-141.345,93.911,0,23.158,12.624,44.355,33.54,60.729v68.159L469,256.4a201.043,201.043,0,0,0,63,9.829c78.063,0,141.345-42.045,141.345-93.911S610.058,78.409,532,78.409Z" transform="translate(-145.85 -64.588)" fill="#fff"/>
      <path id="Path_58" data-name="Path 58" d="M545.5,60.409c-78.063,0-141.345,42.045-141.345,93.911,0,23.158,12.624,44.355,33.54,60.729v68.159L482.5,238.4a201.046,201.046,0,0,0,63,9.829c78.062,0,141.345-42.045,141.345-93.911S623.558,60.409,545.5,60.409Z" transform="translate(-149.359 -59.909)" fill="none" stroke="#3f3d56" stroke-miterlimit="10" stroke-width="1"/>
      <path id="Path_59" data-name="Path 59" d="M507.144,365.243s-2.843-38.289-1.5-45.292,2.6-26.937-4.764-20.384-4.745,21.42-4.745,21.42-6.984,40.466-.525,45.956S507.144,365.243,507.144,365.243Z" transform="translate(-172.423 -121.744)" fill="#a0616a"/>
      <path id="Path_60" data-name="Path 60" d="M512.027,425.041S490.119,405.5,491.3,388.923c0,0,13.026-10.066,15.987-4.737s24.479,26.118,20.825,33.19S512.027,425.041,512.027,425.041Z" transform="translate(-172.005 -143.677)" fill="#09f"/>
      <path id="Path_61" data-name="Path 61" d="M624.136,370.395s13.026-36.118,13.618-43.223,4.737-26.644,10.066-18.355-1.184,21.908-1.184,21.908-4.145,40.854-11.842,44.407S624.136,370.395,624.136,370.395Z" transform="translate(-206.55 -123.965)" fill="#a0616a"/>
      <path id="Path_62" data-name="Path 62" d="M573.734,637.564h34.934l1.776,17.763-8.289,1.776s-19.539-5.921-30.789-4.145S573.734,637.564,573.734,637.564Z" transform="translate(-191.674 -209.953)" fill="#a0616a"/>
      <path id="Path_63" data-name="Path 63" d="M607.334,632.407s16.579-11.25,19.539-1.776S640.491,674.446,636.939,678s-7.7-2.961-7.7-2.961-7.105-14.8-12.434-15.394-8.289-5.329-8.289-5.329S623.912,642.472,607.334,632.407Z" transform="translate(-202.182 -207.164)" fill="#2f2e41"/>
      <path id="Path_64" data-name="Path 64" d="M564.128,756.438s6.513,26.644,5.329,30.789S588.4,789,588.4,789l1.184-7.7s-11.842-18.947-11.842-27.236S564.128,756.438,564.128,756.438Z" transform="translate(-190.949 -239.421)" fill="#a0616a"/>
      <path id="Path_65" data-name="Path 65" d="M583.8,784.782s15.987,11.842,7.7,17.763-39.078,21.315-39.078,21.315-11.25,1.776-2.96-8.289,10.658-11.842,11.25-17.171a25.992,25.992,0,0,1,3.651-10S572.548,804.913,583.8,784.782Z" transform="translate(-186.343 -248.226)" fill="#2f2e41"/>
      <path id="Path_66" data-name="Path 66" d="M530.6,588.5s-6.513,61.578,3.552,81.117,21.907,46.183,21.315,47.368,17.171-1.776,17.171-7.105S553.1,651.26,553.1,651.26s8.289-69.275,14.8-74.012S530.6,588.5,530.6,588.5Z" transform="translate(-181.693 -194.045)" fill="#2f2e41"/>
      <path id="Path_67" data-name="Path 67" d="M530.6,588.5s-6.513,61.578,3.552,81.117,21.907,46.183,21.315,47.368,17.171-1.776,17.171-7.105S553.1,651.26,553.1,651.26s8.289-69.275,14.8-74.012S530.6,588.5,530.6,588.5Z" transform="translate(-181.693 -194.045)" opacity="0.1"/>
      <path id="Path_68" data-name="Path 68" d="M538.62,357.93c-4.232.766-8.425,3.091-10.53,7.063-1.963,3.7-2.088,8.656-5.212,11.316-1.865,1.588-4.4,1.955-6.478,3.2a9.977,9.977,0,0,0-4.589,8.886c.167,3.267,1.89,6.31,1.853,9.581-.048,4.253-2.988,7.764-5.754,10.842l9.173,1.7a9.131,9.131,0,0,0,4.244.113c1.584-.469,2.871-1.774,4.473-2.172,2.3-.57,4.569.827,6.619,2.066a143.412,143.412,0,0,0,18.32,8.843c1.833.78,3.912,1.561,5.721.719,1.461-.68,2.37-2.268,3.744-3.128,2.461-1.539,5.551-.381,8.317.379a27.493,27.493,0,0,0,18.784-1.6c-1.267-1.48-2.927-2.515-4.293-3.893s-2.47-3.329-2.109-5.292c.368-2,2.088-3.337,3.261-4.953a11.637,11.637,0,0,0,1.771-8.824,16.1,16.1,0,0,0-4.224-7.993,42.229,42.229,0,0,1-3.455-3.643c-2.158-2.914-2.692-6.772-3.383-10.405s-1.78-7.5-4.583-9.712c-4.464-3.524-11.714-2.323-16.933-2.673C548.381,358.023,543.584,357.93,538.62,357.93Z" transform="translate(-176.334 -137.256)" fill="#2f2e41"/>
      <path id="Path_69" data-name="Path 69" d="M502.657,528.256l11.25,27.828s-51.512,56.249-22.5,63.946,39.078-5.921,57.433,4.737c0,0,8.881-13.618,7.7-21.907,0,0-25.46-4.737-39.078-4.145,0,0,36.71-31.973,40.262-33.157s15.395-20.131-2.96-35.526-13.618-23.684-13.618-23.684Z" transform="translate(-169.74 -175.841)" fill="#2f2e41"/>
      <path id="Path_70" data-name="Path 70" d="M543.284,405.093s1.776,18.355-5.921,20.723,30.2,1.776,30.2,1.776-8.881-5.329-4.737-16.579S543.284,405.093,543.284,405.093Z" transform="translate(-183.723 -149.189)" fill="#a0616a"/>
      <path id="Path_71" data-name="Path 71" d="M543.284,405.093s1.776,18.355-5.921,20.723,30.2,1.776,30.2,1.776-8.881-5.329-4.737-16.579S543.284,405.093,543.284,405.093Z" transform="translate(-183.723 -149.189)" opacity="0.1"/>
      <path id="Path_72" data-name="Path 72" d="M573.8,442.69s-3.553-18.355-10.658-17.171-21.315,2.368-23.092,3.553-11.25,3.611-11.25,3.611,3.553-4.2,0-4.8-14.8,2.368-15.987,4.737-5.921,7.105-5.921,15.394-3.553,22.5-2.368,28.421-.592,19.539-4.145,27.236-.592,15.394,5.329,7.7,2.961,0,7.7.592,26.052-21.315,31.973-15.986,11.842,8.881,13.026,5.921-4.737-8.289-4.737-10.658-9.473,7.7.592-13.026S554.855,451.572,573.8,442.69Z" transform="translate(-173.978 -154.813)" fill="#09f"/>
      <path id="Path_73" data-name="Path 73" d="M592.484,432.093l4.737,1.184s17.171-12.434,21.907-21.315,8.289-15.987,8.289-15.987-7.7-9.474-12.434-5.921-26.052,27.828-26.052,27.828Z" transform="translate(-197.398 -145.4)" fill="#09f"/>
      <circle id="Ellipse_1" data-name="Ellipse 1" cx="18.355" cy="18.355" r="18.355" transform="translate(354.824 231.628)" fill="#a0616a"/>
      <path id="Path_74" data-name="Path 74" d="M542.187,385.2a16.121,16.121,0,0,1,11.211-3.687c7.036.433,13.229,5.447,20.277,5.6a7.267,7.267,0,0,1,.606-4.492c.546-1.12,1.409-2.205,1.293-3.446a4.2,4.2,0,0,0-1.52-2.49,23.791,23.791,0,0,0-15.314-6.1c-3.76-.164-10.937-.075-13.853,2.772C542.391,375.8,542.681,382.042,542.187,385.2Z" transform="translate(-185.245 -140.534)" fill="#2f2e41"/>
    </g>
    <g id="Group_44" data-name="Group 44" transform="translate(660.85 766.137)">
      <path id="Path_419" data-name="Path 419" d="M894.738,343.123c12.585-6.579,20.935-18.1,20.935-31.221,0-20.45-20.265-37.03-45.261-37.03S825.15,291.452,825.15,311.9s20.265,37.034,45.261,37.034c.855,0,1.705-.027,2.552-.066a66.47,66.47,0,0,0,30.971,10.772,71.064,71.064,0,0,0,11.06.185C905.913,357.517,899.376,350.749,894.738,343.123Z" transform="translate(0 31.37)" fill="#0095f5" stroke="#fff" stroke-linecap="round" stroke-linejoin="round" stroke-width="1.5"/>
      <path id="Path_420" data-name="Path 420" d="M901.977,266.9c-25,0-45.261,16.581-45.261,37.03,0,13.12,8.365,24.623,20.946,31.2-4.639,7.638-11.176,14.413-20.269,16.727a71.533,71.533,0,0,0,11.06-.185,66.478,66.478,0,0,0,30.99-10.814c.843.039,1.678.1,2.533.1,25,0,45.261-16.577,45.261-37.031S926.973,266.9,901.977,266.9Z" transform="translate(89.954 8.657)" fill="#fbb03b" stroke="#fff" stroke-linecap="round" stroke-linejoin="round" stroke-width="1.5"/>
      <g id="Group_42" data-name="Group 42" transform="translate(965.387 297.933)">
        <path id="Path_421" data-name="Path 421" d="M887.517,277.406a47.9,47.9,0,0,1-1.159,6.956l-1.7-.3a35.822,35.822,0,0,1,3.049,8.816l-3.75,1.374a35.376,35.376,0,0,0-2.883-9.166l3.13-1.1-1.163-.219c.081-.755.215-1.752.323-2.8h-2.372v13.1c0,2.56-.431,4.288-5.609,4.288a14.127,14.127,0,0,0-1.321-3.938c1.051.027,2.183.027,2.56.027.35,0,.485-.081.485-.431V280.963h-2.237a23.53,23.53,0,0,1-1.779,3.265l3.962,1.024c-.081.243-.35.377-.728.377a28.247,28.247,0,0,1-3.665,8.735,21.786,21.786,0,0,0-3.045-1.913,21.421,21.421,0,0,0,3.1-7.634h-.027c-.242.354-.485.678-.754,1a25.469,25.469,0,0,0-2.78-2.375v14.914h-3.881V286.707c-.462.647-.916,1.24-1.374,1.805a31.493,31.493,0,0,0-2.322-3.5c2.371-2.7,4.693-7.63,6.04-12.3l4.45,1.374c-.108.27-.4.4-.839.377-.7,2-1.509,4.019-2.4,5.959l1.132.27c-.054.3-.3.512-.808.566v1.832c1.94-2.371,3.534-6.414,4.369-10.3l4.5,1.186c-.081.243-.354.4-.785.377-.269,1-.566,1.994-.916,2.991h9.089Z" transform="translate(-861.578 -272.713)" fill="#f2f2f2"/>
        <path id="Path_422" data-name="Path 422" d="M877.716,277.891l2.052.458a3.724,3.724,0,0,1-.189.647,38.378,38.378,0,0,1-2.075,11.268,18.549,18.549,0,0,1,2.829,2.807l-2.344,3.153a21.748,21.748,0,0,0-2.213-2.479,15.135,15.135,0,0,1-4.747,4.693,13.69,13.69,0,0,0-2.317-3.1,10.612,10.612,0,0,0,4.154-4.1l-.754-.589-.162.647-3.184-1.675c.593-2.183,1.217-5.043,1.805-8.034h-1.859v-3.611h2.537c.323-1.809.593-3.615.835-5.259l4.339.431c-.023.3-.266.458-.781.512l-.781,4.316h2.21Zm-3.584,3.692c-.377,1.806-.755,3.615-1.159,5.34.458.3.943.62,1.4.97a29.848,29.848,0,0,0,1.347-6.31Zm19.953,2.86v3.692h-5.663v6.013c0,2.722-.647,4.262-6.121,4.181a16.288,16.288,0,0,0-1.375-3.83c.863.027,1.833.054,2.452.054.916,0,1.109,0,1.109-.458v-5.959h-5.34v-3.692h5.34v-3.965l1.1.054a21.881,21.881,0,0,0,2.048-2.883h-7.576V274.06h10.218l.646-.216,3.049,1.833a1.209,1.209,0,0,1-.755.431,47.047,47.047,0,0,1-4.8,6.121v2.214Z" transform="translate(-841.251 -272.713)" fill="#f2f2f2"/>
      </g>
      <path id="Path_423" data-name="Path 423" d="M901.172,325.632c11.384-5.956,18.952-16.365,18.952-28.242,0-18.517-18.344-33.527-40.976-33.527s-40.976,15.01-40.976,33.527,18.344,33.523,40.976,33.523c.774,0,1.532-.058,2.294-.092a60.186,60.186,0,0,0,28.057,9.79,64.745,64.745,0,0,0,10.013.166C911.281,338.682,905.372,332.546,901.172,325.632Z" transform="translate(37.106 0)" fill="#f71a19" stroke="#fff" stroke-linecap="round" stroke-linejoin="round" stroke-width="1.5"/>
      <g id="Group_43" data-name="Group 43" transform="translate(897.894 282.276)">
        <path id="Path_424" data-name="Path 424" d="M847.719,270.844l-.458-.508a.7.7,0,0,0-.573-.239c-.677.019-1.135.339-1.135.593,0,.443.781.9,2.217.9.628,0,1.116-.015,1.709-.05l.069.154a10.4,10.4,0,0,1-.7,1.367,10.777,10.777,0,0,0-4.227,1.22l-.2-.2c.2-.439.423-.862.658-1.267a1.445,1.445,0,0,1-1.032-1.355,2.893,2.893,0,0,1,1.086-1.913,3.266,3.266,0,0,1,2.1-.893c.728,0,1.2.37,1.2.947a2.312,2.312,0,0,1-.493,1.251Zm-1.605,20.808a29.452,29.452,0,0,0,.219-4.077,99.841,99.841,0,0,0-.578-10.995,28.6,28.6,0,0,1,1.963-2.152l.289.154c.339,3.653.389,7.072.389,10.352,0,2.656-.154,4.435-.524,5.008a12.048,12.048,0,0,1-1.39,1.979Z" transform="translate(-844.046 -268.646)" fill="#fff" stroke="#fff" stroke-miterlimit="10" stroke-width="0.25"/>
        <path id="Path_425" data-name="Path 425" d="M848.912,271.622l.358-.239c1.182.982,2.518,1.844,3.653,2.86a4.848,4.848,0,0,1,1.859,4.062,7.583,7.583,0,0,1-.828,3.553,5.075,5.075,0,0,1-4.027,2.044c-3.384,0-3.873-3.1-3.873-4.246,0-2.468,1.066-4.177,2.6-6.056Zm-1.266,6.9c0,1.013,1.032,1.944,2.552,1.944a3.772,3.772,0,0,0,3.064-1.421c-.135-1.116-1.286-2.283-3.5-3.534C848.269,276.815,847.645,277.8,847.645,278.524Z" transform="translate(-838.321 -260.846)" fill="#fff" stroke="#fff" stroke-miterlimit="10" stroke-width="0.25"/>
        <path id="Path_426" data-name="Path 426" d="M859.995,270.186c0,1.116.643,2.487,1.863,4.516l-1.524,1.151c.085,1.809.119,3.7.119,5.7a17.423,17.423,0,0,1-.812,5.7,6.99,6.99,0,0,1-5.886,3.265c-2.845,0-4.655-2.117-4.655-5.228a11.224,11.224,0,0,1,1.271-5.093l.9.439a8,8,0,0,0-.678,2.826,3.29,3.29,0,0,0,3.569,3.453,5.939,5.939,0,0,0,2.641-.693,4.843,4.843,0,0,0,1.875-1.405c.035-.423.035-.982.035-1.675,0-1.744-.235-5.347-.473-8.1-.066-.847-.219-1.49-.219-2.148a2.466,2.466,0,0,1,.458-1.574,6.85,6.85,0,0,1,1.317-1.271Z" transform="translate(-829.644 -264.654)" fill="#fff" stroke="#fff" stroke-miterlimit="10" stroke-width="0.25"/>
        <path id="Path_427" data-name="Path 427" d="M853.286,287.372a28.765,28.765,0,0,0,.223-4.077,99.9,99.9,0,0,0-.577-10.995,28.449,28.449,0,0,1,1.963-2.152l.289.154c.335,3.653.389,7.072.389,10.352,0,2.656-.154,4.435-.527,5.008a11.783,11.783,0,0,1-1.386,1.979Z" transform="translate(-818.724 -264.366)" fill="#fff" stroke="#fff" stroke-miterlimit="10" stroke-width="0.25"/>
      </g>
      <text id="Hi_" data-name="Hi!" transform="translate(851.321 351.245)" fill="#fff" font-size="27" font-family="SegoeUI-Bold, Segoe UI" font-weight="700"><tspan x="0" y="0">Hi!</tspan></text>
    </g>
  </g>
</svg>
