<svg xmlns="http://www.w3.org/2000/svg" width="293.181" height="575.755" viewBox="0 0 293.181 575.755"><g transform="translate(-244.8)"><path d="M532,78.409c-78.063,0-141.345,42.045-141.345,93.911,0,23.158,12.624,44.355,33.54,60.729v68.159L469,256.4a201.043,201.043,0,0,0,63,9.829c78.063,0,141.345-42.045,141.345-93.911S610.058,78.409,532,78.409Z" transform="translate(-145.85 -64.588)" fill="#fff"/><path d="M545.5,60.409c-78.063,0-141.345,42.045-141.345,93.911,0,23.158,12.624,44.355,33.54,60.729v68.159L482.5,238.4a201.046,201.046,0,0,0,63,9.829c78.062,0,141.345-42.045,141.345-93.911S623.558,60.409,545.5,60.409Z" transform="translate(-149.359 -59.909)" fill="none" stroke="#3f3d56" stroke-miterlimit="10" stroke-width="1"/><path d="M507.144,365.243s-2.843-38.289-1.5-45.292,2.6-26.937-4.764-20.384-4.745,21.42-4.745,21.42-6.984,40.466-.525,45.956S507.144,365.243,507.144,365.243Z" transform="translate(-172.423 -121.744)" fill="#a0616a"/><path d="M512.027,425.041S490.119,405.5,491.3,388.923c0,0,13.026-10.066,15.987-4.737s24.479,26.118,20.825,33.19S512.027,425.041,512.027,425.041Z" transform="translate(-172.005 -143.677)" fill="#09f"/><path d="M624.136,370.395s13.026-36.118,13.618-43.223,4.737-26.644,10.066-18.355-1.184,21.908-1.184,21.908-4.145,40.854-11.842,44.407S624.136,370.395,624.136,370.395Z" transform="translate(-206.55 -123.965)" fill="#a0616a"/><path d="M573.734,637.564h34.934l1.776,17.763-8.289,1.776s-19.539-5.921-30.789-4.145S573.734,637.564,573.734,637.564Z" transform="translate(-191.674 -209.953)" fill="#a0616a"/><path d="M607.334,632.407s16.579-11.25,19.539-1.776S640.491,674.446,636.939,678s-7.7-2.961-7.7-2.961-7.105-14.8-12.434-15.394-8.289-5.329-8.289-5.329S623.912,642.472,607.334,632.407Z" transform="translate(-202.182 -207.164)" fill="#2f2e41"/><path d="M564.128,756.438s6.513,26.644,5.329,30.789S588.4,789,588.4,789l1.184-7.7s-11.842-18.947-11.842-27.236S564.128,756.438,564.128,756.438Z" transform="translate(-190.949 -239.421)" fill="#a0616a"/><path d="M583.8,784.782s15.987,11.842,7.7,17.763-39.078,21.315-39.078,21.315-11.25,1.776-2.96-8.289,10.658-11.842,11.25-17.171a25.992,25.992,0,0,1,3.651-10S572.548,804.913,583.8,784.782Z" transform="translate(-186.343 -248.226)" fill="#2f2e41"/><path d="M530.6,588.5s-6.513,61.578,3.552,81.117,21.907,46.183,21.315,47.368,17.171-1.776,17.171-7.105S553.1,651.26,553.1,651.26s8.289-69.275,14.8-74.012S530.6,588.5,530.6,588.5Z" transform="translate(-181.693 -194.045)" fill="#2f2e41"/><path d="M530.6,588.5s-6.513,61.578,3.552,81.117,21.907,46.183,21.315,47.368,17.171-1.776,17.171-7.105S553.1,651.26,553.1,651.26s8.289-69.275,14.8-74.012S530.6,588.5,530.6,588.5Z" transform="translate(-181.693 -194.045)" opacity="0.1"/><path d="M538.62,357.93c-4.232.766-8.425,3.091-10.53,7.063-1.963,3.7-2.088,8.656-5.212,11.316-1.865,1.588-4.4,1.955-6.478,3.2a9.977,9.977,0,0,0-4.589,8.886c.167,3.267,1.89,6.31,1.853,9.581-.048,4.253-2.988,7.764-5.754,10.842l9.173,1.7a9.131,9.131,0,0,0,4.244.113c1.584-.469,2.871-1.774,4.473-2.172,2.3-.57,4.569.827,6.619,2.066a143.412,143.412,0,0,0,18.32,8.843c1.833.78,3.912,1.561,5.721.719,1.461-.68,2.37-2.268,3.744-3.128,2.461-1.539,5.551-.381,8.317.379a27.493,27.493,0,0,0,18.784-1.6c-1.267-1.48-2.927-2.515-4.293-3.893s-2.47-3.329-2.109-5.292c.368-2,2.088-3.337,3.261-4.953a11.637,11.637,0,0,0,1.771-8.824,16.1,16.1,0,0,0-4.224-7.993,42.229,42.229,0,0,1-3.455-3.643c-2.158-2.914-2.692-6.772-3.383-10.405s-1.78-7.5-4.583-9.712c-4.464-3.524-11.714-2.323-16.933-2.673C548.381,358.023,543.584,357.93,538.62,357.93Z" transform="translate(-176.334 -137.256)" fill="#2f2e41"/><path d="M502.657,528.256l11.25,27.828s-51.512,56.249-22.5,63.946,39.078-5.921,57.433,4.737c0,0,8.881-13.618,7.7-21.907,0,0-25.46-4.737-39.078-4.145,0,0,36.71-31.973,40.262-33.157s15.395-20.131-2.96-35.526-13.618-23.684-13.618-23.684Z" transform="translate(-169.74 -175.841)" fill="#2f2e41"/><path d="M543.284,405.093s1.776,18.355-5.921,20.723,30.2,1.776,30.2,1.776-8.881-5.329-4.737-16.579S543.284,405.093,543.284,405.093Z" transform="translate(-183.723 -149.189)" fill="#a0616a"/><path d="M543.284,405.093s1.776,18.355-5.921,20.723,30.2,1.776,30.2,1.776-8.881-5.329-4.737-16.579S543.284,405.093,543.284,405.093Z" transform="translate(-183.723 -149.189)" opacity="0.1"/><path d="M573.8,442.69s-3.553-18.355-10.658-17.171-21.315,2.368-23.092,3.553-11.25,3.611-11.25,3.611,3.553-4.2,0-4.8-14.8,2.368-15.987,4.737-5.921,7.105-5.921,15.394-3.553,22.5-2.368,28.421-.592,19.539-4.145,27.236-.592,15.394,5.329,7.7,2.961,0,7.7.592,26.052-21.315,31.973-15.986,11.842,8.881,13.026,5.921-4.737-8.289-4.737-10.658-9.473,7.7.592-13.026S554.855,451.572,573.8,442.69Z" transform="translate(-173.978 -154.813)" fill="#09f"/><path d="M592.484,432.093l4.737,1.184s17.171-12.434,21.907-21.315,8.289-15.987,8.289-15.987-7.7-9.474-12.434-5.921-26.052,27.828-26.052,27.828Z" transform="translate(-197.398 -145.4)" fill="#09f"/><circle cx="18.355" cy="18.355" r="18.355" transform="translate(354.824 231.628)" fill="#a0616a"/><path d="M542.187,385.2a16.121,16.121,0,0,1,11.211-3.687c7.036.433,13.229,5.447,20.277,5.6a7.267,7.267,0,0,1,.606-4.492c.546-1.12,1.409-2.205,1.293-3.446a4.2,4.2,0,0,0-1.52-2.49,23.791,23.791,0,0,0-15.314-6.1c-3.76-.164-10.937-.075-13.853,2.772C542.391,375.8,542.681,382.042,542.187,385.2Z" transform="translate(-185.245 -140.534)" fill="#2f2e41"/></g></svg>