<svg xmlns="http://www.w3.org/2000/svg" xmlns:xlink="http://www.w3.org/1999/xlink" width="802.514" height="421.099" viewBox="0 0 802.514 421.099"><defs><linearGradient id="a" x1="0.5" y1="1" x2="0.5" gradientUnits="objectBoundingBox"><stop offset="0" stop-color="gray" stop-opacity="0.251"/><stop offset="0.54" stop-color="gray" stop-opacity="0.122"/><stop offset="1" stop-color="gray" stop-opacity="0.102"/></linearGradient><linearGradient id="b" x1="0.5" y1="1" x2="0.5" y2="-0.001" xlink:href="#a"/></defs><g transform="translate(0 0.359)"><g transform="translate(311.303 28.93)" opacity="0.1"><ellipse cx="8.333" cy="10.91" rx="8.333" ry="10.91" transform="translate(31.406 225.216)" fill="#3f3d56"/><path d="M534.959,454.571A13.18,13.18,0,0,0,536.7,447.9c0-6.026-3.734-10.91-8.34-10.91S520,441.889,520,447.915a13.18,13.18,0,0,0,1.743,6.671,13.627,13.627,0,0,0,0,13.334,13.627,13.627,0,0,0,0,13.334A13.136,13.136,0,0,0,520,487.923c0,6.019,3.734,10.91,8.333,10.91s8.34-4.891,8.34-10.91a13.136,13.136,0,0,0-1.743-6.671,13.627,13.627,0,0,0,0-13.334,13.627,13.627,0,0,0,0-13.334Z" transform="translate(-488.623 -265.124)" fill="#3f3d56"/><ellipse cx="8.333" cy="10.91" rx="8.333" ry="10.91" transform="translate(31.406 158.547)" fill="#3f3d56"/><ellipse cx="8.333" cy="10.91" rx="8.333" ry="10.91" transform="translate(31.406 145.213)" fill="#3f3d56"/><path d="M485.695,267.138a38.867,38.867,0,0,1-3.1-4.569l21.893-3.6-23.68.176a39.994,39.994,0,0,1-.732-31.632L511.842,244l-29.289-21.542a39.928,39.928,0,1,1,65.9,44.665,39.932,39.932,0,0,1,4.554,7.278l-28.432,14.806,30.307-10.171a39.928,39.928,0,0,1-6.436,37.49,39.921,39.921,0,1,1-62.751,0,39.921,39.921,0,0,1,0-49.366Z" transform="translate(-477.149 -202.271)" fill="#0095f5"/><path d="M556.991,324.355a39.738,39.738,0,0,1-8.545,24.683,39.921,39.921,0,1,1-62.751,0C480.342,342.243,556.991,319.874,556.991,324.355Z" transform="translate(-477.149 -234.805)" opacity="0.1"/></g><g transform="translate(418.625 65.418)" opacity="0.1"><ellipse cx="6.231" cy="8.15" rx="6.231" ry="8.15" transform="translate(23.467 168.159)" fill="#3f3d56"/><path d="M666.919,440.456a9.834,9.834,0,0,0,1.3-4.979c0-4.5-2.79-8.157-6.224-8.157s-6.231,3.661-6.231,8.157a9.761,9.761,0,0,0,1.3,4.979,10.178,10.178,0,0,0,0,9.965,10.178,10.178,0,0,0,0,9.966,9.761,9.761,0,0,0-1.3,4.979c0,4.5,2.79,8.157,6.231,8.157s6.224-3.661,6.224-8.157a9.834,9.834,0,0,0-1.3-4.979,10.251,10.251,0,0,0,0-9.966,10.251,10.251,0,0,0,0-9.965Z" transform="translate(-632.3 -299.023)" fill="#3f3d56"/><ellipse cx="6.231" cy="8.15" rx="6.231" ry="8.15" transform="translate(23.467 118.339)" fill="#3f3d56"/><ellipse cx="6.231" cy="8.15" rx="6.231" ry="8.15" transform="translate(23.467 108.374)" fill="#3f3d56"/><path d="M630.105,300.435a28.56,28.56,0,0,1-2.321-3.412l16.365-2.687-17.7.132a29.9,29.9,0,0,1-.571-23.643l23.746,12.323-21.9-16.109A29.838,29.838,0,1,1,677,300.427a30.172,30.172,0,0,1,3.4,5.44L659.167,316.9l22.648-7.6A29.846,29.846,0,0,1,677,337.317a29.831,29.831,0,1,1-46.862,0,29.831,29.831,0,0,1,0-36.889Z" transform="translate(-623.72 -252.103)" fill="#0095f5"/><path d="M683.386,343.139A29.706,29.706,0,0,1,677,361.584a29.831,29.831,0,1,1-46.862,0C626.127,356.51,683.386,339.793,683.386,343.139Z" transform="translate(-623.725 -276.363)" opacity="0.1"/></g><g transform="translate(720.169 -0.359)" opacity="0.1"><ellipse cx="8.333" cy="10.91" rx="8.333" ry="10.91" transform="translate(31.968 225.215)" fill="#3f3d56"/><path d="M1080.932,414.571a13.179,13.179,0,0,1-1.743-6.671c0-6.026,3.734-10.91,8.34-10.91s8.333,4.884,8.333,10.91a13.179,13.179,0,0,1-1.743,6.671,13.626,13.626,0,0,1,0,13.334,13.626,13.626,0,0,1,0,13.334,13.134,13.134,0,0,1,1.743,6.671c0,6.019-3.734,10.91-8.333,10.91s-8.34-4.891-8.34-10.91a13.135,13.135,0,0,1,1.743-6.671,13.626,13.626,0,0,1,0-13.334A13.626,13.626,0,0,1,1080.932,414.571Z" transform="translate(-1047.229 -225.124)" fill="#3f3d56"/><ellipse cx="8.333" cy="10.91" rx="8.333" ry="10.91" transform="translate(31.968 158.547)" fill="#3f3d56"/><ellipse cx="8.333" cy="10.91" rx="8.333" ry="10.91" transform="translate(31.968 145.213)" fill="#3f3d56"/><path d="M1107.034,227.138a38.859,38.859,0,0,0,3.1-4.569l-21.894-3.6,23.68.176a39.994,39.994,0,0,0,.732-31.632L1080.887,204l29.289-21.542a39.928,39.928,0,1,0-65.9,44.665,39.937,39.937,0,0,0-4.554,7.278l28.432,14.805-30.307-10.171a39.928,39.928,0,0,0,6.436,37.49,39.921,39.921,0,1,0,62.751,0,39.92,39.92,0,0,0,0-49.366Z" transform="translate(-1035.541 -162.271)" fill="#0095f5"/><path d="M1035.81,284.355a39.738,39.738,0,0,0,8.545,24.683,39.921,39.921,0,1,0,62.751,0C1112.458,302.243,1035.81,279.874,1035.81,284.355Z" transform="translate(-1035.613 -194.805)" opacity="0.1"/></g><g transform="translate(650.033 61.025)" opacity="0.1"><ellipse cx="6.231" cy="8.15" rx="6.231" ry="8.15" transform="translate(23.763 168.16)" fill="#3f3d56"/><path d="M973.526,434.456a9.834,9.834,0,0,1-1.3-4.979c0-4.5,2.79-8.157,6.224-8.157s6.231,3.661,6.231,8.157a9.761,9.761,0,0,1-1.3,4.979,10.178,10.178,0,0,1,0,9.966,10.178,10.178,0,0,1,0,9.965,9.76,9.76,0,0,1,1.3,4.979c0,4.5-2.79,8.157-6.231,8.157s-6.224-3.661-6.224-8.157a9.834,9.834,0,0,1,1.3-4.979,10.251,10.251,0,0,1,0-9.965,10.251,10.251,0,0,1,0-9.966Z" transform="translate(-948.452 -293.023)" fill="#3f3d56"/><ellipse cx="6.231" cy="8.15" rx="6.231" ry="8.15" transform="translate(23.763 118.339)" fill="#3f3d56"/><ellipse cx="6.231" cy="8.15" rx="6.231" ry="8.15" transform="translate(23.763 108.374)" fill="#3f3d56"/><path d="M993.065,294.435a28.552,28.552,0,0,0,2.321-3.412l-16.365-2.687,17.7.132a29.9,29.9,0,0,0,.571-23.643l-23.746,12.323,21.9-16.109a29.838,29.838,0,1,0-49.271,33.389,30.167,30.167,0,0,0-3.4,5.44L964,310.9l-22.6-7.593a29.845,29.845,0,0,0,4.811,28.015,29.831,29.831,0,1,0,46.862,0,29.831,29.831,0,0,0,0-36.889Z" transform="translate(-939.756 -246.103)" fill="#0095f5"/><path d="M939.794,337.139a29.707,29.707,0,0,0,6.385,18.445,29.831,29.831,0,1,0,46.862,0C997.054,350.51,939.794,333.793,939.794,337.139Z" transform="translate(-939.763 -270.363)" opacity="0.1"/></g><g transform="translate(5.352 -0.236)" opacity="0.1"><ellipse cx="8.333" cy="10.91" rx="8.333" ry="10.91" transform="translate(31.413 225.093)" fill="#3f3d56"/><path d="M117.132,414.571a13.18,13.18,0,0,0,1.743-6.671c0-6.026-3.734-10.91-8.333-10.91s-8.333,4.884-8.333,10.91a13.18,13.18,0,0,0,1.735,6.671,13.67,13.67,0,0,0,0,13.334,13.671,13.671,0,0,0,0,13.334,13.129,13.129,0,0,0-1.735,6.671c0,6.019,3.727,10.91,8.333,10.91s8.355-4.877,8.355-10.9a13.136,13.136,0,0,0-1.743-6.671,13.627,13.627,0,0,0,0-13.334,13.627,13.627,0,0,0,0-13.334Z" transform="translate(-70.797 -225.247)" fill="#3f3d56"/><ellipse cx="8.333" cy="10.91" rx="8.333" ry="10.91" transform="translate(31.413 158.424)" fill="#3f3d56"/><ellipse cx="8.333" cy="10.91" rx="8.333" ry="10.91" transform="translate(31.413 145.09)" fill="#3f3d56"/><path d="M67.869,227.183a39.781,39.781,0,0,1-3.1-4.569l21.9-3.6-23.7.212a39.994,39.994,0,0,1-.732-31.632L94.01,204.081,64.721,182.539a39.921,39.921,0,1,1,65.9,44.665,39.934,39.934,0,0,1,4.554,7.278l-28.439,14.769,30.314-10.171a39.972,39.972,0,0,1-6.444,37.49,39.921,39.921,0,1,1-62.751,0,39.921,39.921,0,0,1,0-49.366Z" transform="translate(-59.309 -162.439)" fill="#0095f5"/><path d="M139.151,284.355a39.738,39.738,0,0,1-8.545,24.683,39.921,39.921,0,1,1-62.751,0C62.5,302.243,139.151,279.874,139.151,284.355Z" transform="translate(-59.309 -194.928)" opacity="0.1"/></g><g transform="translate(95.833 61.024)" opacity="0.1"><ellipse cx="6.231" cy="8.15" rx="6.231" ry="8.15" transform="translate(23.467 168.16)" fill="#3f3d56"/><path d="M226.089,434.456a9.834,9.834,0,0,0,1.3-4.979c0-4.5-2.782-8.157-6.224-8.157s-6.231,3.661-6.231,8.157a9.834,9.834,0,0,0,1.3,4.979,10.178,10.178,0,0,0,0,9.966,10.178,10.178,0,0,0,0,9.965,9.834,9.834,0,0,0-1.3,4.979c0,4.5,2.79,8.157,6.231,8.157s6.224-3.661,6.224-8.157a9.834,9.834,0,0,0-1.3-4.979,10.251,10.251,0,0,0,0-9.966,10.251,10.251,0,0,0,0-9.966Z" transform="translate(-191.462 -293.022)" fill="#3f3d56"/><ellipse cx="6.231" cy="8.15" rx="6.231" ry="8.15" transform="translate(23.467 118.339)" fill="#3f3d56"/><ellipse cx="6.231" cy="8.15" rx="6.231" ry="8.15" transform="translate(23.467 108.374)" fill="#3f3d56"/><path d="M189.265,294.435a29.439,29.439,0,0,1-2.321-3.412l16.365-2.687-17.7.132a29.9,29.9,0,0,1-.571-23.643l23.746,12.323-21.9-16.109a29.838,29.838,0,1,1,49.271,33.389,29.378,29.378,0,0,1,3.4,5.44L218.327,310.9l22.648-7.6a29.845,29.845,0,0,1-4.811,28.015,29.831,29.831,0,1,1-46.862,0,29.831,29.831,0,0,1,0-36.889Z" transform="translate(-182.88 -246.103)" fill="#0095f5"/><path d="M242.546,337.139a29.706,29.706,0,0,1-6.385,18.445,29.831,29.831,0,1,1-46.862,0C185.272,350.51,242.546,333.793,242.546,337.139Z" transform="translate(-182.885 -270.363)" opacity="0.1"/></g><ellipse cx="401.257" cy="6.487" rx="401.257" ry="6.487" transform="translate(0 354.496)" fill="#0095f5" opacity="0.1"/><ellipse cx="401.257" cy="6.487" rx="401.257" ry="6.487" transform="translate(0 407.765)" fill="#0095f5" opacity="0.1"/><ellipse cx="401.257" cy="6.487" rx="401.257" ry="6.487" transform="translate(0 243.323)" fill="#0095f5" opacity="0.1"/><ellipse cx="401.257" cy="6.487" rx="401.257" ry="6.487" transform="translate(0 298.906)" fill="#0095f5" opacity="0.1"/><path d="M846.108,266.477a13.4,13.4,0,0,0-7.761.849,11.46,11.46,0,0,1-9.329,0,13.092,13.092,0,0,0-10.983.212,6.765,6.765,0,0,1-3.156.791c-4.452,0-8.15-4.481-8.918-10.39a8.7,8.7,0,0,0,2.2-2.394c2.607-4.2,6.641-6.9,11.181-6.9s8.523,2.665,11.13,6.824a8.552,8.552,0,0,0,7.388,4.057h.117C841.553,259.484,844.621,262.325,846.108,266.477Z" transform="translate(-253.895 -185.758)" fill="#0095f5" opacity="0.1"/><path d="M859.656,241.869l-7.19,4.554,4.393-7.937a7.1,7.1,0,0,0-4.349-1.545h-.117a8.312,8.312,0,0,1-1.464-.11l-2.475,1.545,1.047-1.9a8.633,8.633,0,0,1-4.269-3.236L840.838,236,843.591,231a12.759,12.759,0,0,0-9.768-4.935c-4.54,0-8.574,2.695-11.188,6.9a8.355,8.355,0,0,1-7.388,3.983H815c-5.008,0-9.065,5.675-9.065,12.675S810,262.3,815,262.3a6.876,6.876,0,0,0,3.156-.791,13.077,13.077,0,0,1,10.983-.22,11.386,11.386,0,0,0,9.328,0,13.121,13.121,0,0,1,10.881.212,6.809,6.809,0,0,0,3.119.776c5.008,0,9.065-5.682,9.065-12.682a16.058,16.058,0,0,0-1.882-7.725Z" transform="translate(-253.89 -179.711)" fill="#0095f5" opacity="0.1"/><path d="M432.988,263.024a9.4,9.4,0,0,0-5.44.593,8,8,0,0,1-6.524,0,9.138,9.138,0,0,0-7.681.154,4.847,4.847,0,0,1-2.2.549c-3.112,0-5.7-3.134-6.246-7.271a6.091,6.091,0,0,0,1.56-1.677,8.75,8.75,0,0,1,15.618-.059,6,6,0,0,0,5.177,2.841h.081C429.8,258.14,431.941,260.132,432.988,263.024Z" transform="translate(-146.499 -186.267)" fill="#0095f5" opacity="0.1"/><path d="M442.465,245.811,437.435,249l3.053-5.558a4.942,4.942,0,0,0-3.039-1.084h-.088a5.486,5.486,0,0,1-1.04-.081l-1.706,1.084.732-1.333a6.077,6.077,0,0,1-2.987-2.263l-3.053,1.933,1.933-3.5a8.94,8.94,0,0,0-6.839-3.463,9.366,9.366,0,0,0-7.827,4.833,5.858,5.858,0,0,1-5.177,2.79h-.168c-3.507,0-6.348,3.969-6.348,8.875s2.841,8.875,6.348,8.875a4.759,4.759,0,0,0,2.2-.557,9.153,9.153,0,0,1,7.674-.146,7.864,7.864,0,0,0,6.531.044,9.182,9.182,0,0,1,7.615.146,4.745,4.745,0,0,0,2.2.542c3.5,0,6.341-3.976,6.341-8.875a11.225,11.225,0,0,0-1.318-5.455Z" transform="translate(-146.494 -182.036)" fill="#0095f5" opacity="0.1"/><path d="M321.59,341.434a9.387,9.387,0,0,1,5.433.593,8.011,8.011,0,0,0,6.531,0,9.167,9.167,0,0,1,7.681.146,4.737,4.737,0,0,0,2.2.556c3.112,0,5.7-3.141,6.239-7.278a5.968,5.968,0,0,1-1.552-1.677c-1.831-2.929-4.657-4.825-7.827-4.825a9.339,9.339,0,0,0-7.8,4.774,6,6,0,0,1-5.169,2.841h-.081C324.775,336.58,322.622,338.564,321.59,341.434Z" transform="translate(-124.191 -207.263)" fill="#0095f5" opacity="0.1"/><path d="M308.155,324.254l5.038,3.192-3.061-5.55a4.972,4.972,0,0,1,3.046-1.091h.081a6.238,6.238,0,0,0,1.047-.073l1.706,1.076-.732-1.325a6.071,6.071,0,0,0,2.98-2.263l3.053,1.933-1.9-3.507a8.933,8.933,0,0,1,6.839-3.456,9.375,9.375,0,0,1,7.827,4.833,5.858,5.858,0,0,0,5.169,2.79h.176c3.5,0,6.341,3.976,6.341,8.875s-2.841,8.875-6.341,8.875a4.753,4.753,0,0,1-2.2-.549,9.138,9.138,0,0,0-7.681-.154,7.953,7.953,0,0,1-3.28.732,8.055,8.055,0,0,1-3.251-.688,9.167,9.167,0,0,0-7.608.146,4.745,4.745,0,0,1-2.2.542c-3.507,0-6.348-3.969-6.348-8.875a11.306,11.306,0,0,1,1.3-5.462Z" transform="translate(-120.246 -203.043)" fill="#0095f5" opacity="0.1"/><path d="M713.305,624.377c1.911-3.544-.256-7.879-2.746-11.035s-5.536-6.444-5.47-10.463c.1-5.777,6.231-9.2,11.13-12.257a54.4,54.4,0,0,0,9.995-8.054,14.739,14.739,0,0,0,3.068-4.115c1.018-2.255.989-4.833.923-7.322q-.315-12.367-1.223-24.72" transform="translate(-226.884 -265.495)" fill="none" stroke="#3f3d56" stroke-miterlimit="10" stroke-width="4"/><path d="M743.861,542.706a9.014,9.014,0,0,0-4.5-7.388l-2.021,3.991.066-4.833a9.014,9.014,0,1,0,6.458,8.23Z" transform="translate(-232.441 -262.2)" fill="#0095f5"/><path d="M722.262,624.394a9.014,9.014,0,0,1-17.017-3.661,8.787,8.787,0,0,1,.586-3.661,9.021,9.021,0,0,1,16.841.1l-5.631,4.584,6.195-1.464A8.963,8.963,0,0,1,722.262,624.394Z" transform="translate(-226.922 -282.88)" fill="#0095f5"/><path d="M718.958,598.679A9.014,9.014,0,0,1,716.1,581l-.051,3.712,2.043-4.042h0a9.016,9.016,0,1,1,.842,18.013Z" transform="translate(-228.07 -274.665)" fill="#0095f5"/><path d="M748.833,578.792a9.014,9.014,0,1,1,3.983-16.841l-1.589,4.393,3.244-3.207a9.014,9.014,0,0,1-5.667,15.648Z" transform="translate(-236.059 -269.341)" fill="#0095f5"/><path d="M742.64,546.915c-2.08.227-4.1.871-6.195,1s-4.393-.373-5.7-1.992A28.92,28.92,0,0,1,729.079,543a6.414,6.414,0,0,0-2.27-2.138,9.014,9.014,0,1,0,16.841,5.99C743.321,546.857,742.977,546.879,742.64,546.915Z" transform="translate(-232.436 -264.008)" opacity="0.1"/><path d="M748.848,580.678a9.014,9.014,0,0,1-8.574-12.858,6.67,6.67,0,0,1,1.809,1.816,30.55,30.55,0,0,0,1.786,2.98c1.406,1.647,3.808,2.2,5.982,2.087s4.276-.732,6.443-.915c.3,0,.6-.044.908-.051a9.014,9.014,0,0,1-8.355,6.941Z" transform="translate(-236.074 -271.228)" opacity="0.1"/><path d="M718.959,600.629a9.014,9.014,0,0,1-8.647-12.689,7.321,7.321,0,0,1,1.911,1.831,30.2,30.2,0,0,0,1.955,3.039c1.516,1.691,4.078,2.292,6.378,2.2s4.393-.593,6.59-.732a9.028,9.028,0,0,1-8.186,6.356Z" transform="translate(-228.071 -276.615)" opacity="0.1"/><path d="M722.262,626.492a9.014,9.014,0,0,1-17.017-3.661,8.787,8.787,0,0,1,.586-3.661,9,9,0,0,1,1.977,1.765c.857,1.04,1.42,2.2,2.416,3.2,1.838,1.809,4.818,2.555,7.461,2.621a37.859,37.859,0,0,0,4.576-.264Z" transform="translate(-226.922 -284.978)" opacity="0.1"/><path d="M103.305,552.377c1.911-3.544-.256-7.879-2.746-11.035s-5.536-6.458-5.47-10.463c.1-5.777,6.231-9.2,11.13-12.257a54.4,54.4,0,0,0,9.995-8.054,14.74,14.74,0,0,0,3.068-4.115c1.018-2.255.989-4.833.923-7.322q-.322-12.367-1.223-24.72" transform="translate(-63.538 -246.214)" fill="none" stroke="#3f3d56" stroke-miterlimit="10" stroke-width="4"/><path d="M133.861,470.706a9.014,9.014,0,0,0-4.5-7.388l-2.021,3.991.066-4.833a9.014,9.014,0,1,0,6.458,8.23Z" transform="translate(-69.096 -242.92)" fill="#0095f5"/><path d="M112.262,552.394a9.014,9.014,0,0,1-17.017-3.661,8.786,8.786,0,0,1,.586-3.661,9.021,9.021,0,0,1,16.841.1l-5.631,4.584,6.195-1.464A8.962,8.962,0,0,1,112.262,552.394Z" transform="translate(-63.577 -263.6)" fill="#0095f5"/><path d="M108.958,526.679A9.014,9.014,0,0,1,106.1,509l-.051,3.712,2.043-4.042h0a9.016,9.016,0,1,1,.842,18.013Z" transform="translate(-64.725 -255.385)" fill="#0095f5"/><path d="M138.833,506.792a9.014,9.014,0,1,1,3.983-16.841l-1.589,4.393,3.244-3.207a9.014,9.014,0,0,1-5.667,15.648Z" transform="translate(-72.714 -250.061)" fill="#0095f5"/><path d="M132.64,474.915c-2.079.227-4.1.871-6.195,1s-4.393-.373-5.7-1.992A28.908,28.908,0,0,1,119.079,471a6.414,6.414,0,0,0-2.27-2.138,9.014,9.014,0,1,0,16.841,5.99C133.321,474.857,132.977,474.879,132.64,474.915Z" transform="translate(-69.091 -244.728)" opacity="0.1"/><path d="M138.848,508.678a9.014,9.014,0,0,1-8.574-12.858,6.67,6.67,0,0,1,1.809,1.816,30.55,30.55,0,0,0,1.787,2.98c1.406,1.647,3.808,2.2,5.982,2.087s4.276-.732,6.444-.915c.3,0,.6-.044.908-.051A9.014,9.014,0,0,1,138.848,508.678Z" transform="translate(-72.728 -251.948)" opacity="0.1"/><path d="M108.959,528.629a9.014,9.014,0,0,1-8.648-12.689,7.322,7.322,0,0,1,1.911,1.831,30.2,30.2,0,0,0,1.955,3.039c1.516,1.691,4.078,2.292,6.378,2.2s4.393-.593,6.59-.732A9.028,9.028,0,0,1,108.959,528.629Z" transform="translate(-64.726 -257.335)" opacity="0.1"/><path d="M112.262,554.492a9.014,9.014,0,0,1-17.017-3.661,8.787,8.787,0,0,1,.586-3.661,9,9,0,0,1,1.977,1.765c.857,1.04,1.421,2.2,2.416,3.2,1.838,1.809,4.818,2.555,7.461,2.621A37.871,37.871,0,0,0,112.262,554.492Z" transform="translate(-63.577 -265.698)" opacity="0.1"/><path d="M506.331,470.012c-1.911-3.537.256-7.871,2.753-11.027s5.528-6.444,5.462-10.463c-.088-5.785-6.224-9.2-11.13-12.257a54.186,54.186,0,0,1-9.987-8.054,14.483,14.483,0,0,1-3.075-4.108c-1.01-2.263-.981-4.833-.923-7.322q.329-12.367,1.223-24.72" transform="translate(-169.129 -224.163)" fill="none" stroke="#3f3d56" stroke-miterlimit="10" stroke-width="4"/><path d="M478.386,388.346a9.006,9.006,0,0,1,4.5-7.388l2.021,3.991-.059-4.833a9.242,9.242,0,0,1,2.965-.359,9.014,9.014,0,1,1-9.424,8.589Z" transform="translate(-166.175 -220.866)" fill="#0095f5"/><path d="M499.976,470.007a9.014,9.014,0,1,0-.432-7.256l5.631,4.584-6.195-1.464a8.963,8.963,0,0,0,1,4.137Z" transform="translate(-171.692 -241.519)" fill="#0095f5"/><path d="M503.278,444.319a9.014,9.014,0,0,0,2.863-17.683l.044,3.712-2.043-4.042h0a9.014,9.014,0,0,0-9.446,8.56,8.9,8.9,0,0,0,.388,3.075,9.006,9.006,0,0,0,8.193,6.378Z" transform="translate(-170.542 -233.33)" fill="#0095f5"/><path d="M473.389,424.411A9.014,9.014,0,1,0,469.4,407.57l1.6,4.393-3.28-3.141a8.94,8.94,0,0,0-2.929,6.224,8.721,8.721,0,0,0,.227,2.482A9.006,9.006,0,0,0,473.389,424.411Z" transform="translate(-162.532 -228.002)" fill="#0095f5"/><path d="M479.68,392.555c2.08.227,4.1.871,6.187,1s4.393-.373,5.7-1.992a28.847,28.847,0,0,0,1.662-2.929,6.436,6.436,0,0,1,2.277-2.138,9.014,9.014,0,1,1-16.841,5.982C479,392.49,479.336,392.519,479.68,392.555Z" transform="translate(-166.253 -222.674)" opacity="0.1"/><path d="M473.485,426.3a9.021,9.021,0,0,0,8.574-12.858,6.7,6.7,0,0,0-1.816,1.816,30.542,30.542,0,0,1-1.787,2.98c-1.4,1.648-3.8,2.2-5.975,2.087s-4.276-.732-6.444-.915c-.3,0-.608-.044-.908-.051a9.006,9.006,0,0,0,8.355,6.941Z" transform="translate(-162.628 -229.888)" opacity="0.1"/><path d="M503.426,446.269a9.006,9.006,0,0,0,8.648-12.689,7.2,7.2,0,0,0-1.9,1.831,30.2,30.2,0,0,1-1.955,3.039c-1.523,1.691-4.078,2.292-6.385,2.2s-4.393-.593-6.59-.732a9.006,9.006,0,0,0,8.186,6.356Z" transform="translate(-170.691 -235.281)" opacity="0.1"/><path d="M500.34,472.132a9.014,9.014,0,0,0,16.438-7.322,8.654,8.654,0,0,0-1.977,1.765c-.857,1.04-1.464,2.2-2.416,3.2-1.845,1.809-4.818,2.555-7.469,2.621a39.512,39.512,0,0,1-4.576-.264Z" transform="translate(-172.056 -243.644)" opacity="0.1"/><circle cx="73.193" cy="73.193" r="73.193" transform="translate(497.741 101.111)" fill="#3f3d56"/><path d="M850.95,407.486c-2.548-2.548-8.677-6.392-11.716-7.827-3.507-1.684-4.8-1.655-7.278.139-2.065,1.464-3.4,2.878-5.777,2.358s-7.073-4.064-11.62-8.6-8.076-9.2-8.582-11.613.886-3.72,2.365-5.785c1.787-2.482,1.838-3.771.139-7.278-1.464-3.039-5.265-9.153-7.835-11.716s-3.127-2-4.532-1.464a26.215,26.215,0,0,0-4.152,2.2c-2.548,1.706-3.976,3.127-4.979,5.265s-2.138,6.107,3.7,16.5a92.035,92.035,0,0,0,16.182,21.579h0a92.17,92.17,0,0,0,21.652,16.211c10.383,5.858,14.359,4.694,16.5,3.7s3.559-2.409,5.257-4.979a25.867,25.867,0,0,0,2.2-4.152C852.948,410.613,853.52,410.042,850.95,407.486Z" transform="translate(-248.596 -214.305)" fill="#0095f5"/><path d="M804.939,300.86a73.222,73.222,0,1,0,73.185,73.2A73.222,73.222,0,0,0,804.939,300.86Zm0,136.647A63.462,63.462,0,1,1,868.4,374.045a63.461,63.461,0,0,1-63.462,63.461Z" transform="translate(-234.004 -199.741)" opacity="0.1"/><circle cx="73.193" cy="73.193" r="73.193" transform="translate(329.587 212.284)" fill="#3f3d56"/><path d="M628.218,522.383l-21.915,22.3a.4.4,0,0,0,0,.571L621.68,561.6a2.646,2.646,0,1,1-3.742,3.742l-15.3-16.292a.417.417,0,0,0-.586,0l-3.727,3.764a16.38,16.38,0,0,1-11.716,4.928,16.739,16.739,0,0,1-11.921-5.067l-3.581-3.661a.417.417,0,0,0-.586,0l-15.259,16.255a2.646,2.646,0,1,1-3.742-3.742l15.318-16.314a.439.439,0,0,0,0-.571l-21.915-22.3a.4.4,0,0,0-.688.286v44.614a6.531,6.531,0,0,0,6.51,6.509h71.662a6.531,6.531,0,0,0,6.509-6.509V522.669a.4.4,0,0,0-.7-.286Z" transform="translate(-183.812 -259.019)" fill="#0095f5"/><path d="M587.5,549.878a11.086,11.086,0,0,0,8-3.295l31.917-32.489a6.37,6.37,0,0,0-4.027-1.464H551.677a6.326,6.326,0,0,0-4.027,1.464l31.925,32.489A11.042,11.042,0,0,0,587.5,549.878Z" transform="translate(-184.725 -256.449)" fill="#0095f5"/><path d="M574.029,452.69a73.222,73.222,0,1,0,73.185,73.2A73.222,73.222,0,0,0,574.029,452.69Zm0,136.647a63.462,63.462,0,1,1,63.462-63.461A63.461,63.461,0,0,1,574.029,589.337Z" transform="translate(-172.171 -240.398)" opacity="0.1"/><circle cx="73.193" cy="73.193" r="73.193" transform="translate(155.882 157.624)" fill="#3f3d56"/><path d="M354.179,430.16,325,497.48l2.724,2.724,26.462-11.672L380.649,500.2l2.724-2.724Z" transform="translate(-125.104 -234.365)" fill="#0095f5"/><path d="M338.059,378a73.179,73.179,0,1,0,.012,0Zm0,136.647a52.255,52.255,0,1,1,.007.029Z" transform="translate(-108.983 -220.398)" opacity="0.1"/><path d="M828.148,592.253q-1-2.431-2.043-4.847a14.387,14.387,0,0,0-2.5-4.313,4.569,4.569,0,0,0-1.464-1.1,6.243,6.243,0,0,0-1.911-.381,15.253,15.253,0,0,0-3-.08c-.388-.117-.827-.271-1.259-.447a10.456,10.456,0,0,0,7.791-9.7v-.447a10.434,10.434,0,0,0-10.39-10.478,10.251,10.251,0,0,0-5.455,1.56,9.79,9.79,0,0,0-10.983,5.294,12.1,12.1,0,0,0-3.734,9.006v.461c.19,5.689,3.866,10.251,8.508,10.712a4.879,4.879,0,0,0-1.347.9c-1.42,1.369-1.655,3.544-1.809,5.521l-.11,1.464-2.46.879a.454.454,0,0,0-.11.8l2.35,1.677v.417a1.829,1.829,0,0,0,.044.476,3.362,3.362,0,0,0-.908,1.3,5.988,5.988,0,0,0-.212,2.372l.088,2.043a16.042,16.042,0,0,0,.622,4.547c.308.908,1.64,3.1,2.6,3.112-.886,4.027-1.12,12.521-1.12,12.521-.11.11.2.212.732.3.527,4.042,2.248,15.377,5.3,20.363a42.935,42.935,0,0,1,1.15,4.95s.871,10.771,2.021,13.971c.981,2.724,1.757,9.446,1.97,11.393a1.12,1.12,0,0,0-.813.835c-.578,1.743-4.327,4.393-4.327,4.393a18.128,18.128,0,0,0-3.236,2.072c-1.179,1.062-1.135,2.021,4.1,1.42,10.1-1.164,11.833-4.393,11.833-4.393s-.161-.542-.4-1.245a13.519,13.519,0,0,0-1.325-3.127c-.146-.139-.293.1-.469.461a62.7,62.7,0,0,1-.688-14.139s.286-4.95-1.157-8.443a15.983,15.983,0,0,1,0-5.528c.578-2.328-2.307-13.685-2.307-13.685l-1.655-8.362a2.4,2.4,0,0,1,.461.974l.044.168.044.242a.454.454,0,0,0,.117.227c1.128,4.686,4.218,17.668,4.218,19.572,0,2.328,2.885,8.15,2.885,8.15s1.15,9.607,3.17,13.385c1.538,2.878,1.574,7.1,1.5,8.955h0s-.344,2.394-.923,2.973a7.072,7.072,0,0,0-1.091,1.9l-.066.139s-.864,1.75-.286,2.043a14.183,14.183,0,0,0,6.927.871s1.157-1.464,1.157-2.036a9.163,9.163,0,0,0-.132-1.04c-.212-1.377-.608-3.544-.615-3.566.242-.937-.732-3.544-.732-3.544l-.293-8.15a37.621,37.621,0,0,0-2.021-16.307s-1.464-5.235-1.15-6.693-.578-16.885-.578-16.885l-.088-.22a16.681,16.681,0,0,1,.088-3.273c.286-3.493-.864-10.771-1.157-11.057a9.592,9.592,0,0,1-.41-2.409c.066-.608.264-2.387.534-4.6a82.657,82.657,0,0,0,8.508-.732,1.062,1.062,0,0,0,.732-.293,1.025,1.025,0,0,0,.168-.593C831.414,600.571,829.81,596.309,828.148,592.253Zm-5.806,9.233c.3-2.087.622-4.108.945-5.609l.044.132a40.744,40.744,0,0,1,1.391,4.613A15.708,15.708,0,0,1,822.341,601.486Z" transform="translate(-250.477 -269.257)" fill="url(#a)"/><path d="M802.37,648.471s1.728,15.545,5.47,21.586a41.92,41.92,0,0,1,1.15,4.891s.864,10.646,2.014,13.81,2.014,11.8,2.014,11.8,4.027,4.6,5.47.864a60.646,60.646,0,0,1-.864-14.967s.286-4.891-1.15-8.347a15.61,15.61,0,0,1,0-5.462c.571-2.307-2.307-13.524-2.307-13.524l-2.3-11.225Z" transform="translate(-252.934 -292.671)" fill="#be6f72"/><path d="M821.092,723.334s-1.728,3.163-11.8,4.313c-5.228.593-5.265-.351-4.086-1.406a18.226,18.226,0,0,1,3.222-2.05s3.742-2.585,4.313-4.313,2.592-.286,2.592-.286c2.878,4.313,3.456-1.157,4.027-.578a12.985,12.985,0,0,1,1.325,3.083C820.931,722.792,821.092,723.334,821.092,723.334Z" transform="translate(-253.526 -311.703)" fill="#ff6f61"/><path d="M821.092,724.477s-1.728,3.163-11.8,4.313c-5.228.593-5.265-.351-4.086-1.406.82.52,2.475.732,5.806-.608,4.8-1.962,8.274-3.1,9.673-3.537C820.931,723.936,821.092,724.477,821.092,724.477Z" transform="translate(-253.526 -312.846)" opacity="0.1"/><path d="M820.367,686.459s.286-4.891-1.15-8.347a15.61,15.61,0,0,1,0-5.462c.571-2.307-2.307-13.524-2.307-13.524l-2.3-11.225-1.992.117,2.277,11.108s2.878,11.218,2.307,13.524a15.61,15.61,0,0,0,0,5.462c1.464,3.456,1.15,8.347,1.15,8.347a60.64,60.64,0,0,0,.864,14.967,2.519,2.519,0,0,1-.835,1.186,1.881,1.881,0,0,0,2.848-1.186A60.646,60.646,0,0,1,820.367,686.459Z" transform="translate(-255.679 -292.671)" opacity="0.1"/><path d="M813.272,562.42a10.252,10.252,0,0,0-5.433,1.545,9.775,9.775,0,0,0-10.983,5.235,11.921,11.921,0,0,0-3.727,8.9c0,6.121,4.122,11.078,9.2,11.078,3.661,0,6.868-2.607,8.34-6.378a10.1,10.1,0,0,0,2.592.337,10.361,10.361,0,0,0,0-20.722Z" transform="translate(-250.459 -269.782)" fill="#3f3d56"/><path d="M828.014,650.65l.864,2.3s.864,15.252.571,16.695,1.157,6.59,1.157,6.59a36.838,36.838,0,0,1,2.014,16.109l.286,8.054s1.15,3.163.578,3.742-4.913-.513-4.913-.513.578-6.041-1.464-9.782-3.163-13.239-3.163-13.239-2.878-5.755-2.878-8.054-4.606-21.007-4.606-21.007Z" transform="translate(-256.707 -293.408)" fill="#be6f72"/><path d="M801.572,643.635s.293-10.361,1.464-13.524a21.469,21.469,0,0,0,1.281-4.591s17.419,3.148,18.862,2c0,0,.286,4.027.578,4.313a41.376,41.376,0,0,1,1.15,10.939c-.315,3.456,0,3.449,0,3.449s-11.8,1.728-12.089,0-1.15-1.721-1.15-1.721S801,644.177,801.572,643.635Z" transform="translate(-252.714 -286.679)" fill="#3f3d56"/><g transform="translate(548.858 340.84)" opacity="0.1"><path d="M811.077,650.043s-7.278-.2-9.475-.593v.593c-.571.571,10.075.864,10.075.864a.732.732,0,0,1,.4.161C811.685,650.043,811.077,650.043,811.077,650.043Z" transform="translate(-801.58 -633.927)"/><path d="M827.817,632.563c-.293-.286-.578-4.313-.578-4.313a1.239,1.239,0,0,1-.491.176,14.552,14.552,0,0,0,.491,3.273,45.7,45.7,0,0,1,1.15,10.939c-.315,3.456,0,3.449,0,3.449s-9.336,1.369-11.6.454a3.48,3.48,0,0,0,.088.41c.286,1.728,12.089,0,12.089,0s-.293,0,0-3.449A42.779,42.779,0,0,0,827.817,632.563Z" transform="translate(-805.653 -628.25)"/><path d="M811.077,650.043s-7.278-.2-9.475-.593v.593c-.571.571,10.075.864,10.075.864a.732.732,0,0,1,.4.161C811.685,650.043,811.077,650.043,811.077,650.043Z" transform="translate(-801.58 -633.927)"/><path d="M827.817,632.563c-.293-.286-.578-4.313-.578-4.313a1.239,1.239,0,0,1-.491.176,14.552,14.552,0,0,0,.491,3.273,45.7,45.7,0,0,1,1.15,10.939c-.315,3.456,0,3.449,0,3.449s-9.336,1.369-11.6.454a3.48,3.48,0,0,0,.088.41c.286,1.728,12.089,0,12.089,0s-.293,0,0-3.449A42.779,42.779,0,0,0,827.817,632.563Z" transform="translate(-805.653 -628.25)"/></g><path d="M816.635,586.1a3.816,3.816,0,0,0,1.1,1.421,2.461,2.461,0,0,0,1.032.447c-.644.373-1.347.652-1.992,1.025a35.42,35.42,0,0,0-2.929,2.2,5.959,5.959,0,0,1-3.361,1.3,4.116,4.116,0,0,0,.469-4.093,3.824,3.824,0,0,1-.513-1.42,2.552,2.552,0,0,1,1.413-1.9c.549-.373,1.113-.732,1.684-1.091.447-.278,1.12-.864,1.684-.842s.63.52.732,1.032A8.119,8.119,0,0,0,816.635,586.1Z" transform="translate(-255.095 -275.33)" fill="#be6f72"/><path d="M816.635,586.1a3.816,3.816,0,0,0,1.1,1.421,2.461,2.461,0,0,0,1.032.447c-.644.373-1.347.652-1.992,1.025a35.42,35.42,0,0,0-2.929,2.2,5.959,5.959,0,0,1-3.361,1.3,4.116,4.116,0,0,0,.469-4.093,3.824,3.824,0,0,1-.513-1.42,2.552,2.552,0,0,1,1.413-1.9c.549-.373,1.113-.732,1.684-1.091.447-.278,1.12-.864,1.684-.842s.63.52.732,1.032A8.119,8.119,0,0,0,816.635,586.1Z" transform="translate(-255.095 -275.33)" opacity="0.1"/><circle cx="6.619" cy="6.619" r="6.619" transform="translate(561.664 314.51)" fill="#be6f72"/><path d="M837.862,727.137c0,.578-1.15,2.014-1.15,2.014a14.249,14.249,0,0,1-6.9-.864c-.578-.286.286-2.014.286-2.014l.066-.139a6.986,6.986,0,0,1,1.091-1.875c.571-.571.915-2.929.915-2.929,1.787-2.929,4.957,1.267,4.957,1.267s.4,2.2.615,3.529A10.03,10.03,0,0,1,837.862,727.137Z" transform="translate(-260.227 -312.056)" fill="#ff6f61"/><path d="M837.862,729.265c0,.578-1.15,2.014-1.15,2.014a14.249,14.249,0,0,1-6.9-.864c-.578-.286.286-2.014.286-2.014l.066-.139a13.913,13.913,0,0,0,6.268,1.289l1.311-1.311C837.81,728.731,837.862,729.119,837.862,729.265Z" transform="translate(-260.227 -314.185)" opacity="0.1"/><circle cx="6.473" cy="6.473" r="6.473" transform="translate(548.572 300.839)" fill="#be6f72"/><path d="M802.133,599.507c-1.42,1.355-1.655,3.5-1.8,5.455l-.22,2.863a14.45,14.45,0,0,0-.051,2.321c0,.476.117.959.161,1.464s.059,1.142.066,1.721v4.232a4.994,4.994,0,0,0,.469,2.541,1.728,1.728,0,0,0,2.2.791,2.5,2.5,0,0,0,.908-1.406,21.86,21.86,0,0,0,1.464-5.36c.059-.637.066-1.274.124-1.911s.168-1.3.264-1.948c.41-2.695.593-5.418.776-8.135.051-.805.776-3.976-.278-4.327-.513-.168-1.574.359-2.065.534a5.814,5.814,0,0,0-2.013,1.164Z" transform="translate(-252.309 -279.249)" fill="#be6f72"/><path d="M802.133,599.507c-1.42,1.355-1.655,3.5-1.8,5.455l-.22,2.863a14.45,14.45,0,0,0-.051,2.321c0,.476.117.959.161,1.464s.059,1.142.066,1.721v4.232a4.994,4.994,0,0,0,.469,2.541,1.728,1.728,0,0,0,2.2.791,2.5,2.5,0,0,0,.908-1.406,21.86,21.86,0,0,0,1.464-5.36c.059-.637.066-1.274.124-1.911s.168-1.3.264-1.948c.41-2.695.593-5.418.776-8.135.051-.805.776-3.976-.278-4.327-.513-.168-1.574.359-2.065.534a5.814,5.814,0,0,0-2.013,1.164Z" transform="translate(-252.309 -279.249)" opacity="0.1"/><path d="M816.742,588.16s-4.891,3.742-7.769,4.606c0,0-1.706,1.948-2,2.416s-.879,5.638-1.464,6.8-2.014,3.742,0,6.326a10.969,10.969,0,0,1,.286,3.456c-.286.864-1.333,4.027-.381,4.174s3.837,2.153,6.422,1.582,12.235,2.2,12.235,2.2,1.6-14.827,2.753-17.449l-2.592-.864s-7.19-4.313-2.878-10.932C821.348,590.466,817.306,589.6,816.742,588.16Z" transform="translate(-253.496 -276.674)" fill="#ff6f61"/><path d="M796.773,611.148l5.946,4.21a.439.439,0,0,0,.52,0l1.611-1.208a.454.454,0,0,0,0-.688l-4.576-4.064a.439.439,0,0,0-.447-.088l-2.936,1.054a.447.447,0,0,0-.117.783Z" transform="translate(-251.386 -282.331)" fill="#3f3d56"/><path d="M799.3,625.006a15.937,15.937,0,0,1-.622-4.489l-.088-2.028a5.858,5.858,0,0,1,.212-2.343,3.829,3.829,0,0,1,2.468-2.16,8.522,8.522,0,0,1,3.361-.242.864.864,0,0,1,.432.117.8.8,0,0,1,.234.4,2.651,2.651,0,0,1,.132,2.116,2.2,2.2,0,0,1-.674.7c-.8.571-1.728.952-2.482,1.574a.9.9,0,0,0-.337.425.989.989,0,0,0,0,.461,7.375,7.375,0,0,0,.381,1.179,1.164,1.164,0,0,0,.33.5c.139.117.322.161.469.271.315.256.974.593.937,1-.11,1.464-.988,3.1-1.333,4.554C802.057,629.861,799.722,626.244,799.3,625.006Z" transform="translate(-251.911 -283.507)" fill="#be6f72"/><g transform="translate(556.473 325.156)" opacity="0.1"><path d="M812.141,628.225h-.161a4.929,4.929,0,0,0,1.882,0h.183A6.593,6.593,0,0,0,812.141,628.225Z" transform="translate(-811.98 -612.541)"/><path d="M831.8,606.83c-1.032,2.321-2.555,14.893-2.826,17.39,1.01.264,1.677.454,1.677.454s1.582-14.791,2.739-17.412Z" transform="translate(-816.53 -606.83)"/></g><path d="M824,598.723a2.2,2.2,0,0,0,.945,1.428,12.679,12.679,0,0,1,1.677,1.7,12.03,12.03,0,0,1,1.662,3.332,40.825,40.825,0,0,1,1.384,4.554c-3.661,1.7-7.82,1.618-11.716,2.738a9.351,9.351,0,0,0-4.393,2.6,6.055,6.055,0,0,0-1.618,4.767.5.5,0,0,0,.6.491,4.393,4.393,0,0,0,2.687-.923,12.782,12.782,0,0,0,2.057-2.021,3.31,3.31,0,0,1,1.464-1.084,23.965,23.965,0,0,1,6.59-.644,83.043,83.043,0,0,0,9.819-.776.791.791,0,0,0,.879-.879c.322-4.32-1.281-8.538-2.929-12.543q-.988-2.409-2.036-4.8a14.207,14.207,0,0,0-2.49-4.262,4.394,4.394,0,0,0-1.464-1.084,6.193,6.193,0,0,0-1.962-.366,13.914,13.914,0,0,0-3.214-.059,6.849,6.849,0,0,0-.308,1.662,14.4,14.4,0,0,0,1.772,5.616C823.515,598.445,823.83,598.46,824,598.723Z" transform="translate(-255.488 -277.389)" fill="#be6f72"/><path d="M812.142,606.67a5.367,5.367,0,0,0-.732,2.8,3.766,3.766,0,0,0,.183,1.142,3.7,3.7,0,0,0,2.336,2.2" transform="translate(-255.354 -281.631)" fill="none" stroke="#000" stroke-miterlimit="10" stroke-width="1" opacity="0.1"/><path d="M812.653,572.977a3.359,3.359,0,0,0-1.062.168c-.959-1.464-3.214-2.475-5.858-2.475-3.5,0-6.334,1.809-6.334,4.035s2.834,4.027,6.334,4.027a8.911,8.911,0,0,0,3.8-.805,3.449,3.449,0,1,0,3.1-4.95Z" transform="translate(-252.138 -271.991)" fill="#3f3d56"/><path d="M812.933,580.029a3.442,3.442,0,0,1-3.1-1.956,8.912,8.912,0,0,1-3.8.806c-3.493,0-6.326-1.8-6.326-4.027a2.411,2.411,0,0,1,0-.4,2.731,2.731,0,0,0-.322,1.267c0,2.2,2.834,4.027,6.334,4.027a8.912,8.912,0,0,0,3.8-.805,3.449,3.449,0,0,0,6.495-.857,3.434,3.434,0,0,1-3.075,1.948Z" transform="translate(-252.133 -273.003)" opacity="0.1"/><path d="M796.853,570.9a9.775,9.775,0,0,1,10.983-5.235,10.354,10.354,0,0,1,15.757,7.952v-.864a10.354,10.354,0,0,0-15.794-8.787,9.775,9.775,0,0,0-10.983,5.235,11.921,11.921,0,0,0-3.727,8.9v.864A11.715,11.715,0,0,1,796.853,570.9Z" transform="translate(-250.448 -269.782)" opacity="0.1"/><path d="M885.385,548.49c1.911-3.537-.256-7.879-2.753-11.035s-5.528-6.436-5.462-10.463c.088-5.777,6.224-9.189,11.13-12.257a54.112,54.112,0,0,0,9.988-8.054,14.594,14.594,0,0,0,3.075-4.108c1.01-2.263.981-4.833.923-7.322q-.322-12.375-1.223-24.72" transform="translate(-272.963 -245.175)" fill="none" stroke="#3f3d56" stroke-miterlimit="10" stroke-width="4"/><path d="M915.931,466.788a9,9,0,0,0-4.5-7.381l-2.021,3.991.059-4.833a8.846,8.846,0,0,0-2.965-.359,9.014,9.014,0,1,0,9.424,8.582Z" transform="translate(-278.518 -241.872)" fill="#0095f5"/><path d="M894.342,548.456a9.014,9.014,0,1,1,.432-7.264l-5.631,4.584,6.195-1.464a8.963,8.963,0,0,1-1,4.144Z" transform="translate(-273.002 -262.525)" fill="#0095f5"/><path d="M891.035,522.762a9.014,9.014,0,0,1-2.863-17.683l-.044,3.712,2.043-4.035h0a9.016,9.016,0,1,1,.842,18.013Z" transform="translate(-274.147 -254.338)" fill="#0095f5"/><path d="M920.906,502.881A9.014,9.014,0,1,1,924.9,486.04l-1.6,4.393,3.28-3.148a8.962,8.962,0,0,1,2.929,6.224,8.7,8.7,0,0,1-.227,2.482A9.014,9.014,0,0,1,920.906,502.881Z" transform="translate(-282.139 -249.014)" fill="#0095f5"/><path d="M914.719,471c-2.079.234-4.108.879-6.195,1.01s-4.393-.373-5.7-2a27.977,27.977,0,0,1-1.662-2.929,6.48,6.48,0,0,0-2.27-2.138,9.014,9.014,0,1,0,16.841,5.982C915.393,470.937,915.056,470.959,914.719,471Z" transform="translate(-278.515 -243.679)" opacity="0.1"/><path d="M920.919,504.768a9.021,9.021,0,0,1-8.574-12.858,6.67,6.67,0,0,1,1.816,1.809,28.886,28.886,0,0,0,1.787,2.98c1.4,1.655,3.8,2.2,5.975,2.094s4.276-.732,6.443-.915c.3,0,.608-.051.908-.059A9.014,9.014,0,0,1,920.919,504.768Z" transform="translate(-282.152 -250.901)" opacity="0.1"/><path d="M891.035,524.7a9.006,9.006,0,0,1-8.648-12.7,7.431,7.431,0,0,1,1.9,1.831c.732.989,1.135,2.131,1.955,3.039,1.523,1.7,4.078,2.292,6.385,2.241s4.393-.6,6.59-.769a9.014,9.014,0,0,1-8.186,6.363Z" transform="translate(-274.147 -256.28)" opacity="0.1"/><path d="M894.361,550.582a9.021,9.021,0,0,1-16.438-7.322,8.831,8.831,0,0,1,1.977,1.765c.864,1.047,1.428,2.2,2.416,3.207,1.845,1.809,4.818,2.548,7.469,2.621a39.5,39.5,0,0,0,4.576-.271Z" transform="translate(-273.02 -264.651)" opacity="0.1"/><path d="M1044.385,700.49c1.911-3.537-.256-7.879-2.753-11.035s-5.528-6.436-5.462-10.463c.088-5.777,6.224-9.189,11.13-12.257a54.117,54.117,0,0,0,9.988-8.054,14.593,14.593,0,0,0,3.075-4.108c1.01-2.263.981-4.833.923-7.322q-.315-12.374-1.223-24.72" transform="translate(-315.54 -285.878)" fill="none" stroke="#3f3d56" stroke-miterlimit="10" stroke-width="4"/><path d="M1074.944,618.788a9,9,0,0,0-4.5-7.381l-2.021,3.991.059-4.833a8.845,8.845,0,0,0-2.929-.359,9.014,9.014,0,1,0,9.424,8.582Z" transform="translate(-321.109 -282.576)" fill="#0095f5"/><path d="M1053.342,700.456a9.014,9.014,0,1,1,.432-7.264l-5.631,4.584,6.194-1.464A8.958,8.958,0,0,1,1053.342,700.456Z" transform="translate(-315.579 -303.227)" fill="#0095f5"/><path d="M1050.035,674.762a9.014,9.014,0,0,1-2.863-17.683l-.044,3.712,2.043-4.035h0a9.016,9.016,0,1,1,.842,18.013Z" transform="translate(-316.724 -295.04)" fill="#0095f5"/><path d="M1079.906,654.881a9.014,9.014,0,1,1,3.991-16.841l-1.6,4.393,3.28-3.149a8.963,8.963,0,0,1,2.929,6.224,8.709,8.709,0,0,1-.227,2.482A9.014,9.014,0,0,1,1079.906,654.881Z" transform="translate(-324.716 -289.717)" fill="#0095f5"/><path d="M1073.719,623c-2.079.234-4.108.879-6.194,1.01s-4.393-.373-5.7-2a27.958,27.958,0,0,1-1.662-2.929,6.48,6.48,0,0,0-2.27-2.138,9.014,9.014,0,1,0,16.841,5.982C1074.393,622.937,1074.056,622.959,1073.719,623Z" transform="translate(-321.092 -284.381)" opacity="0.1"/><path d="M1079.919,656.768a9.021,9.021,0,0,1-8.574-12.858,6.673,6.673,0,0,1,1.816,1.809,28.908,28.908,0,0,0,1.787,2.98c1.4,1.655,3.8,2.2,5.975,2.094s4.276-.732,6.444-.915c.3,0,.608-.051.908-.059A9.013,9.013,0,0,1,1079.919,656.768Z" transform="translate(-324.729 -291.603)" opacity="0.1"/><path d="M1050.035,676.7a9.006,9.006,0,0,1-8.648-12.7,7.432,7.432,0,0,1,1.9,1.831c.732.988,1.135,2.131,1.955,3.039,1.523,1.7,4.078,2.292,6.385,2.241s4.393-.6,6.59-.769A9.013,9.013,0,0,1,1050.035,676.7Z" transform="translate(-316.724 -296.983)" opacity="0.1"/><path d="M1053.361,702.582a9.021,9.021,0,0,1-16.438-7.322,8.83,8.83,0,0,1,1.977,1.765c.864,1.047,1.464,2.2,2.416,3.207,1.845,1.809,4.818,2.548,7.469,2.621A39.487,39.487,0,0,0,1053.361,702.582Z" transform="translate(-315.598 -305.354)" opacity="0.1"/><path d="M494.1,580.391a7.183,7.183,0,0,0-2.863-5.8,8.421,8.421,0,0,0-7.037-8.259,8.406,8.406,0,0,0-5.6-6.261h0a7.142,7.142,0,0,0-1.04-.242h-1.237a8.245,8.245,0,0,0-7.967,7.044c-2.57-.593-4.921.176-5.353,1.8a2.2,2.2,0,0,0,.073,1.3,5.667,5.667,0,0,0,3.778,3.061l.249.073.373.1h.081a6.473,6.473,0,0,0-.615,2.775,6.4,6.4,0,0,0,3.449,5.711l-.168.1a2.284,2.284,0,0,0-.557.776,11.615,11.615,0,0,0-1.076,2.592c-.183.776-.212,1.582-.439,2.35-.425,1.413-1.508,2.607-1.633,4.078-.059.659.051,1.464-.417,1.889a2.278,2.278,0,0,1-.373.264,3.023,3.023,0,0,0-.813.857,2.84,2.84,0,0,1-.571.82c-.425.315-1.12.286-1.325.776s.329,1.069.205,1.6-.578.637-.908.937a3.258,3.258,0,0,0-.783,1.464,4.8,4.8,0,0,1-3.954-1.01,7.391,7.391,0,0,1,.41,1.464,6.414,6.414,0,0,0-2.131-1.069,6.728,6.728,0,0,1-2.27-1.684l1.216-.168-5.367-8.194-1.589-.33,1.421,2.731a.871.871,0,0,0-.483.578,2.482,2.482,0,0,0-.051.93,16.652,16.652,0,0,0,.366,2.2l.41,1.918c.037.176.081.359.132.535a5.044,5.044,0,0,0-1.589.176,13.826,13.826,0,0,0-3.3-.784,1.832,1.832,0,0,0-.732,0,1.9,1.9,0,0,0-.7.564,22.526,22.526,0,0,0-2.453,3.456c-2.929,5.023-6.744,9.409-10.354,13.949-2.49,1.01-5,1.97-7.513,2.929l-5.4,2.065a8.194,8.194,0,0,1-3.354.732c-.513,0-1.15-.11-1.464.33a3.086,3.086,0,0,0-.329.732l-.557.059h0a6.4,6.4,0,0,0-1.3-2.387.82.82,0,0,0-.608.469c-.132.242-.212.505-.366.732-.286.425-.791.63-1.15.988s-.586.915-.981,1.281a3.88,3.88,0,0,1-1.838.732,11.6,11.6,0,0,0-2.878,1.091,4.636,4.636,0,0,1-1.062.491,3.989,3.989,0,0,1-1.252.044l-2.856-.212a2.256,2.256,0,0,0-.769.037,1.465,1.465,0,0,0-.908,1.464,2.306,2.306,0,0,0,.908,1.574,5.814,5.814,0,0,0,1.626.842,47.7,47.7,0,0,0,7.615,2.255v.578a13,13,0,0,0,5.858,1.391.909.909,0,0,0,.439-.081.967.967,0,0,0,.366-.571,23.559,23.559,0,0,0,1.142-5.609h0a2.928,2.928,0,0,0,1.032-.264c.981-.271,1.962.4,2.98.513,1.252.139,2.409-.593,3.6-1.04l.513-.168a5.623,5.623,0,0,1-1.186,1.135c-.491.351-1.04.615-1.516.981a10.442,10.442,0,0,1-1.289,1,8.094,8.094,0,0,1-.988.381,6.523,6.523,0,0,0-1.413.732,2.863,2.863,0,0,0-.959.937,1.406,1.406,0,0,0-.081,1.318,1.391,1.391,0,0,0,.945.659,3.874,3.874,0,0,0,1.164,0c1.552-.117,3.1-.256,4.642-.4a12.377,12.377,0,0,0,1.94-.278c.337-.081.674-.19,1.01-.286a9.016,9.016,0,0,1,1.765-.264,1.465,1.465,0,0,1,.513.051c.359.117.615.483.981.557a1.465,1.465,0,0,0,.732-.1,16.329,16.329,0,0,1,3.434-.366,1.418,1.418,0,0,0,1.333-.593c.234-.469-.19-1.223-.381-1.845a5.644,5.644,0,0,1-.161-1.215,7.608,7.608,0,0,0-.849-2.885,7.53,7.53,0,0,1-.637-1.318,33.3,33.3,0,0,0,6.319-3.207,11.3,11.3,0,0,1,3.6-1.735,9.8,9.8,0,0,1,4.525.527,102.958,102.958,0,0,1,10.376,3.617c1.618.666,3.229,1.369,4.9,1.875a7.636,7.636,0,0,0,1.743,1.691,8.054,8.054,0,0,0,3.771,1.032,49.415,49.415,0,0,0,5.309.2,8.955,8.955,0,0,0,3.954-.732,4.062,4.062,0,0,0,.827-.549,3.28,3.28,0,0,0,2.607-.959,6.319,6.319,0,0,0,1.984-3.134c.432-1.669.1-3.661,1.128-4.994.271-.366.63-.659.9-1.025a2.885,2.885,0,0,0,.469-1.691.34.34,0,0,1,.044-.066,6.2,6.2,0,0,0,.439-1.684,9.623,9.623,0,0,1,.476-1.333,41.154,41.154,0,0,0,1.362-3.947,23.055,23.055,0,0,0,.63-2.709c.11-.732.176-1.464.234-2.2a13.643,13.643,0,0,1,.666-3.39,27.588,27.588,0,0,0,1.538-8.113v-.161a5.44,5.44,0,0,0,4.818-5.536,5.776,5.776,0,0,0-.505-2.365,7.322,7.322,0,0,0,.981-3.69Zm-26.2,31.83c.081.286.176.564.271.842-.432-.417-.849-.849-1.281-1.274.168.059.344.11.505.176a2.72,2.72,0,0,1,.483.256Zm-2.072-1.406c-2.533-2.2-5.462-3.9-8.054-6.034,1.413.7,2.79,1.508,4.152,2.285q2.424,1.384,4.913,2.658a4.022,4.022,0,0,1-1.032,1.091Zm1.076-5.536.124-.125v.871l-.681-.234a6.064,6.064,0,0,0,.534-.513Zm-22.281,5.931a20.964,20.964,0,0,0,2.695-3.844c1,1.75,2.636,3.017,4.02,4.489C449.1,611.569,446.862,611.327,444.621,611.21Z" transform="translate(-144.096 -269.088)" fill="url(#b)"/><path d="M415.35,438.25l1.6.322,5.44,8.047-2.394.322Z" transform="translate(-111.222 -117.45)" fill="#2f2e41"/><path d="M414.49,645.431a31.324,31.324,0,0,0,1.6,4.152,39.549,39.549,0,0,0,5.309-1.516,16.723,16.723,0,0,0-1.106-1.464,5.462,5.462,0,0,0-1.5-1.15,4.131,4.131,0,0,0-1.823,0C416.145,645.431,415.317,645.445,414.49,645.431Z" transform="translate(-149.067 -291.989)" fill="#fbbebe"/><path d="M413.793,646.732a3.309,3.309,0,0,1-1.816-2.065,6.648,6.648,0,0,0-1.384-2.468.791.791,0,0,0-.615.461c-.132.234-.212.5-.359.732-.293.417-.805.622-1.172.974s-.586.9-.981,1.259a3.894,3.894,0,0,1-1.852.732,12.01,12.01,0,0,0-2.929,1.076,5.054,5.054,0,0,1-1.076.483,4.261,4.261,0,0,1-1.259,0l-2.885-.205a2.254,2.254,0,0,0-.732,0,1.4,1.4,0,0,0-.915,1.464,2.2,2.2,0,0,0,.915,1.552,6.08,6.08,0,0,0,1.64.835,48.258,48.258,0,0,0,7.732,2.2v.571A13.384,13.384,0,0,0,412,655.7a1,1,0,0,0,.439-.073.966.966,0,0,0,.366-.571,22.846,22.846,0,0,0,1.208-6.268,4.994,4.994,0,0,0-.125-1.618c-.161-.52.381-.3-.117-.505" transform="translate(-144.065 -291.145)" fill="#2f2e41"/><path d="M475.162,632.705c-8.552.513-17-1.992-25.569-2.255a12.485,12.485,0,0,0-3.178.2,16.009,16.009,0,0,0-3.149,1.223c-4.591,2.138-9.343,3.91-14.088,5.675l-5.455,2.028a8.259,8.259,0,0,1-3.376.732c-.52,0-1.157-.11-1.464.322-.886,1.318-.469,3.244.117,4.723.19.476.513,1,1.025,1.047a2.98,2.98,0,0,0,1.04-.264c.988-.264,1.977.4,3,.513,1.259.132,2.431-.586,3.625-1.025,1.977-.732,4.13-.732,6.209-1.054a27.819,27.819,0,0,0,9.724-4.035,11.35,11.35,0,0,1,3.625-1.713,10.031,10.031,0,0,1,4.562.52,104.693,104.693,0,0,1,10.463,3.559,48.767,48.767,0,0,0,5.462,2,19.769,19.769,0,0,0,12.25-.732c1.369-.542,2.856-1.464,2.929-2.973.051-.842-.608-1.582-1.04-2.307-.278-.461-.564-.923-.864-1.369C479.548,635.393,477.761,632.552,475.162,632.705Z" transform="translate(-150.107 -287.991)" fill="#2f2e41"/><path d="M475.162,632.705c-8.552.513-17-1.992-25.569-2.255a12.485,12.485,0,0,0-3.178.2,16.009,16.009,0,0,0-3.149,1.223c-4.591,2.138-9.343,3.91-14.088,5.675l-5.455,2.028a8.259,8.259,0,0,1-3.376.732c-.52,0-1.157-.11-1.464.322-.886,1.318-.469,3.244.117,4.723.19.476.513,1,1.025,1.047a2.98,2.98,0,0,0,1.04-.264c.988-.264,1.977.4,3,.513,1.259.132,2.431-.586,3.625-1.025,1.977-.732,4.13-.732,6.209-1.054a27.819,27.819,0,0,0,9.724-4.035,11.35,11.35,0,0,1,3.625-1.713,10.031,10.031,0,0,1,4.562.52,104.693,104.693,0,0,1,10.463,3.559,48.767,48.767,0,0,0,5.462,2,19.769,19.769,0,0,0,12.25-.732c1.369-.542,2.856-1.464,2.929-2.973.051-.842-.608-1.582-1.04-2.307-.278-.461-.564-.923-.864-1.369C479.548,635.393,477.761,632.552,475.162,632.705Z" transform="translate(-150.107 -287.991)" opacity="0.1"/><path d="M436.92,644.7q2.006.681,4.049,1.259c.732-1.252,2.2-2.123,2.512-3.559a.338.338,0,0,0,0-.19.352.352,0,0,0-.154-.139,7.673,7.673,0,0,0-3.178-.93c-.879-.051-1.281.864-1.677,1.508C438.319,642.933,437.279,644.837,436.92,644.7Z" transform="translate(-155.074 -290.86)" fill="#fbbebe"/><path d="M434.643,644.037a2.929,2.929,0,0,1-1.97-1.3c-.183-.329-.388-.776-.769-.732s-.505.439-.586.783a21.962,21.962,0,0,1-1.106,3.8,7.131,7.131,0,0,1-2.365,3.112c-.5.344-1.047.6-1.538.966a10.55,10.55,0,0,1-1.3.981,7.7,7.7,0,0,1-1,.366,6.9,6.9,0,0,0-1.421.732,2.819,2.819,0,0,0-.974.93,1.34,1.34,0,0,0-.073,1.3,1.384,1.384,0,0,0,.945.644,3.983,3.983,0,0,0,1.179,0c1.56-.11,3.119-.249,4.679-.388a13.51,13.51,0,0,0,1.955-.271l1.018-.278a8.1,8.1,0,0,1,1.779-.264,1.383,1.383,0,0,1,.52.051c.359.117.615.476.989.549a1.654,1.654,0,0,0,.732-.1,16.173,16.173,0,0,1,3.463-.359,1.462,1.462,0,0,0,1.347-.586c.293-.571-.19-1.208-.388-1.823a5.861,5.861,0,0,1-.161-1.194,7.279,7.279,0,0,0-.857-2.841c-.4-.732-.937-1.538-.659-2.314a2.2,2.2,0,0,0,.264-.8C438.246,643.752,435.361,644.2,434.643,644.037Z" transform="translate(-150.923 -291.093)" fill="#2f2e41"/><path d="M475.785,612.05a6.678,6.678,0,0,1-3.412-3.383c-.139-.322-.256-.666-.4-.988a7.513,7.513,0,0,0-2.036-2.834,1,1,0,0,0-.732-.315.8.8,0,0,0-.549.593,2.263,2.263,0,0,0-.059.915,16.305,16.305,0,0,0,.366,2.138l.417,1.889a4.146,4.146,0,0,0,.256.842,2.928,2.928,0,0,0,.7.827c.381.352.769.688,1.157,1.025a3.976,3.976,0,0,0,.732.505,4.255,4.255,0,0,0,1.3.381,11.028,11.028,0,0,1,4.862,1.874s0-1.267,0-1.406a1.859,1.859,0,0,0-.366-1.018,6.5,6.5,0,0,0-2.233-1.047Z" transform="translate(-163.552 -281.058)" fill="#fbbebe"/><path d="M475.785,612.05a6.678,6.678,0,0,1-3.412-3.383c-.139-.322-.256-.666-.4-.988a7.513,7.513,0,0,0-2.036-2.834,1,1,0,0,0-.732-.315.8.8,0,0,0-.549.593,2.263,2.263,0,0,0-.059.915,16.305,16.305,0,0,0,.366,2.138l.417,1.889a4.146,4.146,0,0,0,.256.842,2.928,2.928,0,0,0,.7.827c.381.352.769.688,1.157,1.025a3.976,3.976,0,0,0,.732.505,4.255,4.255,0,0,0,1.3.381,11.028,11.028,0,0,1,4.862,1.874s0-1.267,0-1.406a1.859,1.859,0,0,0-.366-1.018,6.5,6.5,0,0,0-2.233-1.047Z" transform="translate(-163.552 -281.058)" opacity="0.1"/><ellipse cx="2.08" cy="2.094" rx="2.08" ry="2.094" transform="translate(327.566 312.35)" fill="#2f2e41"/><path d="M495.178,590.457a2.248,2.248,0,0,0-1.64.234,2.279,2.279,0,0,0-.564.769,11.168,11.168,0,0,0-1.084,2.548c-.183.732-.212,1.56-.447,2.314-.425,1.391-1.516,2.57-1.64,4.02-.059.652.051,1.413-.425,1.853a2.691,2.691,0,0,1-.373.271,2.812,2.812,0,0,0-.82.842,2.759,2.759,0,0,1-.578.8c-.425.315-1.128.286-1.333.732s.33,1.054.205,1.582-.586.63-.915.923a3.2,3.2,0,0,0-.791,1.464,4.884,4.884,0,0,1-3.983-.988,12.682,12.682,0,0,1,.622,4.554,1.86,1.86,0,0,1-.366,1.406,25.357,25.357,0,0,1,4.884.849,3.368,3.368,0,0,0,2.131,0,3.559,3.559,0,0,0,.981-.776,6.255,6.255,0,0,0,2.014-3.1,18.241,18.241,0,0,0,.037-2.1,11.847,11.847,0,0,1,.535-2.555,30.41,30.41,0,0,0,.93-5.257c.1-1.1,1.047-1.977,1.545-2.929a14.341,14.341,0,0,0,1.97-5.858C496.1,591.373,495.866,590.531,495.178,590.457Z" transform="translate(-166.821 -277.273)" fill="#2f2e41"/><path d="M495.178,590.457a2.248,2.248,0,0,0-1.64.234,2.279,2.279,0,0,0-.564.769,11.168,11.168,0,0,0-1.084,2.548c-.183.732-.212,1.56-.447,2.314-.425,1.391-1.516,2.57-1.64,4.02-.059.652.051,1.413-.425,1.853a2.691,2.691,0,0,1-.373.271,2.812,2.812,0,0,0-.82.842,2.759,2.759,0,0,1-.578.8c-.425.315-1.128.286-1.333.732s.33,1.054.205,1.582-.586.63-.915.923a3.2,3.2,0,0,0-.791,1.464,4.884,4.884,0,0,1-3.983-.988,12.682,12.682,0,0,1,.622,4.554,1.86,1.86,0,0,1-.366,1.406,25.357,25.357,0,0,1,4.884.849,3.368,3.368,0,0,0,2.131,0,3.559,3.559,0,0,0,.981-.776,6.255,6.255,0,0,0,2.014-3.1,18.241,18.241,0,0,0,.037-2.1,11.847,11.847,0,0,1,.535-2.555,30.41,30.41,0,0,0,.93-5.257c.1-1.1,1.047-1.977,1.545-2.929a14.341,14.341,0,0,0,1.97-5.858C496.1,591.373,495.866,590.531,495.178,590.457Z" transform="translate(-166.821 -277.273)" opacity="0.1"/><path d="M482.162,629.558c-1.779-.849-3.083-2.424-4.525-3.778-2.746-2.585-6.107-4.393-9-6.832a63.4,63.4,0,0,0-5.733-4.818,14.328,14.328,0,0,0-6.143-2.145,1.633,1.633,0,0,0-.732,0,1.684,1.684,0,0,0-.7.549,22.13,22.13,0,0,0-2.482,3.4c-3.661,6.224-8.867,11.452-13.18,17.236a1.1,1.1,0,0,0-.212.41,1.018,1.018,0,0,0,.161.637l.879,1.713c.491.967,1.281,2.087,2.336,1.9a2.556,2.556,0,0,0,1.223-.784L448,633.278l4.13-3.947c2.416-2.307,4.877-4.672,6.458-7.63,1.23,2.138,3.419,3.537,4.913,5.492.571.732,1.04,1.56,1.552,2.35.813,1.259,1.743,2.446,2.665,3.661l4.737,6.041a9.064,9.064,0,0,0,2.2,2.2,8.384,8.384,0,0,0,3.8,1.018,50.216,50.216,0,0,0,5.353.19,9.228,9.228,0,0,0,3.991-.732,3.617,3.617,0,0,0,2.16-3.214,4.715,4.715,0,0,0-.681-2A16.319,16.319,0,0,0,482.162,629.558Z" transform="translate(-155.753 -283.043)" fill="#2f2e41"/><ellipse cx="1.604" cy="1.611" rx="1.604" ry="1.611" transform="translate(329.323 314.283)" fill="#e8e8f0"/><path d="M502.667,590.69a3.083,3.083,0,0,1,.176,2.314,9.387,9.387,0,0,1-1.032,2.131,10.144,10.144,0,0,1-1.34,1.9,13.793,13.793,0,0,0,7.044-2.021,10.229,10.229,0,0,0,4.445-3.873,2.05,2.05,0,0,1-1.64-.308,5.859,5.859,0,0,1-1.252-1.164l-1.237-1.391a5.564,5.564,0,0,1-.732-1,2.768,2.768,0,0,1-.33-1.618,9.427,9.427,0,0,1-1.64,1.362c-.886.578-1.86,1-2.753,1.567-.308.205-1.01.527-.827.937S502.418,590.251,502.667,590.69Z" transform="translate(-172.091 -276.005)" fill="#fbbebe"/><path d="M502.667,590.69a3.083,3.083,0,0,1,.176,2.314,9.387,9.387,0,0,1-1.032,2.131,10.144,10.144,0,0,1-1.34,1.9,13.793,13.793,0,0,0,7.044-2.021,10.229,10.229,0,0,0,4.445-3.873,2.05,2.05,0,0,1-1.64-.308,5.859,5.859,0,0,1-1.252-1.164l-1.237-1.391a5.564,5.564,0,0,1-.732-1,2.768,2.768,0,0,1-.33-1.618,9.427,9.427,0,0,1-1.64,1.362c-.886.578-1.86,1-2.753,1.567-.308.205-1.01.527-.827.937S502.418,590.251,502.667,590.69Z" transform="translate(-172.091 -276.005)" opacity="0.1"/><path d="M499.946,592.765a2.087,2.087,0,0,0,0,2.416c.073.088.337.637.447.644a.4.4,0,0,0,.278-.146,18.374,18.374,0,0,0,1.567-1.867,3.485,3.485,0,0,1,1.992-1.3,4.305,4.305,0,0,1,2.746.857,2.606,2.606,0,0,1,.945.732,2.557,2.557,0,0,1,.307,1.047,50.442,50.442,0,0,1,.278,6.656,26.227,26.227,0,0,1-.315,4.8c-.161.813-.4,1.611-.505,2.438a15.556,15.556,0,0,0-.1,2.2v3.061a8.055,8.055,0,0,0,.117,1.677c.146.666.461,1.289.674,1.94a12.69,12.69,0,0,1,.447,2.292l.417,3.163a4,4,0,0,1-.373,2.929c-.271.359-.63.652-.908,1.01-1.032,1.347-.732,3.273-1.135,4.92a6.136,6.136,0,0,1-2.006,3.075,3.317,3.317,0,0,1-2.643.945c-1.289-.242-2.057-1.582-2.409-2.848a11.388,11.388,0,0,0-1.237-3.712,9.848,9.848,0,0,0-2.446-2.043,4.224,4.224,0,0,1-1.911-2.482c-.081-.461,0-.937-.081-1.406a3.317,3.317,0,0,0-2.043-2.687c-.659-.256-1.464-.351-1.845-.952a4.444,4.444,0,0,0,1.926-2.585,13.278,13.278,0,0,0,.469-3.266l.22-3.661a12.229,12.229,0,0,1,.871-4.752c.322-.659.732-1.281,1.062-1.933a20.984,20.984,0,0,0,1.135-2.834c.527-1.508,1.054-3.017,1.523-4.54a8.551,8.551,0,0,1,.835-2.116C498.635,593.739,499.206,592.912,499.946,592.765Z" transform="translate(-169.341 -277.838)" fill="#e8e8f0"/><path d="M492.322,616.422h.974l.205-1.464a3.056,3.056,0,0,1,.205-.857,5.126,5.126,0,0,1,.564-.82c.952-1.355.886-3.149,1.12-4.8a24.4,24.4,0,0,1,2.138-6.268l1.889-4.21a5.811,5.811,0,0,0,.41-1.076,6.458,6.458,0,0,0,.117-1.245c0-.652.2-3.024.227-3.661,0-.242-.535-.11-.644-.322-.234-.469-.557.8-1,1.076a2.46,2.46,0,0,0-.871,1.274c-.41,1.054-.659,2.2-1.04,3.244a6.626,6.626,0,0,1-1.765,2.87c-.388.337-.835.608-1.2.974-1.172,1.157-1.289,2.995-1.325,4.65C492.292,606.8,492.1,616.422,492.322,616.422Z" transform="translate(-169.881 -277.595)" fill="#2f2e41"/><path d="M508.252,590.434a3.324,3.324,0,0,0-1.735,2.38,12.037,12.037,0,0,1-.879,2.929c-1.186,2.065-4.21,2.665-5.052,4.9a9.009,9.009,0,0,0-.337,2.307c-.146,1.6-.674,3.149-.835,4.745a21.143,21.143,0,0,0,.088,3.727l1.062,12.609a16.842,16.842,0,0,1-.315,5.55,5.345,5.345,0,0,0,3.178-.527c.988-.454,1.9-1.076,2.856-1.6a29.417,29.417,0,0,0,4.9-2.753,3,3,0,0,0,.659-.732,6.332,6.332,0,0,0,.439-1.655,8.939,8.939,0,0,1,.476-1.3,38.4,38.4,0,0,0,1.377-3.9,22.379,22.379,0,0,0,.63-2.665c.117-.732.183-1.464.242-2.2a12.887,12.887,0,0,1,.674-3.332,26.836,26.836,0,0,0,1.545-8,4.178,4.178,0,0,0-.081-1.172,6.269,6.269,0,0,0-.644-1.34c-.439-.827-.732-1.735-1.113-2.577a12.675,12.675,0,0,0-4.327-4.547C510.207,590.7,509.211,590.089,508.252,590.434Z" transform="translate(-171.796 -277.257)" fill="#2f2e41"/><path d="M477.1,617.015a7.635,7.635,0,0,1-2.014-1.53c-.264-.307-.483-.652-.732-.959a4.987,4.987,0,0,0-2.534-1.464,12.376,12.376,0,0,0-2.929-.286,5.315,5.315,0,0,0-1.955.234,1.992,1.992,0,0,0-1.3,1.391,2.306,2.306,0,0,0,.988,2.05,4.657,4.657,0,0,0,1.97.952,15.728,15.728,0,0,0,1.779.212c3.5.366,6.627,2.27,9.695,4.005q4.042,2.3,8.245,4.276a17.133,17.133,0,0,0,.139-2.526c0-.63-.051-1.6-.644-1.97a12.933,12.933,0,0,0-2.621-.784,41.25,41.25,0,0,1-5.279-2.138A26.252,26.252,0,0,1,477.1,617.015Z" transform="translate(-162.762 -283.263)" fill="#fbbebe"/><ellipse cx="6.239" cy="6.275" rx="6.239" ry="6.275" transform="translate(323.407 301.418)" fill="#fbbebe"/><path d="M508.3,599.889a10,10,0,0,0-1.208,2.263c-.732,1.582-1.977,2.929-2.585,4.606s-.615,3.829-1.867,5.2a1.823,1.823,0,0,0-.549.791,3.776,3.776,0,0,1-.059.571c-.183.5-1,.52-1.15,1.032-.044.146,0,.308-.073.454-.124.33-.564.381-.849.578-.608.41-.483,1.362-.915,1.955a1.647,1.647,0,0,1-1.56.549,5.492,5.492,0,0,1-1.618-.608,1.561,1.561,0,0,0-.586-.183,1.208,1.208,0,0,0-.674.234,4.152,4.152,0,0,0-1.684,3.551,11.6,11.6,0,0,0,.966,3.976,1.6,1.6,0,0,0,.315.593,1.4,1.4,0,0,0,1.552.117,7.318,7.318,0,0,1,1.516-.681c.967-.176,1.911.491,2.892.432a4.02,4.02,0,0,0,1.948-.857,10.763,10.763,0,0,0,2.621-2.2c.425-.564.732-1.2,1.113-1.8a23.1,23.1,0,0,1,1.574-2.1l3.6-4.393a10.117,10.117,0,0,0,.967-1.333,9.392,9.392,0,0,0,.732-2.014,15.423,15.423,0,0,0,.732-3.581,13.755,13.755,0,0,0-.264-3,10.61,10.61,0,0,0-.732-2.863C511.68,599.523,509.776,598.176,508.3,599.889Z" transform="translate(-170.07 -279.602)" fill="#2f2e41"/><path d="M519.563,581.554a7.029,7.029,0,0,0-2.885-5.711,8.355,8.355,0,0,0-7.1-8.135,8.106,8.106,0,0,0-15.97.432c-2.592-.586-4.964.176-5.4,1.772s1.4,3.661,4.13,4.393a7.7,7.7,0,0,0,2.651.264,8.113,8.113,0,0,0,5.58,3.478,8.325,8.325,0,0,0,6.092,6.282,6.993,6.993,0,0,0,1.882,2.6v.608a5.279,5.279,0,0,0,10.559,0,5.637,5.637,0,0,0-.505-2.336A7.058,7.058,0,0,0,519.563,581.554Z" transform="translate(-168.793 -269.454)" fill="#f86d70"/><path d="M489.972,570.248c.432-1.6,2.8-2.358,5.4-1.772a8.245,8.245,0,0,1,8.054-6.941h.535a7.937,7.937,0,0,0-2.3-.344,8.245,8.245,0,0,0-8.054,6.941c-2.592-.586-4.964.176-5.4,1.772s1.4,3.661,4.13,4.393a8.05,8.05,0,0,0,1.567.271C491.29,573.784,489.54,571.88,489.972,570.248Z" transform="translate(-168.79 -269.452)" opacity="0.1"/><path d="M512.84,592.834a5.5,5.5,0,0,1,0-.6,6.838,6.838,0,0,1-1.882-2.6,8.3,8.3,0,0,1-6.092-6.29,8.091,8.091,0,0,1-5.587-3.471,7.024,7.024,0,0,1-1.56-.044,8.135,8.135,0,0,0,5.382,3.2,8.325,8.325,0,0,0,6.092,6.282,6.992,6.992,0,0,0,1.882,2.6v.608a5.375,5.375,0,0,0,5.25,5.462A5.462,5.462,0,0,1,512.84,592.834Z" transform="translate(-171.355 -274.444)" opacity="0.1"/><ellipse cx="0.959" cy="1.281" rx="0.959" ry="1.281" transform="translate(330.194 308.535) rotate(-37.22)" fill="#fbbebe"/></g></svg>