<svg xmlns="http://www.w3.org/2000/svg" xmlns:xlink="http://www.w3.org/1999/xlink" width="311.952" height="213.008" viewBox="0 0 311.952 213.008"><defs><linearGradient id="a" x1="0.499" y1="1" x2="0.499" y2="-0.001" gradientUnits="objectBoundingBox"><stop offset="0" stop-color="gray" stop-opacity="0.251"/><stop offset="0.54" stop-color="gray" stop-opacity="0.122"/><stop offset="1" stop-color="gray" stop-opacity="0.102"/></linearGradient><linearGradient id="b" x1="0.5" y1="1" x2="0.5" y2="0" xlink:href="#a"/></defs><g transform="translate(0.066 0.009)"><path d="M339.829,181.238c-10.848,14.56-7.268,35.342-1,51.9,2.1,5.543,4.486,11.4,3.4,17.435-1.33,7.372-7.581,12.9-14.079,15.9a38.026,38.026,0,0,1-36.434-2.3c-9.144-5.963-15.581-15.872-24.9-21.55-15.6-9.5-35.852-5.255-53.214,2-12.283,5.131-25.739,11.738-37.709,7-8.423-3.334-14.1-11.82-17.08-20.891-1.441-4.38-2.449-9.134-5.32-12.562a19.6,19.6,0,0,0-6.282-4.645c-21.167-10.841-48.393-4.065-68.914-16.162-13.854-8.169-22.477-24.021-26.06-40.687s-2.7-34.258-1.269-51.55c1.014-12.289,2.618-25.42,10.172-35.077,7.988-10.212,21.377-14.272,33.35-12.671s22.7,8.115,32.1,15.866c11.74,9.689,22.549,21.85,37.16,25.526,9.95,2.5,20.521.732,30.865-.051,17.29-1.306,34.519.2,51.643,1.9,16.392,1.626,32.9,3.442,48.424,8.773,10.986,3.773,19.7,10.9,30.039,15.777,6.742,3.176,14.159,3.914,20.5,8.017,7.83,5.055,14.907,14.01,12.61,24.756C355.662,168.152,345.587,173.511,339.829,181.238Z" transform="translate(-46.385 -57.05)" fill="#09f" opacity="0.1"/><rect width="53.315" height="35.82" rx="9.61" transform="translate(106.824 43.454)" fill="#474059"/><rect width="50.959" height="29.263" transform="translate(107.957 47.77)" fill="#fff"/><ellipse cx="0.449" cy="0.485" rx="0.449" ry="0.485" transform="translate(133.277 45.354)" fill="#fff"/><rect width="9.342" height="9.861" transform="translate(128.925 79.292)" fill="#474059"/><path d="M457.4,326.95h11.418a1.557,1.557,0,0,1,1.557,1.557H455.84A1.557,1.557,0,0,1,457.4,326.95Z" transform="translate(-329.259 -238.314)" fill="#474059"/><rect width="38.405" height="13.234" transform="translate(65.034 97.567)" fill="#c0bccf"/><rect width="8.304" height="72.139" transform="translate(232.084 92.613)" fill="#c0bccf"/><rect width="38.405" height="0.778" transform="translate(65.034 97.296)" opacity="0.1"/><rect width="8.304" height="7.266" transform="translate(232.084 90.646)" opacity="0.1"/><rect width="38.405" height="13.234" transform="translate(65.034 110.887)" fill="#c0bccf"/><circle cx="2.335" cy="2.335" r="2.335" transform="translate(82.503 115.011)" fill="#09f"/><circle cx="2.335" cy="2.335" r="2.335" transform="translate(82.503 101.718)" fill="#09f"/><rect width="38.405" height="13.234" transform="translate(65.034 124.75)" fill="#c0bccf"/><circle cx="2.335" cy="2.335" r="2.335" transform="translate(82.503 128.576)" fill="#09f"/><rect width="38.405" height="13.234" transform="translate(65.034 138.614)" fill="#c0bccf"/><circle cx="2.335" cy="2.335" r="2.335" transform="translate(82.503 142.413)" fill="#09f"/><rect width="38.405" height="13.234" transform="translate(65.034 152.477)" fill="#c0bccf"/><circle cx="2.335" cy="2.335" r="2.335" transform="translate(82.503 156.249)" fill="#09f"/><rect width="38.405" height="1.038" transform="translate(65.034 123.597)" opacity="0.1"/><rect width="38.405" height="1.038" transform="translate(65.034 110.042)" opacity="0.1"/><rect width="38.405" height="1.038" transform="translate(65.034 137.422)" opacity="0.1"/><rect width="38.405" height="1.038" transform="translate(65.034 151.248)" opacity="0.1"/><path d="M115.286,422.689s-.856-25.368-14.581-39.7A38.453,38.453,0,0,1,90.16,361.065a64.681,64.681,0,0,1-.322-11.825" transform="translate(-75.993 -268.157)" fill="none" stroke="#535461" stroke-miterlimit="10" stroke-width="2"/><path d="M56.3,293.974c.939,2.834,8.792,9.342,8.792,9.342S67.5,293.4,66.56,290.57a5.4,5.4,0,1,0-10.258,3.4Z" transform="translate(-51.054 -224.353)" fill="#09f"/><path d="M38.653,358.106c2.335,1.868,12.456,3.067,12.456,3.067s-3.373-9.63-5.709-11.5a5.4,5.4,0,1,0-6.762,8.431Z" transform="translate(-36.68 -269.284)" fill="#09f"/><path d="M67,457.723c2.953.436,12.3-3.633,12.3-3.633s-7.772-6.62-10.722-7.058A5.4,5.4,0,1,0,67,457.723Z" transform="translate(-55.766 -341.048)" fill="#09f"/><path d="M114.048,530.064c2.836.929,12.741-1.51,12.741-1.51s-6.542-7.829-9.378-8.758a5.4,5.4,0,0,0-3.373,10.268Z" transform="translate(-91.259 -393.889)" fill="#09f"/><path d="M105.027,363.183c-1.378,2.647-10.164,7.831-10.164,7.831s-.8-10.169.579-12.819a5.4,5.4,0,0,1,9.586,4.987Z" transform="translate(-79.642 -274.173)" fill="#09f"/><path d="M151.34,443.973c-2.107,2.115-12.04,4.43-12.04,4.43s2.281-9.944,4.385-12.059a5.4,5.4,0,1,1,7.655,7.627Z" transform="translate(-112.719 -332.079)" fill="#09f"/><path d="M192.269,534.558c-1.718,2.439-11.119,6.4-11.119,6.4s.566-10.185,2.286-12.627a5.4,5.4,0,1,1,8.823,6.228Z" transform="translate(-143.71 -398.402)" fill="#09f"/><path d="M176.67,477.177s7.785-11.324,6.42-21.979a20.821,20.821,0,0,1,2.46-12.938,35.029,35.029,0,0,1,3.661-5.26" transform="translate(-140.392 -332.953)" fill="none" stroke="#535461" stroke-miterlimit="10" stroke-width="2"/><path d="M221.517,405.39c-.5,1.536.823,6.9.823,6.9s4.238-3.545,4.738-5.078a2.925,2.925,0,0,0-5.561-1.816Z" transform="translate(-173.518 -309.334)" fill="#09f"/><path d="M193.13,427.632c.413,1.557,4.44,5.343,4.44,5.343s1.63-5.278,1.217-6.84a2.926,2.926,0,1,0-5.657,1.5Z" transform="translate(-152.508 -324.325)" fill="#09f"/><path d="M173.405,480.129c1.144,1.139,6.529,2.372,6.529,2.372s-1.256-5.379-2.4-6.518a2.927,2.927,0,0,0-4.126,4.152Z" transform="translate(-137.335 -361.645)" fill="#09f"/><path d="M170.646,526.816c.937,1.316,6.036,3.441,6.036,3.441s-.33-5.514-1.266-6.83a2.925,2.925,0,0,0-4.77,3.389Z" transform="translate(-135.531 -395.913)" fill="#09f"/><path d="M212.824,451.4c-1.451.711-6.944.14-6.944.14s2.922-4.686,4.375-5.387a2.925,2.925,0,1,1,2.572,5.255Z" transform="translate(-162.022 -340.346)" fill="#09f"/><path d="M208.659,503.878c-1.6.241-6.659-1.933-6.659-1.933s4.191-3.6,5.789-3.841a2.925,2.925,0,0,1,.88,5.784Z" transform="translate(-159.149 -378.397)" fill="#09f"/><path d="M196.013,555.275c-1.534.519-6.9-.779-6.9-.779s3.524-4.253,5.058-4.764a2.926,2.926,0,0,1,1.845,5.553Z" transform="translate(-149.604 -415.931)" fill="#09f"/><path d="M221.517,405.39c-.5,1.536.823,6.9.823,6.9s4.238-3.545,4.738-5.078a2.925,2.925,0,0,0-5.561-1.816Z" transform="translate(-173.518 -309.334)" fill="#fff" opacity="0.5"/><path d="M193.13,427.632c.413,1.557,4.44,5.343,4.44,5.343s1.63-5.278,1.217-6.84a2.926,2.926,0,1,0-5.657,1.5Z" transform="translate(-152.508 -324.325)" fill="#fff" opacity="0.5"/><path d="M173.405,480.129c1.144,1.139,6.529,2.372,6.529,2.372s-1.256-5.379-2.4-6.518a2.927,2.927,0,0,0-4.126,4.152Z" transform="translate(-137.335 -361.645)" fill="#fff" opacity="0.5"/><path d="M170.646,526.816c.937,1.316,6.036,3.441,6.036,3.441s-.33-5.514-1.266-6.83a2.925,2.925,0,0,0-4.77,3.389Z" transform="translate(-135.531 -395.913)" fill="#fff" opacity="0.5"/><path d="M212.824,451.4c-1.451.711-6.944.14-6.944.14s2.922-4.686,4.375-5.387a2.925,2.925,0,1,1,2.572,5.255Z" transform="translate(-162.022 -340.346)" fill="#fff" opacity="0.5"/><path d="M208.659,503.878c-1.6.241-6.659-1.933-6.659-1.933s4.191-3.6,5.789-3.841a2.925,2.925,0,0,1,.88,5.784Z" transform="translate(-159.149 -378.397)" fill="#fff" opacity="0.5"/><path d="M196.013,555.275c-1.534.519-6.9-.779-6.9-.779s3.524-4.253,5.058-4.764a2.926,2.926,0,0,1,1.845,5.553Z" transform="translate(-149.604 -415.931)" fill="#fff" opacity="0.5"/><path d="M116.518,556.748H94.375L88.84,522.98h33.215Z" transform="translate(-65.835 -380.046)" fill="#474059"/><path d="M132.573,522.98,127.4,554.534H108.77l.363,2.214h22.143l5.538-33.768Z" transform="translate(-80.594 -380.046)" opacity="0.1"/><rect width="166.854" height="7.785" transform="translate(68.906 89.571)" fill="#c0bccf"/><rect width="23.873" height="25.231" transform="translate(108.495 49.844)" fill="#e8eaf1"/><rect width="22.835" height="24.133" transform="translate(109.023 50.407)" fill="#fff"/><path d="M451.344,261.107c.319-2.527-.319-2.686-.319-2.686l-.916-.439a3.791,3.791,0,0,0,.018-.446,3.2,3.2,0,0,0,0-.371,8.831,8.831,0,0,0-1.1-2.774,8.321,8.321,0,0,1-.721-2.655,13.581,13.581,0,0,0-.389-3.373,6.067,6.067,0,0,0-1.617-2.219,8.184,8.184,0,0,0-2.595-1.759,4.281,4.281,0,0,0-3.091-.088,6.755,6.755,0,0,0-2.227,1.72,7.848,7.848,0,0,0-1.259,1.531,6.922,6.922,0,0,0-.708,2.315,38.289,38.289,0,0,0-.436,3.869c-.07,1.079-.176,2.307-1.038,2.971-.423.324-1.015.506-1.209,1a1.09,1.09,0,0,0-.062.462,1.844,1.844,0,0,0,.026.392,1.156,1.156,0,0,0,.044.226,17.658,17.658,0,0,0-.623,2.021,53.293,53.293,0,0,0-1.279,7.108h15.393a1.815,1.815,0,0,0,.439,0h4Z" transform="translate(-321.975 -193.088)" fill="url(#a)"/><rect width="8.836" height="6.666" transform="translate(116.193 57.627)" fill="#b96b6b"/><rect width="8.836" height="6.666" transform="translate(116.193 57.627)" opacity="0.1"/><path d="M463.516,281.7l-3.41,4.806-3.578-.309s-4.65.309-1.557-3.257a7.592,7.592,0,0,0,2.076-4.152,3.226,3.226,0,0,0-.221-1.731l3.877-.465a2.891,2.891,0,0,0-.062,1.617C461.144,280.215,463.516,281.7,463.516,281.7Z" transform="translate(-338.187 -216.965)" fill="#ffb9b9"/><path d="M469.052,278.162a3.874,3.874,0,0,1-3.591.573A3.225,3.225,0,0,0,465.24,277l3.877-.465A2.891,2.891,0,0,0,469.052,278.162Z" transform="translate(-346.527 -217.028)" opacity="0.1"/><circle cx="3.877" cy="3.877" r="3.877" transform="translate(116.245 53.826)" fill="#ffb9b9"/><path d="M454.112,296.119a6.322,6.322,0,0,0,1.4-3.1,3.135,3.135,0,0,1,1.861-1.557c1.4-.465,1.24,0,1.24,0l.929,3.721-.309,6.666.156.779H447.91l.778-3.1-.158-2.629.62-4.03,1.861-1.085,1.4,1.861Z" transform="translate(-333.799 -227.625)" opacity="0.1"/><path d="M454.112,296.729a6.322,6.322,0,0,0,1.4-3.1,3.135,3.135,0,0,1,1.861-1.557c1.4-.465,1.24,0,1.24,0l.929,3.721-.309,6.666.156.778H447.91l.778-3.1-.156-2.636.62-4.03,1.861-1.085,1.4,1.861Z" transform="translate(-333.799 -228.069)" fill="#fec5d9"/><path d="M441.331,292.09l-4.806.779s-.779-.156-1.7,3.565a52.944,52.944,0,0,0-1.24,6.975h5.994s.361-6.2,1.3-6.666l1.3-2.006s-2.076-.163-1.77-1.248A2.2,2.2,0,0,1,441.331,292.09Z" transform="translate(-323.524 -228.234)" opacity="0.1"/><path d="M440.746,292.09l-4.806.779s-.779-.156-1.7,3.565A52.941,52.941,0,0,0,433,303.406h5.994s.361-6.2,1.3-6.666l1.3-2.006s-2.076-.164-1.77-1.248A2.191,2.191,0,0,1,440.746,292.09Z" transform="translate(-323.105 -228.234)" fill="#747b9c"/><path d="M484.36,290.3l5.115,2.481s.62.156.309,2.636l.309,6.666h-5.5a19.88,19.88,0,0,0,.234-6.355A42.485,42.485,0,0,1,484.36,290.3Z" transform="translate(-360.297 -226.924)" opacity="0.1"/><path d="M485,290.3l5.115,2.481s.62.156.309,2.636l.309,6.666h-5.512a19.88,19.88,0,0,0,.234-6.355A42.479,42.479,0,0,1,485,290.3Z" transform="translate(-360.76 -226.924)" fill="#747b9c"/><path d="M446.2,250.628a3.865,3.865,0,0,1-.856,1.666,2.091,2.091,0,0,0-.47,1.765c.078.234.231.441.285.682.093.415-.117.843-.08,1.266.049.581.542,1.012.815,1.526a3.7,3.7,0,0,1-.488,3.493,10.2,10.2,0,0,0-1.643,3.275,6.609,6.609,0,0,0,.566,3.322,1.038,1.038,0,0,1,.088.667c-.119.358-.568.465-.947.49a10,10,0,0,1-1.243,0,1.038,1.038,0,0,1-.454-.1c-.285-.156-.371-.519-.477-.82s-.34-.644-.664-.61c-.213.023-.379.205-.589.241a.607.607,0,0,1-.519-.213,1.449,1.449,0,0,1-.039-1.6,10.582,10.582,0,0,0,.812-1.495c.418-1.349-.628-2.686-.849-4.082a1.317,1.317,0,0,1,.036-.685c.189-.483.763-.662,1.173-.978.838-.651.942-1.858,1.009-2.917a38.045,38.045,0,0,1,.4-3.8,6.858,6.858,0,0,1,.685-2.271,7.683,7.683,0,0,1,1.22-1.5,6.473,6.473,0,0,1,2.159-1.687,4.1,4.1,0,0,1,2.995.086,7.928,7.928,0,0,1,2.52,1.741,5.954,5.954,0,0,1,1.557,2.177,13.846,13.846,0,0,1,.376,3.321,8.25,8.25,0,0,0,.7,2.595,8.757,8.757,0,0,1,1.069,2.725,9.2,9.2,0,0,1-.314,2.322,15.246,15.246,0,0,0,.044,4.066,3.272,3.272,0,0,0,.2.958,3.422,3.422,0,0,0,.924,1.108.4.4,0,0,1,.163.259.314.314,0,0,1-.122.228c-.47.418-1.282.109-1.79.48a2.876,2.876,0,0,0-.387.41,1.744,1.744,0,0,1-2.987-.81,5.587,5.587,0,0,1,.14-1.848c.234-1.949-.763-3.8-1.557-5.595a4.878,4.878,0,0,1-.576-2.655,8.383,8.383,0,0,1,.817-2.045,5.759,5.759,0,0,0,.259-4.308,4.269,4.269,0,0,0-2.2-2.39c-.368-.166-.893-.394-1.279-.171C446.061,249.289,446.256,250.047,446.2,250.628Z" transform="translate(-327.411 -194.534)" opacity="0.1"/><path d="M446.2,250.021a3.865,3.865,0,0,1-.856,1.666,2.091,2.091,0,0,0-.47,1.765c.078.234.231.441.285.682.093.415-.117.843-.08,1.266.049.581.542,1.012.815,1.526a3.7,3.7,0,0,1-.488,3.493,10.2,10.2,0,0,0-1.643,3.275,6.609,6.609,0,0,0,.566,3.322,1.038,1.038,0,0,1,.088.667c-.119.358-.568.465-.947.49a9.995,9.995,0,0,1-1.243,0,1.039,1.039,0,0,1-.454-.1c-.285-.156-.371-.519-.477-.82s-.34-.644-.664-.61c-.213.023-.379.205-.589.241a.607.607,0,0,1-.519-.213,1.449,1.449,0,0,1-.039-1.6,10.581,10.581,0,0,0,.812-1.495c.418-1.349-.628-2.686-.849-4.082a1.317,1.317,0,0,1,.036-.685c.189-.483.763-.662,1.173-.978.838-.651.942-1.858,1.009-2.917a38.048,38.048,0,0,1,.42-3.8,6.858,6.858,0,0,1,.685-2.271,7.683,7.683,0,0,1,1.22-1.5,6.473,6.473,0,0,1,2.159-1.687,4.1,4.1,0,0,1,2.995.086,7.928,7.928,0,0,1,2.514,1.726,5.952,5.952,0,0,1,1.557,2.177,13.842,13.842,0,0,1,.376,3.322,8.25,8.25,0,0,0,.7,2.595,8.755,8.755,0,0,1,1.069,2.725,9.2,9.2,0,0,1-.314,2.322,15.245,15.245,0,0,0,.044,4.066,3.273,3.273,0,0,0,.2.963,3.423,3.423,0,0,0,.924,1.108.4.4,0,0,1,.163.259.314.314,0,0,1-.122.228c-.47.418-1.282.109-1.79.48a2.879,2.879,0,0,0-.387.41,1.744,1.744,0,0,1-2.987-.81,5.586,5.586,0,0,1,.14-1.848c.234-1.949-.763-3.8-1.557-5.595a4.877,4.877,0,0,1-.576-2.655,8.382,8.382,0,0,1,.817-2.045,5.759,5.759,0,0,0,.26-4.308,4.269,4.269,0,0,0-2.2-2.39c-.368-.166-.893-.394-1.279-.171C446.061,248.682,446.256,249.442,446.2,250.021Z" transform="translate(-327.41 -194.09)" fill="#b96b6b"/><rect width="18.684" height="0.778" transform="translate(139.22 51.213)" fill="#e8eaf1"/><rect width="18.684" height="0.778" transform="translate(139.22 53.382)" fill="#e8eaf1"/><rect width="18.684" height="0.778" transform="translate(139.22 55.55)" fill="#e8eaf1"/><rect width="18.684" height="0.778" transform="translate(139.22 57.719)" fill="#e8eaf1"/><rect width="18.684" height="0.778" transform="translate(139.22 59.887)" fill="#e8eaf1"/><rect width="18.684" height="0.778" transform="translate(139.22 62.056)" fill="#e8eaf1"/><rect width="18.684" height="0.778" transform="translate(139.22 64.225)" fill="#e8eaf1"/><rect width="18.684" height="0.778" transform="translate(139.22 66.393)" fill="#e8eaf1"/><rect width="18.684" height="0.778" transform="translate(139.22 68.562)" fill="#e8eaf1"/><rect width="18.684" height="0.778" transform="translate(139.22 70.73)" fill="#e8eaf1"/><rect width="18.684" height="0.778" transform="translate(139.22 72.899)" fill="#e8eaf1"/><path d="M584,257.787a21.313,21.313,0,0,0,1.105-12.09,109.292,109.292,0,0,1-1.85-14.688,36.62,36.62,0,0,0-1.653-9.781h0s.272-6.438-3.83-9.795-13.678-8.675-13.678-8.675l.958-4.157h-.039a3.516,3.516,0,0,0,1.562-1.054c1.619-1.506,1.643-4.27,2.411-6.471a43.591,43.591,0,0,1,2.494-4.75,11.3,11.3,0,0,0,.439-9.486,7.847,7.847,0,0,0-7.707-4.728,13.207,13.207,0,0,0-3,.858c-2.3.861-4.118-1.575-6.42-.712-1.155.433-5.465.9-6.4,2.163a1.128,1.128,0,0,0-.441.634c-.244,1.225,1.866,3.677,3.43,5.635a9.328,9.328,0,0,0-1.926,5.7q0,.07,0,.141v.141a9.317,9.317,0,0,0,2.582,6.463c-.132,1.23-.33,2.615-.612,4.033h-.19s-1.095,5.037-4.65,5.037c-.95,0-2.247-.061-3.633-.146a35.857,35.857,0,0,0-12.412,1.52,4.526,4.526,0,0,1-4.188-.532c-3.052-2.342-6.337-8.305-6.786-9.136.343-2.419.3-6.849-4.43-7.654-5.54-.943-5.237,5.881-2.05,10.222a2.842,2.842,0,0,0-.156.673c-.273,3.638,3.01,10.355,3.83,11.193s.841,6.154,6.576,7.563,9.861,1.958,10.12,8.956,5.745,14.272,3.01,22.389c-1.643,4.871-1.214,7.423-.61,8.683-.049.166-.1.328-.148.5a20.4,20.4,0,0,1-2.252,5.241c-.2.276-.389.574-.573.883a35.874,35.874,0,0,0-5.449,4.295c-1.915,2.24-1.1,11.193,0,14.832s7.933,25.746,7.933,25.746h.26l.083.552.275,1.832a2.557,2.557,0,0,1-.259-.171.422.422,0,0,0-.369-.069.452.452,0,0,0-.287.257L533.737,313s-5.47-2.513-5.75,3.365v.673c-.013,3.125,1.606,4.289,2.995,4.708a11.15,11.15,0,0,1,3.565,1.76,6.665,6.665,0,0,0,5.6,1.473,5.221,5.221,0,0,1,1.4-.138,2.288,2.288,0,0,0,2.595-2.609,4.808,4.808,0,0,0,0-.552,47.686,47.686,0,0,1-1.2-6.9,1.7,1.7,0,0,1,.109-.645,4.88,4.88,0,0,0,.241-1.95q0-1.058-.1-2.1a.319.319,0,0,0-.235-.272.3.3,0,0,0-.323.136l-.044.063c-.176-.621-.381-1.346-.573-2.03l-.158-.552h.368s-2.193-13.739-1.373-14.843c.537-.731-.33-9.478-.994-15.447,6.664.45,17.285-.8,24.551-1.189a8.885,8.885,0,0,0,3.968-1.175c-.657,5.66-1.876,16.972-1.264,17.808.82,1.12-1.367,14.831-1.367,14.831h.33l-.119.419h.042c-.2.725-.423,1.506-.612,2.171l-.044-.063a.3.3,0,0,0-.325-.135.319.319,0,0,0-.233.276q-.1,1.046-.1,2.1a5.29,5.29,0,0,0,.241,1.95,1.7,1.7,0,0,1,.109.645,47.31,47.31,0,0,1-1.2,6.9,4.835,4.835,0,0,0,0,.552,2.28,2.28,0,0,0,2.595,2.609,5.222,5.222,0,0,1,1.4.138,6.692,6.692,0,0,0,5.6-1.473,11.149,11.149,0,0,1,3.566-1.76c1.388-.419,3.008-1.583,2.995-4.708v-.673c-.288-5.873-5.758-3.36-5.758-3.36l-1.344-3.183a.452.452,0,0,0-.287-.257.422.422,0,0,0-.369.069,2.531,2.531,0,0,1-.26.171l.361-2.391h.26s6.838-22.108,7.933-25.746,1.915-12.594,0-14.832a36.111,36.111,0,0,0-5.525-4.35,51.354,51.354,0,0,1,5.525,4.071Zm-11.812,2.805-.869-.552a4.373,4.373,0,0,0-.657-.908,7.238,7.238,0,0,1-.67-.8c-.534-1.718-2.509-8.827.125-12.492,1.912-2.67,2.058-7.828,1.907-11.232,1.3,6.761,3.114,16.274,3.29,18.227C575.533,255.274,573.182,259.111,572.191,260.592Z" transform="translate(-376.75 -142.229)" fill="url(#b)"/><path d="M723.266,654.184l-1.038,6.747-6.228-1.3s1.3-4.411,1.557-5.449.259,0,.259,0Z" transform="translate(-527.655 -491.76)" fill="#d6e6f9"/><path d="M615.266,659.633l-6.228,1.3-.719-4.671L608,654.184h5.449s0-1.038.259,0c.093.374.322,1.188.579,2.076C614.747,657.832,615.266,659.633,615.266,659.633Z" transform="translate(-449.606 -491.76)" fill="#d6e6f9"/><path d="M614.308,656.26h-5.968l-.319-2.076h5.449s0-1.038.259,0C613.822,654.557,614.051,655.372,614.308,656.26Z" transform="translate(-449.656 -491.926)" opacity="0.1"/><path d="M719.79,655.76h5.968l.319-2.076h-5.455s0-1.038-.26,0C720.275,654.057,720.047,654.872,719.79,655.76Z" transform="translate(-530.436 -491.561)" opacity="0.1"/><path d="M744.785,340.5s3.373.26,4.152,12.456a99.179,99.179,0,0,0,1.767,13.623,19.343,19.343,0,0,1-1.038,11.2l-3.324,8.133s-6.228-5.19-8.3-4.93c0,0,3.633-4.93,3.373-7.785S737,349.842,737,349.842Z" transform="translate(-542.525 -262.746)" fill="#d6e6f9"/><path d="M585.751,489.5s-8.044,4.93-9.861,7.006-1.038,10.38,0,13.753,7.525,23.873,7.525,23.873H589.9s-2.076-12.715-1.3-13.753-1.557-19.462-1.557-19.462Z" transform="translate(-425.343 -370.902)" fill="#5f546f"/><path d="M723.152,489.5s8.044,4.93,9.861,7.006,1.038,10.38,0,13.753-7.525,23.873-7.525,23.873H719s2.076-12.715,1.3-13.753,1.557-19.462,1.557-19.462Z" transform="translate(-529.479 -370.902)" fill="#5f546f"/><path d="M585.751,489.5s-8.044,4.93-9.861,7.006-1.038,10.38,0,13.753,7.525,23.873,7.525,23.873H589.9s-2.076-12.715-1.3-13.753-1.557-19.462-1.557-19.462Z" transform="translate(-425.343 -370.902)" opacity="0.1"/><path d="M723.152,489.5s8.044,4.93,9.861,7.006,1.038,10.38,0,13.753-7.525,23.873-7.525,23.873H719s2.076-12.715,1.3-13.753,1.557-19.462,1.557-19.462Z" transform="translate(-529.479 -370.902)" opacity="0.1"/><path d="M658.387,231.234s0,10.12-3.633,15.31,16.608.779,16.608.779a5.39,5.39,0,0,1-1.946-2.725c-1.069-3.807-1.474-10.512.13-13.364C671.881,227.082,658.387,231.234,658.387,231.234Z" transform="translate(-482.688 -182.474)" fill="#ffced8"/><circle cx="8.563" cy="8.563" r="8.563" transform="translate(173.079 38.072)" opacity="0.1"/><circle cx="8.563" cy="8.563" r="8.563" transform="translate(173.079 37.8)" fill="#ffced8"/><path d="M631.977,515.061c-9.282.41-24.722,2.138-27.063-.426-3.776-4.134-2.437-7.855-.488-10.12a13.783,13.783,0,0,0,2-3.866c.187-.5.361-1,.519-1.482a4.978,4.978,0,0,1,4.853-3.127h18.743a4.979,4.979,0,0,1,4.858,3.148,8.327,8.327,0,0,0,1.194,2.426,5.88,5.88,0,0,0,.958,1.038c.945.8,1.557,2.53,1.954,4.432C640.346,511.111,636.8,514.848,631.977,515.061Z" transform="translate(-444.46 -376.517)" fill="#5f546f"/><path d="M631.977,515.061c-9.282.41-24.722,2.138-27.063-.426-3.776-4.134-2.437-7.855-.488-10.12a13.783,13.783,0,0,0,2-3.866c.187-.5.361-1,.519-1.482a4.978,4.978,0,0,1,4.853-3.127h18.743a4.979,4.979,0,0,1,4.858,3.148,8.327,8.327,0,0,0,1.194,2.426,5.88,5.88,0,0,0,.958,1.038c.945.8,1.557,2.53,1.954,4.432C640.346,511.111,636.8,514.848,631.977,515.061Z" transform="translate(-444.46 -376.517)" opacity="0.1"/><path d="M592.071,670.451a12.091,12.091,0,0,1-3.755-1.256.413.413,0,0,0-.623.174l-1.272,2.961s-5.19-2.335-5.449,3.114c-.151,3.179,1.464,4.326,2.836,4.731A10.675,10.675,0,0,1,587.2,681.8a6.445,6.445,0,0,0,5.309,1.367,5.058,5.058,0,0,1,1.331-.13c.968.031,2.636-.26,2.452-2.67,0,0-1.557-6.228-1.038-7.266a8.99,8.99,0,0,0,.135-3.493.288.288,0,0,0-.519-.132,2.284,2.284,0,0,1-2,1.038A3.638,3.638,0,0,1,592.071,670.451Z" transform="translate(-429.784 -502.706)" opacity="0.1"/><path d="M592.071,671.451a12.091,12.091,0,0,1-3.755-1.256.412.412,0,0,0-.623.174l-1.272,2.961s-5.19-2.335-5.449,3.114c-.151,3.179,1.464,4.326,2.836,4.731A10.675,10.675,0,0,1,587.2,682.8a6.444,6.444,0,0,0,5.309,1.367,5.063,5.063,0,0,1,1.331-.13c.968.031,2.636-.26,2.452-2.67,0,0-1.557-6.228-1.038-7.266a8.99,8.99,0,0,0,.135-3.493.288.288,0,0,0-.519-.132,2.283,2.283,0,0,1-2,1.038A3.638,3.638,0,0,1,592.071,671.451Z" transform="translate(-429.784 -503.434)" fill="#bc8387"/><path d="M716.2,670.451a12.092,12.092,0,0,0,3.755-1.256.413.413,0,0,1,.623.174l1.264,2.961s5.19-2.335,5.449,3.114c.151,3.179-1.464,4.326-2.836,4.731a10.676,10.676,0,0,0-3.374,1.632,6.444,6.444,0,0,1-5.309,1.368,5.059,5.059,0,0,0-1.331-.13c-.968.031-2.636-.259-2.452-2.67,0,0,1.557-6.228,1.038-7.266a8.989,8.989,0,0,1-.135-3.493.288.288,0,0,1,.519-.132,2.283,2.283,0,0,0,2,1.038A3.633,3.633,0,0,0,716.2,670.451Z" transform="translate(-524.397 -502.706)" opacity="0.1"/><path d="M716.2,671.451a12.092,12.092,0,0,0,3.755-1.256.412.412,0,0,1,.623.174l1.264,2.961s5.19-2.335,5.449,3.114c.151,3.179-1.464,4.326-2.836,4.731a10.673,10.673,0,0,0-3.374,1.632,6.444,6.444,0,0,1-5.309,1.367,5.064,5.064,0,0,0-1.331-.13c-.968.031-2.636-.259-2.452-2.67,0,0,1.557-6.228,1.038-7.266a8.989,8.989,0,0,1-.135-3.493.288.288,0,0,1,.519-.132,2.284,2.284,0,0,0,2,1.038A3.637,3.637,0,0,0,716.2,671.451Z" transform="translate(-524.397 -503.434)" fill="#bc8387"/><path d="M526.17,236.829s2.336-7.525-3.892-8.563-4.671,8.044,0,11.418S526.17,236.829,526.17,236.829Z" transform="translate(-384.654 -181.679)" fill="#ffced8"/><path d="M641.866,465.693c-7.266,11.937-31.658-1.557-31.658-1.557a2.6,2.6,0,0,1-.978-1.349c.2-.631.384-1.261.55-1.861A5.356,5.356,0,0,1,614.954,457h19.981a5.348,5.348,0,0,1,5.174,3.952A11.314,11.314,0,0,0,641.381,464C641.638,465.044,641.866,465.693,641.866,465.693Z" transform="translate(-449.498 -348.278)" opacity="0.1"/><path d="M563.842,258.6h-1.557s-1.038,4.671-4.411,4.671c-.9,0-2.13-.054-3.454-.138a34.752,34.752,0,0,0-11.776,1.409,4.375,4.375,0,0,1-3.973-.493c-3.114-2.335-6.487-8.563-6.487-8.563s-5.968-.259-6.228,3.114,2.854,9.6,3.633,10.38.778,5.709,6.228,7.006,9.342,1.816,9.6,8.3,5.449,13.234,2.854,20.759.259,9.082.259,9.082,24.392,13.494,31.658,1.557c0,0-2.854-8.044,0-11.937s1.557-13.494,1.557-13.494l9.342-9.342s.26-5.968-3.633-9.082-12.975-8.044-12.975-8.044l.908-3.856Z" transform="translate(-388.081 -200.633)" fill="#d6e6f9"/><path d="M658.884,194.474c-.2,2.442-.119,5.229,1.687,6.887a7.213,7.213,0,0,0,3.241,1.505,20.707,20.707,0,0,0,3.739.553,5.651,5.651,0,0,0,3.348-.615c1.982-1.279,1.936-4.123,2.73-6.347a40.822,40.822,0,0,1,2.367-4.411,10.26,10.26,0,0,0,.415-8.794,7.448,7.448,0,0,0-7.31-4.372,12.75,12.75,0,0,0-2.854.8c-2.185.8-3.905-1.461-6.09-.662-1.194.436-5.937.916-6.228,2.335-.345,1.687,4.245,5.893,4.741,7.37C659.32,190.621,658.884,192.528,658.884,194.474Z" transform="translate(-482.127 -145.642)" opacity="0.1"/><path d="M659.884,193.474c-.2,2.442-.119,5.229,1.687,6.887a7.213,7.213,0,0,0,3.241,1.505,20.708,20.708,0,0,0,3.739.553,5.651,5.651,0,0,0,3.348-.615c1.982-1.279,1.936-4.123,2.73-6.347a40.852,40.852,0,0,1,2.367-4.411,10.259,10.259,0,0,0,.415-8.794,7.448,7.448,0,0,0-7.31-4.372,12.748,12.748,0,0,0-2.854.8c-2.185.8-3.905-1.461-6.09-.662-1.194.436-5.937.916-6.228,2.335-.345,1.687,4.245,5.893,4.741,7.37C660.319,189.621,659.884,191.528,659.884,193.474Z" transform="translate(-482.849 -144.915)" fill="#ae767a"/><path d="M659.52,280.49s1.557.651,5.968,1.949a13.106,13.106,0,0,0,7.785,0" transform="translate(-486.58 -219.905)" opacity="0.1"/><path d="M614.5,423.4s7.266.415,9.6,3.529,3.114,4.152,5.968,4.152,11.937.519,13.234,1.038" transform="translate(-453.462 -323.926)" opacity="0.1"/><rect width="4.339" height="4.959" transform="translate(176.349 182.763)" fill="#c0bccf"/><rect width="3.41" height="25.103" transform="translate(205.435 118.353)" fill="#cb919b"/><rect width="7.437" height="0.929" transform="translate(199.656 143.573)" fill="#cb919b"/><rect width="3.41" height="25.103" transform="translate(148.513 118.353)" fill="#cb919b"/><rect width="7.437" height="0.929" transform="translate(149.309 143.573)" fill="#cb919b"/><rect width="7.128" height="30.374" transform="translate(175.463 146.247)" fill="#c0bccf"/><path d="M627.306,395.422c19.2.67,19.836-6.687,19.836-6.687l-1.24-20.4c-.309-31.77-18.6-27.088-18.6-27.088s-18.286-4.671-18.6,27.088l-1.24,20.4S608.09,396.092,627.306,395.422Z" transform="translate(-447.918 -262.858)" fill="#cb919b"/><path d="M627.306,395.422c19.2.67,19.836-6.687,19.836-6.687l-1.24-20.4c-.309-31.77-18.6-27.088-18.6-27.088s-18.286-4.671-18.6,27.088l-1.24,20.4S608.09,396.092,627.306,395.422Z" transform="translate(-447.918 -262.858)" fill="#fff" opacity="0.1"/><path d="M627.964,397.786c18.315.638,18.9-6.376,18.9-6.376l-1.181-19.444c-.3-30.28-17.723-25.817-17.723-25.817s-17.428-4.463-17.723,25.817l-1.181,19.444S609.649,398.425,627.964,397.786Z" transform="translate(-449.147 -266.495)" fill="#cb919b"/><rect width="7.748" height="13.328" rx="3.874" transform="translate(174.828 124.169)" fill="#c0bccf"/><path d="M676.688,705.116V706.2H669.57v-1.074l.62-.164h5.888Z" transform="translate(-494.107 -527.771)" opacity="0.1"/><path d="M571.368,716.367s-3.1-2.478,26.043-10.227H603.3s25.1,6.191,25.4,10.227h-3.719s-13.636-4.035-19.836-4.035-24.795.62-30.361,4.03Z" transform="translate(-421.028 -528.645)" fill="#c0bccf"/><path d="M529.973,419.77h1.31a3.373,3.373,0,0,1,3.373,3.373v1.586H526.6v-1.586A3.373,3.373,0,0,1,529.973,419.77Z" transform="translate(-380.582 -305.885)" fill="#cb919b"/><path d="M735.373,419.77h1.31a3.373,3.373,0,0,1,3.373,3.373v1.586H732v-1.586A3.373,3.373,0,0,1,735.373,419.77Z" transform="translate(-529.009 -305.885)" fill="#cb919b"/><circle cx="2.169" cy="2.169" r="2.169" transform="translate(147.551 187.722)" fill="#5a5773"/><circle cx="2.169" cy="2.169" r="2.169" transform="translate(176.349 187.722)" fill="#5a5773"/><circle cx="2.169" cy="2.169" r="2.169" transform="translate(205.477 187.722)" fill="#5a5773"/><rect width="7.128" height="1.24" transform="translate(175.463 145.203)" opacity="0.1"/><path d="M619.774,570.307h20.759l1.557-3.1c.929-5.268-2.478-5.579-2.478-5.579H599.938s-3.41.309-2.478,5.579l1.557,3.1Z" transform="translate(-440.35 -424.621)" fill="#cb919b"/><path d="M619.774,570.307h20.759l1.557-3.1c.929-5.268-2.478-5.579-2.478-5.579H599.938s-3.41.309-2.478,5.579l1.557,3.1Z" transform="translate(-440.35 -424.621)" fill="#fff" opacity="0.1"/><path d="M619.774,573.84h20.759l1.557-2.657c.929-4.515-2.478-4.782-2.478-4.782H599.938s-3.41.26-2.478,4.782l1.557,2.657Z" transform="translate(-440.35 -428.135)" fill="#cb919b"/><path d="M833.716,356.779a2.952,2.952,0,0,0-3.508,1.3,3.809,3.809,0,0,0,.049,3.667,5.378,5.378,0,0,0,5.216,2.956c2.481-.132,3.3-2.024,3.529-3.786a3.892,3.892,0,0,0-5.164-4.152Z" transform="translate(-609.768 -275.229)" fill="#09f"/><path d="M830.778,361.614a3.809,3.809,0,0,1-.049-3.667,2.986,2.986,0,0,1,3.508-1.3l.122-.044a3.853,3.853,0,0,1,2.784.062,3.856,3.856,0,0,0-3.285-.314l-.122.044a2.952,2.952,0,0,0-3.508,1.3,3.809,3.809,0,0,0,.049,3.667,5.693,5.693,0,0,0,2.675,2.535A5.872,5.872,0,0,1,830.778,361.614Z" transform="translate(-609.878 -274.936)" fill="#fff" opacity="0.1"/><path d="M840.3,361.34s.877.69,3.013,0" transform="translate(-617.694 -278.87)" opacity="0.2"/><path d="M839.58,342s1.505,4.079,1.38,5.146l1.191-.125s-2.009-3.576-1.505-5.019Z" transform="translate(-617.195 -264.691)" fill="#09f"/><path d="M839.58,342s1.505,4.079,1.38,5.146l1.191-.125s-2.009-3.576-1.505-5.019Z" transform="translate(-617.195 -264.691)" opacity="0.2"/><path d="M849.983,341.579s-2.369-1.212-3.43-.21-1.222,3.56-1.222,3.56A4.135,4.135,0,0,0,849.983,341.579Z" transform="translate(-621.25 -263.962)" fill="#09f"/><path d="M849.983,341.579s-2.369-1.212-3.43-.21-1.222,3.56-1.222,3.56A4.135,4.135,0,0,0,849.983,341.579Z" transform="translate(-621.25 -263.962)" fill="#fff" opacity="0.1"/><path d="M845.33,346.66s.623-2.971,4.653-3.35" transform="translate(-621.25 -265.676)" fill="none" stroke="#09f" stroke-miterlimit="10" stroke-width="1"/></g></svg>