<svg xmlns="http://www.w3.org/2000/svg" width="290.188" height="94.389" viewBox="0 0 290.188 94.389"><g transform="translate(-1062.4 -280.113)"><g transform="translate(1184.071 287.461)"><text transform="translate(0 35)" fill="#fff" font-size="32" font-family="SegoeUI-Semibold, Segoe UI" font-weight="600"><tspan x="0" y="0">VIVA</tspan></text><text transform="translate(80.31 35)" fill="#fff" font-size="32" font-family="SegoeUI-Bold, Segoe UI" font-weight="700"><tspan x="0" y="0">SEM</tspan></text></g><g transform="translate(1088.247 320.999)"><path d="M1082.954,301.853h-.006a2.458,2.458,0,0,0-2.452,2.463v36.937a2.473,2.473,0,0,0,2.467,2.463c5.735.013,15.339,1.208,21.967,8.144V313.2a2.352,2.352,0,0,0-.338-1.247C1099.154,303.2,1088.7,301.866,1082.954,301.853Z" transform="translate(-1072.424 -301.853)" fill="#fff"/><path d="M1119.708,341.253V304.316a2.455,2.455,0,0,0-.725-1.748,2.422,2.422,0,0,0-1.727-.715h-.006c-5.746.013-16.2,1.344-21.638,10.1a2.368,2.368,0,0,0-.338,1.247V351.86c6.627-6.935,16.234-8.13,21.967-8.144A2.473,2.473,0,0,0,1119.708,341.253Z" transform="translate(-1058.944 -301.853)" fill="#fff"/><path d="M1123.69,306.308H1121.9v30.881a6.3,6.3,0,0,1-6.281,6.287c-4.863.011-12.882.962-18.561,6.337,9.823-2.4,20.177-.841,26.078.5a2.462,2.462,0,0,0,3.013-2.4V308.771A2.465,2.465,0,0,0,1123.69,306.308Z" transform="translate(-1057.315 -297.789)" fill="#fff"/><path d="M1080.524,337.189V306.308h-1.786a2.465,2.465,0,0,0-2.463,2.463v39.146a2.463,2.463,0,0,0,3.013,2.4c5.9-1.344,16.257-2.908,26.078-.5-5.679-5.375-13.7-6.325-18.561-6.337A6.3,6.3,0,0,1,1080.524,337.189Z" transform="translate(-1076.275 -297.789)" fill="#fff"/></g><path d="M1097.714,325.772c6.251-3.268,10.4-8.989,10.4-15.508,0-10.157-10.065-18.393-22.481-18.393s-22.481,8.236-22.481,18.393,10.065,18.395,22.481,18.395c.425,0,.847-.013,1.268-.032a33.018,33.018,0,0,0,15.383,5.35,35.305,35.305,0,0,0,5.494.092C1103.265,332.921,1100.018,329.56,1097.714,325.772Z" transform="translate(0 10.041)" fill="#0095f5" stroke="#fff" stroke-linecap="round" stroke-linejoin="round" stroke-width="1.5"/><path d="M1117.2,283.9c-12.416,0-22.481,8.236-22.481,18.393,0,6.517,4.155,12.23,10.4,15.5-2.3,3.794-5.551,7.159-10.068,8.308a35.535,35.535,0,0,0,5.494-.092,33.02,33.02,0,0,0,15.393-5.371c.419.019.834.052,1.258.052,12.416,0,22.481-8.234,22.481-18.393S1129.613,283.9,1117.2,283.9Z" transform="translate(28.793 2.771)" fill="#fbb03b" stroke="#fff" stroke-linecap="round" stroke-linejoin="round" stroke-width="1.5"/><g transform="translate(1132.806 297.786)"><path d="M1112.462,292.044a23.773,23.773,0,0,1-.576,3.455l-.845-.147a17.71,17.71,0,0,1,1.514,4.379l-1.862.683a17.579,17.579,0,0,0-1.432-4.553l1.555-.549-.578-.109c.04-.375.107-.87.161-1.392h-1.178v6.509c0,1.272-.214,2.13-2.786,2.13a7.024,7.024,0,0,0-.656-1.956c.522.013,1.084.013,1.271.013s.241-.04.241-.214v-6.482h-1.111a11.7,11.7,0,0,1-.884,1.622l1.968.509c-.04.12-.174.187-.361.187a14.03,14.03,0,0,1-1.821,4.339,10.852,10.852,0,0,0-1.512-.95,10.633,10.633,0,0,0,1.539-3.792h-.013c-.121.176-.241.337-.375.5a12.623,12.623,0,0,0-1.38-1.18v7.408h-1.927v-5.786c-.229.321-.455.616-.683.9a15.608,15.608,0,0,0-1.153-1.74,17.47,17.47,0,0,0,3-6.107l2.21.683c-.053.134-.2.2-.417.187-.348.992-.75,2-1.191,2.96l.562.134c-.027.147-.147.254-.4.281v.91a12.981,12.981,0,0,0,2.17-5.115l2.237.589c-.04.12-.176.2-.39.187-.134.5-.281.99-.455,1.486h4.514Z" transform="translate(-1099.578 -289.713)" fill="#f2f2f2"/><path d="M1111.184,292.285l1.019.227a1.854,1.854,0,0,1-.094.321,19.07,19.07,0,0,1-1.031,5.6,9.216,9.216,0,0,1,1.405,1.394l-1.165,1.566a10.789,10.789,0,0,0-1.1-1.231,7.518,7.518,0,0,1-2.358,2.331,6.8,6.8,0,0,0-1.151-1.541,5.272,5.272,0,0,0,2.063-2.036l-.375-.293-.08.321-1.581-.832c.294-1.084.6-2.5.9-3.991h-.923v-1.794h1.26c.161-.9.295-1.8.415-2.612l2.155.214c-.011.147-.132.228-.388.254l-.388,2.143h1.1Zm-1.78,1.834c-.187.9-.375,1.8-.576,2.652.228.147.469.308.7.482a14.816,14.816,0,0,0,.669-3.134Zm9.911,1.421v1.834H1116.5v2.987c0,1.352-.321,2.117-3.041,2.077a8.087,8.087,0,0,0-.682-1.9c.428.013.91.027,1.218.027.455,0,.551,0,.551-.227v-2.96h-2.652v-1.834h2.652v-1.97l.549.027a10.871,10.871,0,0,0,1.017-1.432h-3.763v-1.782h5.075l.322-.107,1.514.91a.6.6,0,0,1-.375.214,23.41,23.41,0,0,1-2.385,3.04v1.1Z" transform="translate(-1093.072 -289.713)" fill="#f2f2f2"/></g><path d="M1107.463,311.543c5.654-2.958,9.414-8.129,9.414-14.028,0-9.2-9.112-16.653-20.353-16.653s-20.353,7.455-20.353,16.653,9.111,16.651,20.353,16.651c.384,0,.761-.029,1.14-.046a29.894,29.894,0,0,0,13.936,4.863,32.144,32.144,0,0,0,4.974.082C1112.485,318.026,1109.55,314.978,1107.463,311.543Z" transform="translate(11.877 0)" fill="#f71a19" stroke="#fff" stroke-linecap="round" stroke-linejoin="round" stroke-width="1.5"/><g transform="translate(1099.282 290.009)"><path d="M1083.87,286.738l-.228-.252a.345.345,0,0,0-.285-.119c-.337.01-.562.168-.562.294,0,.22.386.446,1.1.446.312,0,.554-.008.849-.025l.034.077a5.179,5.179,0,0,1-.346.679,5.36,5.36,0,0,0-2.1.606l-.1-.1c.1-.218.21-.428.327-.629a.718.718,0,0,1-.512-.673,1.437,1.437,0,0,1,.539-.95,1.622,1.622,0,0,1,1.042-.444c.361,0,.6.184.6.47a1.148,1.148,0,0,1-.245.621Zm-.8,10.335a14.64,14.64,0,0,0,.109-2.025,49.618,49.618,0,0,0-.287-5.461,14.273,14.273,0,0,1,.975-1.069l.144.076c.168,1.815.193,3.513.193,5.142a6.6,6.6,0,0,1-.26,2.488,5.973,5.973,0,0,1-.69.983Z" transform="translate(-1082.046 -285.646)" fill="#fff" stroke="#fff" stroke-miterlimit="10" stroke-width="0.25"/><path d="M1085.474,288.5l.178-.119c.587.488,1.25.916,1.815,1.421a2.407,2.407,0,0,1,.924,2.017,3.766,3.766,0,0,1-.411,1.765,2.521,2.521,0,0,1-2,1.015,1.935,1.935,0,0,1-1.924-2.109,4.528,4.528,0,0,1,1.292-3.008Zm-.629,3.428c0,.5.512.966,1.268.966a1.873,1.873,0,0,0,1.522-.706c-.067-.554-.639-1.134-1.74-1.755C1085.154,291.081,1084.845,291.569,1084.845,291.93Z" transform="translate(-1080.214 -283.149)" fill="#fff" stroke="#fff" stroke-miterlimit="10" stroke-width="0.25"/><path d="M1092.511,287.116a4.941,4.941,0,0,0,.925,2.243l-.757.572c.042.9.059,1.84.059,2.832a8.65,8.65,0,0,1-.4,2.832,3.472,3.472,0,0,1-2.924,1.622,2.322,2.322,0,0,1-2.312-2.6,5.575,5.575,0,0,1,.631-2.53l.446.218a3.976,3.976,0,0,0-.336,1.4,1.634,1.634,0,0,0,1.772,1.715,2.952,2.952,0,0,0,1.312-.344,2.409,2.409,0,0,0,.931-.7c.017-.21.017-.488.017-.832,0-.866-.116-2.656-.235-4.025-.032-.421-.109-.74-.109-1.067a1.225,1.225,0,0,1,.228-.782,3.4,3.4,0,0,1,.654-.631Z" transform="translate(-1077.436 -284.368)" fill="#fff" stroke="#fff" stroke-miterlimit="10" stroke-width="0.25"/><path d="M1091.108,295.7a14.313,14.313,0,0,0,.111-2.025,49.618,49.618,0,0,0-.287-5.461,14.221,14.221,0,0,1,.975-1.069l.143.076c.167,1.815.193,3.513.193,5.142a6.536,6.536,0,0,1-.262,2.488,5.839,5.839,0,0,1-.688.983Z" transform="translate(-1073.941 -284.276)" fill="#fff" stroke="#fff" stroke-miterlimit="10" stroke-width="0.25"/></g><text transform="translate(1076.149 324.861)" fill="#fff" font-size="14" font-family="SegoeUI-Bold, Segoe UI" font-weight="700"><tspan x="0" y="0">Hi!</tspan></text><path d="M0,0H175.891a11.5,11.5,0,0,1,11.5,11.5V32.479a11.5,11.5,0,0,1-11.5,11.5H11.5A11.5,11.5,0,0,1,0,32.479V0A0,0,0,0,1,0,0Z" transform="translate(1352.588 374.501) rotate(-180)" fill="#fff"/><g transform="translate(1184.734 340.348)"><path d="M1140.745,335.7h-14.01V312.178h5.3V331.4h8.712Z" transform="translate(-1126.735 -311.784)" fill="#666"/><path d="M1149.824,335.7h-14.106V312.178h13.565v4.314h-8.266v5.234h7.692v4.3h-7.692V331.4h8.807Z" transform="translate(-1118.541 -311.784)" fill="#666"/><path d="M1165.082,334.315a16.934,16.934,0,0,1-8.565,1.985q-5.676,0-8.947-3.142T1144.3,324.5a12.079,12.079,0,0,1,3.576-9.039,13.033,13.033,0,0,1,9.515-3.494,19.343,19.343,0,0,1,6.595,1.033v4.972a13.114,13.114,0,0,0-6.66-1.576,7.146,7.146,0,0,0-5.373,2.142,9.142,9.142,0,0,0-.214,11.328,6.567,6.567,0,0,0,5.029,1.985,7.029,7.029,0,0,0,3.019-.541v-4.595h-4.71v-4.232h10.008Z" transform="translate(-1110.716 -311.972)" fill="#666"/><path d="M1171.668,335.7H1157.56V312.178h13.567v4.314h-8.268v5.234h7.694v4.3h-7.694V331.4h8.809Z" transform="translate(-1098.618 -311.784)" fill="#666"/><path d="M1188.074,335.7h-5.348l-9.695-14.781a20.67,20.67,0,0,1-1.182-1.952h-.065q.132,1.248.132,3.807V335.7h-5V312.178h5.708l9.335,14.32q.639.97,1.181,1.92h.065a25.03,25.03,0,0,1-.132-3.232V312.178h5Z" transform="translate(-1090.087 -311.784)" fill="#666"/><path d="M1180.793,335.7V312.178h8.333q12.534,0,12.534,11.467a11.6,11.6,0,0,1-3.421,8.777,12.612,12.612,0,0,1-9.113,3.279Zm5.3-19.21V331.4h2.625a7.1,7.1,0,0,0,5.406-2.067,7.85,7.85,0,0,0,1.96-5.627,7.113,7.113,0,0,0-1.945-5.291,7.412,7.412,0,0,0-5.453-1.927Z" transform="translate(-1077.426 -311.784)" fill="#666"/><path d="M1215.375,335.7H1209.6l-1.673-5.232h-8.367L1197.9,335.7h-5.74l8.563-23.523h6.285Zm-8.662-9.3-2.528-7.907a10.328,10.328,0,0,1-.394-2.117h-.13a9.056,9.056,0,0,1-.411,2.05l-2.558,7.974Z" transform="translate(-1067.057 -311.784)" fill="#666"/></g></g></svg>