<svg xmlns="http://www.w3.org/2000/svg" width="581.678" height="188.69" viewBox="0 0 581.678 188.69"><g transform="translate(-824.4 -263.113)"><g transform="translate(1067.849 277.106)"><text transform="translate(0 70)" fill="#666" font-size="65" font-family="SegoeUI-Semibold, Segoe UI" font-weight="600"><tspan x="0" y="0">VIVA</tspan></text><text transform="translate(161.19 70)" fill="#666" font-size="65" font-family="SegoeUI-Bold, Segoe UI" font-weight="700"><tspan x="0" y="0">SEM</tspan></text></g><g transform="translate(875.522 344.42)"><path d="M847.428,284.853h-.012a4.933,4.933,0,0,0-4.92,4.943v74.136a4.964,4.964,0,0,0,4.951,4.943c11.51.027,30.787,2.426,44.089,16.345V307.634a4.72,4.72,0,0,0-.679-2.5C879.943,287.551,858.961,284.88,847.428,284.853Z" transform="translate(-826.293 -284.853)" fill="#666"/><path d="M906.315,363.932V289.8a4.925,4.925,0,0,0-1.455-3.508,4.861,4.861,0,0,0-3.465-1.435h-.012c-11.533.027-32.51,2.7-43.429,20.279a4.75,4.75,0,0,0-.68,2.5v77.586c13.3-13.92,32.584-16.319,44.089-16.345A4.964,4.964,0,0,0,906.315,363.932Z" transform="translate(-784.355 -284.853)" fill="#666"/><path d="M912.507,289.308h-3.585v61.981a12.648,12.648,0,0,1-12.607,12.619c-9.76.023-25.856,1.93-37.254,12.719,19.715-4.824,40.5-1.689,52.341,1.013a4.943,4.943,0,0,0,6.048-4.82V294.251A4.947,4.947,0,0,0,912.507,289.308Z" transform="translate(-779.287 -272.21)" fill="#666"/><path d="M846.8,351.289V289.308h-3.585a4.947,4.947,0,0,0-4.943,4.943V372.82a4.942,4.942,0,0,0,6.048,4.816c11.847-2.7,32.63-5.837,52.341-1.009-11.4-10.788-27.491-12.7-37.254-12.719A12.648,12.648,0,0,1,846.8,351.289Z" transform="translate(-838.275 -272.21)" fill="#666"/></g><path d="M894.523,342.912c12.546-6.559,20.87-18.042,20.87-31.125,0-20.387-20.2-36.916-45.122-36.916S825.15,291.4,825.15,311.787s20.2,36.92,45.121,36.92c.852,0,1.7-.027,2.545-.065a66.267,66.267,0,0,0,30.875,10.738,70.843,70.843,0,0,0,11.026.184C905.664,357.262,899.147,350.515,894.523,342.912Z" transform="translate(0 31.239)" fill="#0095f5" stroke="#fff" stroke-linecap="round" stroke-linejoin="round" stroke-width="1.5"/><path d="M901.837,266.9c-24.92,0-45.122,16.53-45.122,36.916,0,13.08,8.34,24.547,20.882,31.1-4.624,7.614-11.141,14.369-20.206,16.675a71.316,71.316,0,0,0,11.026-.184,66.276,66.276,0,0,0,30.895-10.781c.84.038,1.673.1,2.525.1,24.919,0,45.121-16.526,45.121-36.916S926.757,266.9,901.837,266.9Z" transform="translate(89.58 8.621)" fill="#fbb03b" stroke="#fff" stroke-linecap="round" stroke-linejoin="round" stroke-width="1.5"/><g transform="translate(964.955 297.828)"><path d="M887.437,277.391a47.706,47.706,0,0,1-1.155,6.935l-1.7-.3a35.7,35.7,0,0,1,3.04,8.789l-3.738,1.37a35.264,35.264,0,0,0-2.874-9.138l3.12-1.1-1.159-.219c.081-.752.215-1.746.323-2.794h-2.364V294c0,2.552-.43,4.275-5.592,4.275a14.083,14.083,0,0,0-1.316-3.926c1.048.027,2.176.027,2.552.027.349,0,.484-.081.484-.43v-13.01h-2.23a23.436,23.436,0,0,1-1.773,3.255l3.95,1.021c-.081.242-.349.376-.725.376a28.158,28.158,0,0,1-3.654,8.708,21.729,21.729,0,0,0-3.036-1.907,21.357,21.357,0,0,0,3.09-7.61h-.027c-.242.353-.484.675-.752,1a25.392,25.392,0,0,0-2.771-2.368v14.868h-3.868V286.663c-.461.645-.914,1.236-1.37,1.8a31.384,31.384,0,0,0-2.314-3.492c2.364-2.69,4.678-7.607,6.022-12.258l4.436,1.37c-.107.269-.4.4-.836.376-.7,1.992-1.5,4.007-2.391,5.941l1.128.269c-.054.3-.3.51-.806.564v1.827c1.934-2.364,3.523-6.394,4.356-10.266l4.49,1.182c-.081.242-.353.4-.783.376-.269.994-.564,1.988-.913,2.982h9.061Z" transform="translate(-861.578 -272.713)" fill="#f2f2f2"/><path d="M877.687,277.875l2.046.457a3.714,3.714,0,0,1-.188.645,38.258,38.258,0,0,1-2.069,11.233,18.5,18.5,0,0,1,2.821,2.8l-2.337,3.143a21.678,21.678,0,0,0-2.206-2.472,15.087,15.087,0,0,1-4.732,4.678,13.649,13.649,0,0,0-2.311-3.093,10.578,10.578,0,0,0,4.141-4.087l-.752-.587-.161.645-3.174-1.669c.591-2.176,1.213-5.028,1.8-8.01h-1.854v-3.6h2.529c.322-1.8.591-3.6.833-5.242l4.325.43c-.023.3-.265.457-.779.51l-.779,4.3h2.2Zm-3.573,3.68c-.376,1.8-.753,3.6-1.155,5.323.457.3.94.618,1.4.967a29.749,29.749,0,0,0,1.343-6.29Zm19.891,2.852v3.68h-5.645v5.995c0,2.713-.645,4.249-6.1,4.168a16.215,16.215,0,0,0-1.37-3.819c.86.027,1.827.054,2.445.054.913,0,1.106,0,1.106-.457v-5.941h-5.323v-3.68h5.323v-3.953l1.1.054a21.813,21.813,0,0,0,2.042-2.874h-7.553v-3.577h10.186l.645-.215,3.04,1.827a1.206,1.206,0,0,1-.752.43,46.905,46.905,0,0,1-4.786,6.1v2.207Z" transform="translate(-841.335 -272.713)" fill="#f2f2f2"/></g><path d="M900.977,325.441c11.348-5.937,18.894-16.315,18.894-28.154,0-18.46-18.288-33.424-40.85-33.424s-40.85,14.964-40.85,33.424,18.287,33.42,40.85,33.42c.771,0,1.527-.057,2.287-.092a60,60,0,0,0,27.97,9.76,64.538,64.538,0,0,0,9.982.165C911.055,338.452,905.164,332.334,900.977,325.441Z" transform="translate(36.952 0)" fill="#f71a19" stroke="#fff" stroke-linecap="round" stroke-linejoin="round" stroke-width="1.5"/><g transform="translate(897.67 282.219)"><path d="M847.707,270.837l-.457-.507a.693.693,0,0,0-.572-.238c-.675.019-1.132.338-1.132.591,0,.441.779.894,2.211.894.626,0,1.113-.015,1.7-.05l.069.154a10.4,10.4,0,0,1-.694,1.362,10.746,10.746,0,0,0-4.214,1.217l-.2-.2c.2-.438.422-.86.656-1.263a1.441,1.441,0,0,1-1.029-1.351,2.884,2.884,0,0,1,1.082-1.907,3.257,3.257,0,0,1,2.092-.89c.725,0,1.2.368,1.2.944a2.306,2.306,0,0,1-.491,1.247Zm-1.6,20.744a29.356,29.356,0,0,0,.219-4.064,99.491,99.491,0,0,0-.576-10.961,28.475,28.475,0,0,1,1.958-2.145l.288.153c.338,3.642.388,7.05.388,10.32,0,2.648-.154,4.421-.522,4.993a12,12,0,0,1-1.385,1.973Z" transform="translate(-844.046 -268.646)" fill="#fff" stroke="#fff" stroke-miterlimit="10" stroke-width="0.25"/><path d="M848.9,271.621l.357-.238c1.178.979,2.51,1.838,3.642,2.852a4.832,4.832,0,0,1,1.854,4.049,7.56,7.56,0,0,1-.825,3.542,5.06,5.06,0,0,1-4.015,2.038c-3.373,0-3.861-3.086-3.861-4.233,0-2.46,1.063-4.164,2.595-6.037ZM847.64,278.5c0,1.009,1.029,1.938,2.544,1.938a3.761,3.761,0,0,0,3.055-1.416c-.134-1.113-1.282-2.276-3.493-3.523C848.262,276.8,847.64,277.777,847.64,278.5Z" transform="translate(-838.345 -260.879)" fill="#fff" stroke="#fff" stroke-miterlimit="10" stroke-width="0.25"/><path d="M859.961,270.185c0,1.113.641,2.479,1.858,4.5l-1.52,1.147c.084,1.8.119,3.692.119,5.684a17.375,17.375,0,0,1-.81,5.684,6.969,6.969,0,0,1-5.868,3.254c-2.836,0-4.64-2.111-4.64-5.212a11.187,11.187,0,0,1,1.267-5.078l.894.438a7.979,7.979,0,0,0-.675,2.817,3.28,3.28,0,0,0,3.557,3.443,5.92,5.92,0,0,0,2.633-.691,4.829,4.829,0,0,0,1.869-1.4c.035-.422.035-.979.035-1.669,0-1.739-.234-5.331-.472-8.079-.065-.844-.219-1.485-.219-2.141a2.458,2.458,0,0,1,.457-1.57,6.84,6.84,0,0,1,1.313-1.267Z" transform="translate(-829.703 -264.67)" fill="#fff" stroke="#fff" stroke-miterlimit="10" stroke-width="0.25"/><path d="M853.285,287.319a28.679,28.679,0,0,0,.223-4.064,99.6,99.6,0,0,0-.576-10.961,28.415,28.415,0,0,1,1.957-2.145l.288.153c.334,3.642.388,7.05.388,10.32,0,2.648-.154,4.421-.526,4.993a11.748,11.748,0,0,1-1.382,1.973Z" transform="translate(-818.829 -264.383)" fill="#fff" stroke="#fff" stroke-miterlimit="10" stroke-width="0.25"/></g><text transform="translate(851.241 351.065)" fill="#fff" font-size="27" font-family="SegoeUI-Bold, Segoe UI" font-weight="700"><tspan x="0" y="0">Hi!</tspan></text><path d="M0,0H364.61a11.5,11.5,0,0,1,11.5,11.5V76.771a11.5,11.5,0,0,1-11.5,11.5H11.5A11.5,11.5,0,0,1,0,76.771V0A0,0,0,0,1,0,0Z" transform="translate(1406.078 451.803) rotate(-180)" fill="#0095f5"/><g transform="translate(1069.18 383.255)"><path d="M916.855,342.391h-28.12V295.178h10.635v38.59h17.485Z" transform="translate(-888.735 -294.387)" fill="#fff"/><path d="M926.029,342.391H897.718V295.178h27.226v8.658H908.352v10.5h15.44v8.624h-15.44v10.8h17.677Z" transform="translate(-863.242 -294.387)" fill="#fff"/><path d="M948.014,339.817q-6.914,3.984-17.19,3.984-11.393,0-17.957-6.306t-6.57-17.37q0-11.128,7.177-18.141t19.1-7.012a38.826,38.826,0,0,1,13.237,2.073v9.978a26.32,26.32,0,0,0-13.367-3.162,14.341,14.341,0,0,0-10.784,4.3q-4.168,4.295-4.164,11.475,0,7.271,3.734,11.26t10.094,3.984a14.106,14.106,0,0,0,6.06-1.086V324.57h-9.453v-8.493h20.087Z" transform="translate(-838.896 -294.972)" fill="#fff"/><path d="M947.875,342.391H919.56V295.178h27.23v8.658H930.195v10.5h15.443v8.624H930.195v10.8h17.681Z" transform="translate(-801.258 -294.387)" fill="#fff"/><path d="M971.385,342.391H960.651l-19.458-29.667a41.508,41.508,0,0,1-2.372-3.918h-.13q.264,2.5.265,7.641v25.944H928.912V295.178h11.456L959.1,323.92q1.284,1.946,2.372,3.853h.13a50.154,50.154,0,0,1-.265-6.486V295.178h10.044Z" transform="translate(-774.718 -294.387)" fill="#fff"/><path d="M942.793,342.391V295.178h16.725q25.157,0,25.157,23.016,0,11.03-6.866,17.616t-18.291,6.582Zm10.634-38.555v29.931H958.7q6.914,0,10.849-4.149t3.934-11.295q0-6.753-3.9-10.62t-10.945-3.868Z" transform="translate(-735.326 -294.387)" fill="#fff"/><path d="M1000.752,342.391H989.162l-3.358-10.5H969.009l-3.327,10.5H954.161l17.186-47.213h12.615Zm-17.386-18.667-5.074-15.87a20.767,20.767,0,0,1-.79-4.248h-.261a18.176,18.176,0,0,1-.825,4.114l-5.135,16Z" transform="translate(-703.065 -294.387)" fill="#fff"/></g></g></svg>