<svg xmlns="http://www.w3.org/2000/svg" viewBox="0 0 151.41 49.47"><defs><style>.cls-1,.cls-6{fill:#fff;}.cls-2{fill:#0095f5;}.cls-3{fill:#fbb03b;}.cls-4{fill:#f2f2f2;}.cls-5{fill:#ed1c24;}.cls-6{stroke:#fff;stroke-miterlimit:10;stroke-width:0.25px;}.cls-7{fill:#666;}</style></defs><title>Asset 2</title><g id="Layer_2" data-name="Layer 2"><g id="Layer_1-2" data-name="Layer 1"><path class="cls-1" d="M75,10.48l-4.42,12.3H68.26l-4.34-12.3h2.23l3,9.33a5.54,5.54,0,0,1,.23,1h0a5.86,5.86,0,0,1,.25-1.05l3.11-9.32Z" transform="translate(0)"/><path class="cls-1" d="M78.68,22.78h-2.1V10.48h2.1Z" transform="translate(0)"/><path class="cls-1" d="M91.35,10.48l-4.41,12.3H84.65l-4.34-12.3h2.23l3,9.33a5.57,5.57,0,0,1,.22,1h0a5.11,5.11,0,0,1,.25-1.05l3.1-9.32Z" transform="translate(0)"/><path class="cls-1" d="M102.13,22.78H99.89l-1.11-3.13H94l-1.07,3.13H90.65l4.61-12.3h2.3ZM98.24,18l-1.7-4.91a6.44,6.44,0,0,1-.17-.77h0a5.41,5.41,0,0,1-.17.77L94.48,18Z" transform="translate(0)"/><path class="cls-1" d="M106.64,22.31V19.57a5.53,5.53,0,0,0,1.62.94,5.41,5.41,0,0,0,1.77.31,3.52,3.52,0,0,0,.91-.1,2.05,2.05,0,0,0,.65-.26,1,1,0,0,0,.39-.39,1,1,0,0,0,.13-.5,1.1,1.1,0,0,0-.2-.64,2.23,2.23,0,0,0-.57-.52,5.35,5.35,0,0,0-.84-.47c-.33-.14-.68-.3-1.06-.45A5.43,5.43,0,0,1,107.29,16a3.2,3.2,0,0,1-.7-2.09,3.41,3.41,0,0,1,.38-1.65,3.37,3.37,0,0,1,1-1.14,4.75,4.75,0,0,1,1.54-.66,8,8,0,0,1,1.86-.21,10.69,10.69,0,0,1,1.7.12,7,7,0,0,1,1.37.36v2.56a4.84,4.84,0,0,0-.67-.38c-.25-.1-.5-.19-.76-.27a5.1,5.1,0,0,0-.76-.15,4.78,4.78,0,0,0-.73-.06,3.85,3.85,0,0,0-.86.09,2.26,2.26,0,0,0-.65.26,1.28,1.28,0,0,0-.41.39.9.9,0,0,0-.15.51,1,1,0,0,0,.17.55,1.82,1.82,0,0,0,.46.46,4.4,4.4,0,0,0,.73.43c.29.14.61.29,1,.44a10.15,10.15,0,0,1,1.32.65,4.54,4.54,0,0,1,1,.79,3,3,0,0,1,.65,1,3.7,3.7,0,0,1,.22,1.31,3.47,3.47,0,0,1-.39,1.72,3.22,3.22,0,0,1-1.06,1.14,4.72,4.72,0,0,1-1.56.62,9.41,9.41,0,0,1-1.87.19,10.83,10.83,0,0,1-1.93-.17A6,6,0,0,1,106.64,22.31Z" transform="translate(0)"/><path class="cls-1" d="M124.43,22.78h-7.38V10.48h7.1v2.26h-4.32v2.73h4v2.25h-4v2.82h4.6Z" transform="translate(0)"/><path class="cls-1" d="M140.42,22.78h-2.73V15.42c0-.79,0-1.67.1-2.63h-.07a13.64,13.64,0,0,1-.38,1.63l-2.89,8.36h-2.26l-2.94-8.28a14.55,14.55,0,0,1-.38-1.71h-.08c.07,1.21.11,2.27.11,3.19v6.8h-2.49V10.48h4.05L133,17.77a11.33,11.33,0,0,1,.44,1.76h.05a14.56,14.56,0,0,1,.49-1.77l2.51-7.28h3.95Z" transform="translate(0)"/><path class="cls-1" d="M19.19,21.32h0a1.3,1.3,0,0,0-1.28,1.29V41.93a1.3,1.3,0,0,0,1.29,1.29c3,0,8,.63,11.48,4.25V27.26a1.26,1.26,0,0,0-.17-.65C27.66,22,22.2,21.33,19.19,21.32Z" transform="translate(0)"/><path class="cls-1" d="M45.46,41.93V22.61a1.3,1.3,0,0,0-1.28-1.29h0c-3,0-8.47.71-11.32,5.29a1.26,1.26,0,0,0-.18.65V47.47c3.47-3.62,8.49-4.25,11.49-4.25A1.3,1.3,0,0,0,45.46,41.93Z" transform="translate(0)"/><path class="cls-1" d="M48.4,25.78h-.94V41.93a3.3,3.3,0,0,1-3.28,3.29c-2.55,0-6.74.5-9.71,3.31a31,31,0,0,1,13.64.26,1.28,1.28,0,0,0,1.57-1.25V27.07A1.28,1.28,0,0,0,48.4,25.78Z" transform="translate(0)"/><path class="cls-1" d="M15.91,41.93V25.78H15a1.29,1.29,0,0,0-1.29,1.29V47.54a1.3,1.3,0,0,0,1.58,1.25,31,31,0,0,1,13.64-.26c-3-2.81-7.17-3.31-9.71-3.31A3.3,3.3,0,0,1,15.91,41.93Z" transform="translate(0)"/><path class="cls-2" d="M18.64,29.07c3.26-1.71,5.43-4.7,5.43-8.11,0-5.31-5.26-9.62-11.75-9.62S.56,15.65.56,21s5.26,9.62,11.76,9.62l.66,0a17.34,17.34,0,0,0,8,2.8,18.55,18.55,0,0,0,2.88,0A8.94,8.94,0,0,1,18.64,29.07Z" transform="translate(0)"/><path class="cls-1" d="M18.56,29.05c.56-.41,1.1-.77,1.57-1.18a9.68,9.68,0,0,0,1.3-1.34,8.8,8.8,0,0,0,1.75-3.18A7.88,7.88,0,0,0,22,16.58,12.87,12.87,0,0,0,8.8,12a10.78,10.78,0,0,0-6.14,4,7.8,7.8,0,0,0-1.2,6.85A9.21,9.21,0,0,0,6,28.19a13.84,13.84,0,0,0,7,1.59h0a.81.81,0,0,1,.46.14,17.24,17.24,0,0,0,5,2.31,19.49,19.49,0,0,0,5.5.71l-.09.92A7.66,7.66,0,0,1,20.64,32a10.69,10.69,0,0,1-1.16-1.36A9.51,9.51,0,0,1,18.56,29.05Zm.15,0c.32.35.7.89,1.08,1.29A11.38,11.38,0,0,0,21,31.54,7.21,7.21,0,0,0,24,33a.47.47,0,0,1,.37.55.47.47,0,0,1-.41.37h0A18,18,0,0,1,18,33.52a16.52,16.52,0,0,1-5.5-2.31l.47.13a13.85,13.85,0,0,1-7.79-1.83,10.3,10.3,0,0,1-5-6.28,8.21,8.21,0,0,1,0-4.06A9.13,9.13,0,0,1,2.1,15.62a13.06,13.06,0,0,1,6.58-4,15.57,15.57,0,0,1,7.79-.12,11,11,0,0,1,6.6,4.37,8.51,8.51,0,0,1,1.06,7.85A9.4,9.4,0,0,1,21.93,27a10.58,10.58,0,0,1-1.54,1.22A7.92,7.92,0,0,1,18.71,29.09Z" transform="translate(0)"/><path class="cls-3" d="M43.88,3.37c-6.49,0-11.75,4.31-11.75,9.62,0,3.41,2.17,6.39,5.44,8.1a9,9,0,0,1-5.27,4.35,18.4,18.4,0,0,0,2.87-.05,17.16,17.16,0,0,0,8-2.81c.22,0,.44,0,.66,0,6.5,0,11.76-4.31,11.76-9.62S50.38,3.37,43.88,3.37Z" transform="translate(0)"/><path class="cls-1" d="M43.88,3.45a13.28,13.28,0,0,0-3.32.45,12.41,12.41,0,0,0-3.05,1.34,10.07,10.07,0,0,0-4.13,4.81,7.86,7.86,0,0,0,.06,6.06,9.93,9.93,0,0,0,4.28,4.7h0a.31.31,0,0,1,.11.43h0A12.57,12.57,0,0,1,35.51,24a7.93,7.93,0,0,1-3.15,1.7l0-.47a17,17,0,0,0,10.56-3.13.59.59,0,0,1,.34-.1h0a13,13,0,0,0,7.69-2.2,8.69,8.69,0,0,0,3.91-6.48,8.68,8.68,0,0,0-3.2-7,12,12,0,0,0-3.6-2.11A12.53,12.53,0,0,0,43.88,3.45Zm0-.15a15.92,15.92,0,0,1,4.28.56,12.86,12.86,0,0,1,4,1.78,10.12,10.12,0,0,1,3.1,3.24,8.21,8.21,0,0,1,1.13,4.47A9.64,9.64,0,0,1,51.8,21a13.85,13.85,0,0,1-8.6,2.15l.37-.1A16.75,16.75,0,0,1,38.1,25.3a20.67,20.67,0,0,1-5.81.38h0a.24.24,0,0,1-.22-.26.24.24,0,0,1,.18-.21,6.8,6.8,0,0,0,3-1.6,10.3,10.3,0,0,0,2.09-2.68l.13.45a10.81,10.81,0,0,1-5.1-4.75,8.18,8.18,0,0,1-.1-7.08,10.35,10.35,0,0,1,5-4.83A16.07,16.07,0,0,1,43.88,3.3Z" transform="translate(0)"/><path class="cls-4" d="M38.11,12A7.92,7.92,0,0,1,37.39,13c-.07-.1-.21-.28-.3-.38a10.64,10.64,0,0,0,1.68-3.41l.58.18c0,.07-.09.08-.16.07a16,16,0,0,1-.67,1.66l.2.06a.12.12,0,0,1-.13.08v4.46h-.48Zm4.8.17c.06-.26.13-.65.19-1H41.71v4.09c0,.5-.18.59-1.16.59a1.88,1.88,0,0,0-.18-.48h.76c.09,0,.12,0,.12-.12V11.09H40.12a6.25,6.25,0,0,1-.72,1.32,3.51,3.51,0,0,0-.36-.29A7.72,7.72,0,0,0,40.2,9.27l.58.16c0,.05-.07.07-.16.07a11.59,11.59,0,0,1-.33,1.15h3.34a11.43,11.43,0,0,1-.32,1.54Zm-2.24.23c0,.05-.07.07-.15.07a6.92,6.92,0,0,1-1.05,2.34,2.3,2.3,0,0,0-.37-.23,6.48,6.48,0,0,0,1-2.34Zm2.54,2.36a9.91,9.91,0,0,0-1-2.42l.41-.14a9.07,9.07,0,0,1,1,2.39Z" transform="translate(0)"/><path class="cls-4" d="M46.56,10.72l.26.07,0,.09a9.26,9.26,0,0,1-.67,3,4.86,4.86,0,0,1,.83.76l-.29.38a5.25,5.25,0,0,0-.75-.72,3.84,3.84,0,0,1-1.39,1.46,1.8,1.8,0,0,0-.29-.39A3.4,3.4,0,0,0,45.54,14a9.37,9.37,0,0,0-.8-.54l-.09.31-.4-.21c.18-.62.4-1.51.6-2.41h-.7v-.44H45c.11-.53.21-1,.29-1.48l.58.07c0,.05,0,.08-.15.08-.07.4-.17.86-.27,1.33h1.07Zm-1.26.46c-.15.65-.31,1.31-.46,1.88a9.41,9.41,0,0,1,.89.56,8.49,8.49,0,0,0,.58-2.44Zm5.34,1.2v.46H49v2.32c0,.54-.21.62-1.45.61a1.91,1.91,0,0,0-.17-.47h.84c.24,0,.31,0,.31-.15V12.84H46.76v-.46h1.72V11.19l.23,0a7.16,7.16,0,0,0,1-1.15h-2.7V9.62H50.1l.09,0,.37.23a.3.3,0,0,1-.11.07A8.39,8.39,0,0,1,49,11.51v.87Z" transform="translate(0)"/><path class="cls-5" d="M30.25,16.38A8.46,8.46,0,0,0,35.17,9c0-4.81-4.76-8.71-10.64-8.71S13.89,4.23,13.89,9s4.76,8.71,10.64,8.71l.6,0a15.63,15.63,0,0,0,7.28,2.54,17.46,17.46,0,0,0,2.6,0A8.12,8.12,0,0,1,30.25,16.38Z" transform="translate(0)"/><path class="cls-1" d="M30.18,16.36c.5-.38,1-.71,1.41-1.08a9.61,9.61,0,0,0,1.17-1.22,8.23,8.23,0,0,0,1.55-2.88,7,7,0,0,0-1.09-6.07A11.61,11.61,0,0,0,21.35,1a9.67,9.67,0,0,0-5.54,3.65,7.06,7.06,0,0,0-1.06,6.17,8.33,8.33,0,0,0,4.08,4.73,12.32,12.32,0,0,0,6.26,1.42h0a.81.81,0,0,1,.46.14A15.6,15.6,0,0,0,30,19.18a17.63,17.63,0,0,0,5,.66l-.09.93a6.92,6.92,0,0,1-2.85-1.72,9.53,9.53,0,0,1-1-1.25A8.22,8.22,0,0,1,30.18,16.36Zm.14,0c.3.31.64.8,1,1.15a8,8,0,0,0,1.14,1,6.56,6.56,0,0,0,2.68,1.27.46.46,0,0,1,0,.91H35a16.08,16.08,0,0,1-5.35-.31,15,15,0,0,1-5-2.1l.47.14a12.44,12.44,0,0,1-7.09-1.67,9.36,9.36,0,0,1-4.52-5.73,7.82,7.82,0,0,1,1.7-6.93,12,12,0,0,1,6-3.66A14.29,14.29,0,0,1,28.3.38a10.05,10.05,0,0,1,6,4,7.76,7.76,0,0,1,1,7.16A8.7,8.7,0,0,1,30.32,16.4Z" transform="translate(0)"/><path class="cls-6" d="M19.57,7.82a9.08,9.08,0,0,0-1.32.61,1.15,1.15,0,0,0-.66.87c0,.65.72,1.1,1.79,1.1a4,4,0,0,0,1-.11l0,.07a6.88,6.88,0,0,1-.66.44,1.47,1.47,0,0,1-.67.11c-.94,0-1.75-.45-1.75-1.46A1.71,1.71,0,0,1,18,8.19c-.42-.3-.58-.51-.58-.85a1.34,1.34,0,0,1,.17-.6.86.86,0,0,1,.73-.46,1,1,0,0,1,.84.5l-.06.08a1.49,1.49,0,0,0-.61-.13c-.43,0-.78.22-.78.38s.1.32.34.5a1.21,1.21,0,0,0,.41.21.57.57,0,0,0,.22-.07c.35-.17.7-.32,1.05-.46h0Z" transform="translate(0)"/><path class="cls-6" d="M22.1,7l.28.53a1.52,1.52,0,0,1,.19.74v.43a1.77,1.77,0,0,1-.49,1.09.92.92,0,0,1-.64.35,2.27,2.27,0,0,1-1-.3l.05-.13a1.33,1.33,0,0,0,.43.07,1.69,1.69,0,0,0,1.37-1.05.45.45,0,0,0,0-.18.73.73,0,0,0-.05-.2,5.82,5.82,0,0,0-.47-.86c.09-.17.18-.33.28-.49Z" transform="translate(0)"/><path class="cls-6" d="M25.2,9.19c-1.08,0-1.91-.39-1.91-1.35a2,2,0,0,1,.23-1l.15.07a2,2,0,0,0-.11.59c0,.79.78,1.11,1.76,1.11a5.9,5.9,0,0,0,1.33-.16,4,4,0,0,0,.52-.16s0,0,0-.05a3.37,3.37,0,0,0-.39-1,2.58,2.58,0,0,1,.29-.44h0a2.7,2.7,0,0,1,.39,1.19,1.14,1.14,0,0,1-.21.65A5.21,5.21,0,0,1,25.2,9.19Zm.14.71a3.57,3.57,0,0,1,.46.42,1.44,1.44,0,0,1-.32.38,5.72,5.72,0,0,0-.46-.4C25.13,10.16,25.23,10,25.34,9.9Z" transform="translate(0)"/><path class="cls-6" d="M31.21,7.54c-.07-.33-.19-.49-.3-.49a1.2,1.2,0,0,0-.62.28c-.22.17-.38.36-.38.51,0,.34,1,.3,1.29.52a.56.56,0,0,1,.17.44,1.18,1.18,0,0,1-.32.72,2.38,2.38,0,0,1-1.51.65,1.28,1.28,0,0,1-1.35-1.43,2.3,2.3,0,0,1,.21-1l.15.05a2.44,2.44,0,0,0-.12.69,1.07,1.07,0,0,0,1.15,1.13,2.27,2.27,0,0,0,1.05-.32c.25-.15.49-.33.49-.39s-.29-.21-.61-.25a1.47,1.47,0,0,1-.72-.24.51.51,0,0,1-.14-.35,1.46,1.46,0,0,1,.43-1,1.77,1.77,0,0,1,1-.55.3.3,0,0,1,.29.2,1,1,0,0,1,.09.37,1.35,1.35,0,0,1-.16.43Zm-1.84,3.82c-.16-.15-.3-.28-.46-.41l.31-.37a4.4,4.4,0,0,1,.45.42A1.9,1.9,0,0,1,29.37,11.36Zm.76,0-.46-.41a3,3,0,0,1,.31-.37,3.45,3.45,0,0,1,.44.42A2.37,2.37,0,0,1,30.13,11.31Z" transform="translate(0)"/><path class="cls-1" d="M11.87,23.5h-.81V21.38H8.77V23.5H8V18.62h.81v2.05h2.29V18.62h.81Z" transform="translate(0)"/><path class="cls-1" d="M13.39,19.29a.49.49,0,0,1-.33-.13.44.44,0,0,1,0-.64.44.44,0,0,1,.33-.13.48.48,0,0,1,.34.13.42.42,0,0,1,.14.32.45.45,0,0,1-.14.32A.53.53,0,0,1,13.39,19.29Zm.39,4.21H13V20h.79Z" transform="translate(0)"/><path class="cls-1" d="M15.35,23.57a.48.48,0,0,1-.34-.14.39.39,0,0,1-.15-.31.43.43,0,0,1,.15-.33.48.48,0,0,1,.68,0,.43.43,0,0,1,.15.33.39.39,0,0,1-.15.31A.48.48,0,0,1,15.35,23.57Zm.38-4.95-.06,3.44H15l-.09-3.44Z" transform="translate(0)"/><path class="cls-1" d="M53.41,26.47h86.5A11.5,11.5,0,0,1,151.41,38v0a11.5,11.5,0,0,1-11.5,11.5h-75A11.5,11.5,0,0,1,53.41,38V26.47a0,0,0,0,1,0,0Z" transform="translate(204.82 75.94) rotate(-180)"/><path class="cls-7" d="M72,43.78H64.66V31.48h2.77V41.54H72Z" transform="translate(0)"/><path class="cls-7" d="M81,43.78H73.64V31.48h7.1v2.26H76.42v2.73h4v2.25h-4v2.82H81Z" transform="translate(0)"/><path class="cls-7" d="M93.09,43a8.85,8.85,0,0,1-4.47,1,6.46,6.46,0,0,1-4.68-1.65,5.93,5.93,0,0,1-1.72-4.52,6.36,6.36,0,0,1,1.87-4.73,6.82,6.82,0,0,1,5-1.83,10.16,10.16,0,0,1,3.45.54v2.6A6.94,6.94,0,0,0,89,33.59a3.72,3.72,0,0,0-2.81,1.12,4.09,4.09,0,0,0-1.09,3,4.16,4.16,0,0,0,1,2.93,3.41,3.41,0,0,0,2.63,1,3.64,3.64,0,0,0,1.58-.28V39H87.86V36.77h5.23Z" transform="translate(0)"/><path class="cls-7" d="M102.87,43.78H95.49V31.48h7.09v2.26H98.26v2.73h4v2.25h-4v2.82h4.61Z" transform="translate(0)"/><path class="cls-7" d="M115.91,43.78h-2.8L108,36.05a11.64,11.64,0,0,1-.62-1h0c0,.44.07,1.1.07,2v6.76h-2.62V31.48h3L112.71,39c.22.34.42.67.61,1h0a12.26,12.26,0,0,1-.07-1.69v-6.8h2.62Z" transform="translate(0)"/><path class="cls-7" d="M118.72,43.78V31.48h4.36q6.55,0,6.55,6a6.06,6.06,0,0,1-1.79,4.59,6.6,6.6,0,0,1-4.76,1.71Zm2.77-10v7.8h1.37a3.71,3.71,0,0,0,2.83-1.09,4.11,4.11,0,0,0,1-2.94,3.74,3.74,0,0,0-1-2.77,3.88,3.88,0,0,0-2.85-1Z" transform="translate(0)"/><path class="cls-7" d="M142.23,43.78h-3l-.88-2.73H134l-.87,2.73h-3l4.48-12.3h3.28Zm-4.53-4.86-1.32-4.14a5.12,5.12,0,0,1-.21-1.1h-.07a5.06,5.06,0,0,1-.21,1.07l-1.34,4.17Z" transform="translate(0)"/></g></g></svg>