<svg xmlns="http://www.w3.org/2000/svg" xmlns:xlink="http://www.w3.org/1999/xlink" width="206.103" height="159.536" viewBox="0 0 206.103 159.536"><defs><linearGradient id="a" x1="0.5" y1="1" x2="0.5" gradientUnits="objectBoundingBox"><stop offset="0" stop-color="gray" stop-opacity="0.251"/><stop offset="0.54" stop-color="gray" stop-opacity="0.122"/><stop offset="1" stop-color="gray" stop-opacity="0.102"/></linearGradient><linearGradient id="b" y2="0" xlink:href="#a"/></defs><g transform="translate(10.653 33.128)" opacity="0.8"><path d="M373.9,364.672H196.52V249.948a3.618,3.618,0,0,1,3.618-3.618h170.14a3.618,3.618,0,0,1,3.618,3.618Z" transform="translate(-196.52 -246.33)" fill="url(#a)"/></g><path d="M60.849,153.77h165.26a3.618,3.618,0,0,1,3.618,3.618v112.64H57.24V157.39A3.618,3.618,0,0,1,60.849,153.77Z" transform="translate(-44.144 -118.558)" fill="#fff"/><rect width="161.381" height="105.851" transform="translate(18.649 41.976)" fill="#f5f5f5"/><rect width="160.696" height="95.233" transform="translate(19.267 47.115)" fill="#e0e0e0" opacity="0.8"/><rect width="160.696" height="5.061" transform="translate(19.267 42.054)" fill="#f5f5f5"/><circle cx="1.227" cy="1.227" r="1.227" transform="translate(21.486 43.282)" fill="#ff5252"/><circle cx="1.227" cy="1.227" r="1.227" transform="translate(24.859 43.282)" fill="#ff0"/><circle cx="1.227" cy="1.227" r="1.227" transform="translate(28.235 43.282)" fill="#69f0ae"/><g transform="translate(0 140.287)" opacity="0.8"><path d="M342.99,733.081c-9.874.749-179.442.458-185.366,0C149.857,729.337,150,714.81,150,714.81l77.765-.52.261,4.422H261.3l1.3-3.893h86.178S350.494,728.137,342.99,733.081Z" transform="translate(-149.999 -714.29)" fill="url(#b)"/></g><path d="M351.421,721.67h-84.5a2.594,2.594,0,0,1-1.969,4.291h-32.26a2.594,2.594,0,0,1-1.969-4.291H155.06s-.131,12.615,7.543,15.876c5.851.389,173.346.65,183.1,0C353.123,733.243,351.421,721.67,351.421,721.67Z" transform="translate(-153.901 -579.693)" fill="#f5f5f5"/><circle cx="1.04" cy="1.04" r="1.04" transform="translate(17.676 143.669)" fill="#e0e0e0"/><circle cx="1.04" cy="1.04" r="1.04" transform="translate(20.797 143.669)" fill="#e0e0e0"/><circle cx="1.04" cy="1.04" r="1.04" transform="translate(23.916 143.669)" fill="#e0e0e0"/><path d="M312.324,375.85H319.7a31.944,31.944,0,0,1,31.944,31.944v23.222H280.38V407.794A31.944,31.944,0,0,1,312.324,375.85Z" transform="translate(-216.187 -289.784)" fill="#09f"/><circle cx="32.567" cy="32.567" r="32.567" transform="translate(67.326 8.512)" fill="#333"/><path d="M392.95,334.43h9.418a6.641,6.641,0,0,1,6.641,6.641v6.471A10.153,10.153,0,0,1,398.856,357.7h-2.4A10.153,10.153,0,0,1,386.3,347.542V341.08a6.641,6.641,0,0,1,6.641-6.641Z" transform="translate(-297.852 -257.849)" opacity="0.1"/><path d="M386.3,331.53h22.72v13.121A10.153,10.153,0,0,1,398.867,354.8h-2.414A10.153,10.153,0,0,1,386.3,344.651Z" transform="translate(-297.852 -255.613)" fill="#fdb797"/><path d="M536.43,438.317a32.7,32.7,0,0,0,22.72.062V435.59H536.43Z" transform="translate(-447.941 -359.123)" opacity="0.1"/><circle cx="32.567" cy="32.567" r="32.567" transform="translate(67.326 15.581)" fill="#fdb797"/><path d="M450.26,182.247h62.1s-5.3-25.077-28.78-23.49S450.26,182.247,450.26,182.247Z" transform="translate(-381.503 -145.626)" opacity="0.1"/><path d="M450.26,178.6h62.1s-5.3-25.077-28.78-23.478S450.26,178.6,450.26,178.6Z" transform="translate(-381.503 -142.824)" fill="#333"/><ellipse cx="3.03" cy="5.681" rx="3.03" ry="5.681" transform="translate(64.969 41.079)" fill="#fdb797"/><ellipse cx="3.03" cy="5.681" rx="3.03" ry="5.681" transform="translate(128.588 41.079)" fill="#fdb797"/><path d="M468.044,124.377a11.538,11.538,0,0,1,4.186-6.206,21.844,21.844,0,0,1,5.306-2.276,40.55,40.55,0,0,0,7.712-3.689c2.762-1.7,5.356-3.751,8.4-4.875,5.232-1.935,11.06-.888,16.462.5a13.816,13.816,0,0,1,3.849,1.431,14.581,14.581,0,0,1,3.417,3.307l8.573,10.341a16.329,16.329,0,0,1,2.13,3,10.325,10.325,0,0,1,.976,3.387,8.9,8.9,0,0,1-.916,5.558c-1.449,2.475-4.438,3.719-7.3,3.833a26.589,26.589,0,0,1-8.429-1.523c-8.876-2.6-17.861-5.022-27.067-6.1a76.348,76.348,0,0,0-13.774-.447c-1.443.094-3.348.756-4.225-.714C466.581,128.629,467.653,125.654,468.044,124.377Z" transform="translate(-394.467 -105.215)" fill="#333"/><line y2="25.285" transform="translate(78.143 115.947)" fill="none" stroke="#000" stroke-miterlimit="10" stroke-width="4" opacity="0.05"/><line y2="25.285" transform="translate(122.073 115.947)" fill="none" stroke="#000" stroke-miterlimit="10" stroke-width="4" opacity="0.05"/><g transform="translate(142.251)" opacity="0.8"><path d="M685.112,45.448H644.246l-13.792,11.5v-11.5H621.26V0h63.852Z" transform="translate(-621.26)" fill="url(#a)"/></g><rect width="62.121" height="43.46" transform="translate(143.117 0.54)" fill="#fff"/><rect width="49.222" height="1.292" transform="translate(150.113 6.929)" fill="#e0e0e0"/><rect width="33.84" height="1.292" transform="translate(150.113 12.746)" fill="#e0e0e0"/><rect width="40.609" height="1.292" transform="translate(150.113 18.56)" fill="#e0e0e0"/><rect width="32.611" height="1.292" transform="translate(150.113 24.376)" fill="#09f"/><rect width="49.222" height="1.292" transform="translate(150.113 30.19)" fill="#09f"/><rect width="49.222" height="1.292" transform="translate(150.113 36.006)" fill="#e0e0e0"/><path d="M671.45,184.59v11.5l12.643-12.645Z" transform="translate(-517.706 -141.434)" fill="#fff"/></svg>